STIXTwoText-BoldItalic.ufo
<glyph name="exclam" format="2">
  <advance width="326"/>
  <unicode hex="0021"/>
  <outline>
    <contour>
      <point x="179" y="193" type="line"/>
      <point x="299" y="532" type="line" smooth="yes"/>
      <point x="311" y="566"/>
      <point x="322" y="601"/>
      <point x="322" y="616" type="curve" smooth="yes"/>
      <point x="322" y="647"/>
      <point x="303" y="669"/>
      <point x="252" y="669" type="curve" smooth="yes"/>
      <point x="186" y="669"/>
      <point x="167" y="640"/>
      <point x="159" y="603" type="curve" smooth="yes"/>
      <point x="156" y="587"/>
      <point x="154" y="566"/>
      <point x="151" y="538" type="curve"/>
      <point x="124" y="193" type="line"/>
    </contour>
    <contour>
      <point x="137" y="-10" type="curve" smooth="yes"/>
      <point x="188" y="-10"/>
      <point x="215" y="20"/>
      <point x="215" y="66" type="curve" smooth="yes"/>
      <point x="215" y="109"/>
      <point x="188" y="139"/>
      <point x="137" y="139" type="curve" smooth="yes"/>
      <point x="88" y="139"/>
      <point x="60" y="109"/>
      <point x="60" y="65" type="curve" smooth="yes"/>
      <point x="60" y="20"/>
      <point x="89" y="-10"/>
    </contour>
  </outline>
</glyph>
<glyph name="quotedbl" format="2">
  <advance width="347"/>
  <unicode hex="0022"/>
  <outline>
    <contour>
      <point x="324" y="505" type="line"/>
      <point x="414" y="659" type="line"/>
      <point x="424" y="706" type="line"/>
      <point x="306" y="706" type="line"/>
      <point x="263" y="505" type="line"/>
    </contour>
    <contour>
      <point x="170" y="505" type="line"/>
      <point x="260" y="659" type="line"/>
      <point x="270" y="706" type="line"/>
      <point x="152" y="706" type="line"/>
      <point x="109" y="505" type="line"/>
    </contour>
  </outline>
</glyph>
<glyph name="numbersign" format="2">
  <advance width="573"/>
  <unicode hex="0023"/>
  <outline>
    <contour>
      <point x="131" y="26" type="line"/>
      <point x="356" y="626" type="line"/>
      <point x="275" y="626" type="line"/>
      <point x="51" y="26" type="line"/>
    </contour>
    <contour>
      <point x="527" y="196" type="line"/>
      <point x="542" y="268" type="line"/>
      <point x="23" y="268" type="line"/>
      <point x="8" y="196" type="line"/>
    </contour>
    <contour>
      <point x="338" y="26" type="line"/>
      <point x="558" y="625" type="line"/>
      <point x="477" y="625" type="line"/>
      <point x="257" y="26" type="line"/>
    </contour>
    <contour>
      <point x="587" y="379" type="line"/>
      <point x="602" y="452" type="line"/>
      <point x="86" y="452" type="line"/>
      <point x="71" y="379" type="line"/>
    </contour>
  </outline>
</glyph>
<glyph name="dollar" format="2">
  <advance width="495"/>
  <unicode hex="0024"/>
  <outline>
    <contour>
      <point x="184" y="-3" type="curve" smooth="yes"/>
      <point x="338" y="-3"/>
      <point x="461" y="75"/>
      <point x="461" y="211" type="curve" smooth="yes"/>
      <point x="461" y="318"/>
      <point x="368" y="366"/>
      <point x="293" y="405" type="curve"/>
      <point x="258" y="246" type="line"/>
      <point x="292" y="225"/>
      <point x="318" y="197"/>
      <point x="318" y="153" type="curve" smooth="yes"/>
      <point x="318" y="88"/>
      <point x="263" y="49"/>
      <point x="188" y="49" type="curve" smooth="yes"/>
      <point x="105" y="49"/>
      <point x="85" y="78"/>
      <point x="82" y="209" type="curve"/>
      <point x="35" y="209" type="line"/>
      <point x="1" y="43" type="line"/>
      <point x="30" y="26"/>
      <point x="68" y="-3"/>
    </contour>
    <contour>
      <point x="203" y="-90" type="line"/>
      <point x="370" y="706" type="line"/>
      <point x="317" y="706" type="line"/>
      <point x="150" y="-90" type="line"/>
    </contour>
    <contour>
      <point x="273" y="415" type="line"/>
      <point x="234" y="436"/>
      <point x="203" y="464"/>
      <point x="203" y="507" type="curve" smooth="yes"/>
      <point x="203" y="564"/>
      <point x="241" y="595"/>
      <point x="321" y="595" type="curve" smooth="yes"/>
      <point x="391" y="595"/>
      <point x="425" y="555"/>
      <point x="428" y="442" type="curve"/>
      <point x="473" y="442" type="line"/>
      <point x="503" y="588" type="line"/>
      <point x="487" y="605"/>
      <point x="402" y="640"/>
      <point x="329" y="640" type="curve" smooth="yes"/>
      <point x="170" y="640"/>
      <point x="80" y="570"/>
      <point x="80" y="449" type="curve" smooth="yes"/>
      <point x="80" y="344"/>
      <point x="167" y="293"/>
      <point x="238" y="260" type="curve"/>
    </contour>
  </outline>
</glyph>
<glyph name="ampersand" format="2">
  <advance width="807"/>
  <unicode hex="0026"/>
  <anchor x="345" y="0" name="bottom"/>
  <anchor x="345" y="0" name="cedilla"/>
  <anchor x="345" y="0" name="ogonek"/>
  <anchor x="441" y="657" name="top"/>
  <outline>
    <contour>
      <point x="532" y="-16" type="curve" smooth="yes"/>
      <point x="619" y="-16"/>
      <point x="694" y="44"/>
      <point x="738" y="133" type="curve"/>
      <point x="713" y="153" type="line"/>
      <point x="677" y="113"/>
      <point x="644" y="97"/>
      <point x="603" y="97" type="curve" smooth="yes"/>
      <point x="558" y="97"/>
      <point x="517" y="133"/>
      <point x="483" y="182" type="curve"/>
      <point x="481" y="209" type="line"/>
      <point x="465" y="209" type="line"/>
      <point x="411" y="295"/>
      <point x="347" y="442"/>
      <point x="347" y="528" type="curve" smooth="yes"/>
      <point x="347" y="589"/>
      <point x="375" y="627"/>
      <point x="425" y="627" type="curve" smooth="yes"/>
      <point x="464" y="627"/>
      <point x="482" y="599"/>
      <point x="482" y="559" type="curve" smooth="yes"/>
      <point x="482" y="500"/>
      <point x="429" y="436"/>
      <point x="363" y="406" type="curve"/>
      <point x="368" y="373" type="line"/>
      <point x="539" y="434"/>
      <point x="579" y="486"/>
      <point x="579" y="562" type="curve" smooth="yes"/>
      <point x="579" y="628"/>
      <point x="520" y="662"/>
      <point x="433" y="662" type="curve" smooth="yes"/>
      <point x="313" y="662"/>
      <point x="221" y="598"/>
      <point x="221" y="496" type="curve" smooth="yes"/>
      <point x="221" y="407"/>
      <point x="299" y="215"/>
      <point x="360" y="108" type="curve" smooth="yes"/>
      <point x="412" y="19"/>
      <point x="463" y="-16"/>
    </contour>
    <contour>
      <point x="167" y="-16" type="curve" smooth="yes"/>
      <point x="255" y="-16"/>
      <point x="311" y="9"/>
      <point x="392" y="83" type="curve"/>
      <point x="370" y="116" type="line"/>
      <point x="321" y="78"/>
      <point x="289" y="64"/>
      <point x="243" y="64" type="curve" smooth="yes"/>
      <point x="186" y="64"/>
      <point x="160" y="107"/>
      <point x="160" y="159" type="curve" smooth="yes"/>
      <point x="160" y="225"/>
      <point x="200" y="303"/>
      <point x="270" y="331" type="curve"/>
      <point x="263" y="366" type="line"/>
      <point x="69" y="286"/>
      <point x="10" y="217"/>
      <point x="10" y="114" type="curve" smooth="yes"/>
      <point x="10" y="34"/>
      <point x="64" y="-16"/>
    </contour>
    <contour>
      <point x="480" y="160" type="line"/>
      <point x="558" y="255"/>
      <point x="618" y="321"/>
      <point x="663" y="321" type="curve" smooth="yes"/>
      <point x="702" y="321"/>
      <point x="690" y="279"/>
      <point x="742" y="279" type="curve" smooth="yes"/>
      <point x="774" y="279"/>
      <point x="797" y="300"/>
      <point x="797" y="338" type="curve" smooth="yes"/>
      <point x="797" y="374"/>
      <point x="768" y="408"/>
      <point x="709" y="408" type="curve" smooth="yes"/>
      <point x="637" y="408"/>
      <point x="576" y="361"/>
      <point x="459" y="193" type="curve"/>
    </contour>
  </outline>
</glyph>
<glyph name="quotesingle" format="2">
  <advance width="193"/>
  <unicode hex="0027"/>
  <outline>
    <contour>
      <point x="170" y="505" type="line"/>
      <point x="260" y="659" type="line"/>
      <point x="270" y="706" type="line"/>
      <point x="152" y="706" type="line"/>
      <point x="109" y="505" type="line"/>
    </contour>
  </outline>
</glyph>
<glyph name="parenleft" format="2">
  <advance width="400"/>
  <unicode hex="0028"/>
  <outline>
    <contour>
      <point x="309" y="-156" type="line"/>
      <point x="239" y="-89"/>
      <point x="187" y="8"/>
      <point x="187" y="177" type="curve" smooth="yes"/>
      <point x="187" y="399"/>
      <point x="242" y="526"/>
      <point x="490" y="697" type="curve"/>
      <point x="472" y="728" type="line"/>
      <point x="246" y="635"/>
      <point x="68" y="461"/>
      <point x="68" y="183" type="curve" smooth="yes"/>
      <point x="68" y="31"/>
      <point x="157" y="-118"/>
      <point x="285" y="-185" type="curve"/>
    </contour>
  </outline>
</glyph>
<glyph name="parenright" format="2">
  <advance width="397"/>
  <unicode hex="0029"/>
  <outline>
    <contour>
      <point x="-66" y="-186" type="line"/>
      <point x="160" y="-93"/>
      <point x="338" y="81"/>
      <point x="338" y="359" type="curve" smooth="yes"/>
      <point x="338" y="511"/>
      <point x="249" y="660"/>
      <point x="121" y="727" type="curve"/>
      <point x="97" y="698" type="line"/>
      <point x="167" y="631"/>
      <point x="219" y="534"/>
      <point x="219" y="365" type="curve" smooth="yes"/>
      <point x="219" y="143"/>
      <point x="164" y="16"/>
      <point x="-84" y="-155" type="curve"/>
    </contour>
  </outline>
</glyph>
<glyph name="asterisk" format="2">
  <advance width="425"/>
  <unicode hex="002A"/>
  <outline>
    <contour>
      <point x="222" y="306" type="curve" smooth="yes"/>
      <point x="259" y="306"/>
      <point x="282" y="332"/>
      <point x="282" y="386" type="curve" smooth="yes"/>
      <point x="282" y="406"/>
      <point x="280" y="426"/>
      <point x="280" y="442" type="curve" smooth="yes"/>
      <point x="280" y="450"/>
      <point x="280" y="458"/>
      <point x="282" y="464" type="curve"/>
      <point x="285" y="465" type="line"/>
      <point x="308" y="441"/>
      <point x="337" y="377"/>
      <point x="375" y="377" type="curve" smooth="yes"/>
      <point x="405" y="377"/>
      <point x="427" y="408"/>
      <point x="427" y="431" type="curve" smooth="yes"/>
      <point x="427" y="475"/>
      <point x="344" y="481"/>
      <point x="311" y="503" type="curve"/>
      <point x="312" y="506" type="line"/>
      <point x="368" y="527"/>
      <point x="462" y="516"/>
      <point x="462" y="577" type="curve" smooth="yes"/>
      <point x="462" y="603"/>
      <point x="445" y="620"/>
      <point x="424" y="620" type="curve" smooth="yes"/>
      <point x="390" y="620"/>
      <point x="339" y="562"/>
      <point x="302" y="539" type="curve"/>
      <point x="301" y="541" type="line"/>
      <point x="309" y="579"/>
      <point x="350" y="624"/>
      <point x="350" y="663" type="curve" smooth="yes"/>
      <point x="350" y="685"/>
      <point x="334" y="698"/>
      <point x="313" y="698" type="curve" smooth="yes"/>
      <point x="280" y="698"/>
      <point x="252" y="675"/>
      <point x="252" y="618" type="curve" smooth="yes"/>
      <point x="252" y="602"/>
      <point x="254" y="586"/>
      <point x="254" y="570" type="curve" smooth="yes"/>
      <point x="254" y="561"/>
      <point x="253" y="551"/>
      <point x="251" y="542" type="curve"/>
      <point x="248" y="541" type="line"/>
      <point x="219" y="564"/>
      <point x="199" y="623"/>
      <point x="161" y="623" type="curve" smooth="yes"/>
      <point x="132" y="623"/>
      <point x="110" y="595"/>
      <point x="110" y="567" type="curve" smooth="yes"/>
      <point x="110" y="541"/>
      <point x="133" y="533"/>
      <point x="172" y="523" type="curve"/>
      <point x="189" y="518"/>
      <point x="211" y="514"/>
      <point x="221" y="507" type="curve"/>
      <point x="221" y="503" type="line"/>
      <point x="173" y="482"/>
      <point x="70" y="487"/>
      <point x="70" y="422" type="curve" smooth="yes"/>
      <point x="70" y="400"/>
      <point x="86" y="383"/>
      <point x="109" y="383" type="curve" smooth="yes"/>
      <point x="143" y="383"/>
      <point x="191" y="442"/>
      <point x="230" y="465" type="curve"/>
      <point x="232" y="463" type="line"/>
      <point x="226" y="436"/>
      <point x="184" y="378"/>
      <point x="184" y="343" type="curve" smooth="yes"/>
      <point x="184" y="320"/>
      <point x="202" y="306"/>
    </contour>
  </outline>
</glyph>
<glyph name="plus" format="2">
  <advance width="752"/>
  <unicode hex="002B"/>
  <outline>
    <contour>
      <point x="429" y="-53" type="line"/>
      <point x="429" y="212" type="line"/>
      <point x="691" y="212" type="line"/>
      <point x="691" y="304" type="line"/>
      <point x="429" y="304" type="line"/>
      <point x="429" y="569" type="line"/>
      <point x="333" y="569" type="line"/>
      <point x="333" y="304" type="line"/>
      <point x="71" y="304" type="line"/>
      <point x="71" y="212" type="line"/>
      <point x="333" y="212" type="line"/>
      <point x="333" y="-53" type="line"/>
    </contour>
  </outline>
</glyph>
<glyph name="comma" format="2">
  <advance width="276"/>
  <unicode hex="002C"/>
  <outline>
    <contour>
      <point x="-6" y="-144" type="line"/>
      <point x="46" y="-125"/>
      <point x="181" y="-74"/>
      <point x="181" y="47" type="curve" smooth="yes"/>
      <point x="181" y="109"/>
      <point x="146" y="139"/>
      <point x="99" y="139" type="curve" smooth="yes"/>
      <point x="50" y="139"/>
      <point x="22" y="106"/>
      <point x="22" y="66" type="curve" smooth="yes"/>
      <point x="22" y="24"/>
      <point x="54" y="3"/>
      <point x="92" y="3" type="curve" smooth="yes"/>
      <point x="107" y="3"/>
      <point x="123" y="6"/>
      <point x="139" y="13" type="curve"/>
      <point x="73" y="68" type="line"/>
      <point x="90" y="-1" type="line"/>
      <point x="73" y="-68"/>
      <point x="24" y="-94"/>
      <point x="-20" y="-115" type="curve"/>
    </contour>
  </outline>
</glyph>
<glyph name="hyphen" format="2">
  <advance width="305"/>
  <unicode hex="002D"/>
  <outline>
    <contour>
      <point x="261" y="209" type="line"/>
      <point x="279" y="294" type="line"/>
      <point x="54" y="294" type="line"/>
      <point x="36" y="209" type="line"/>
    </contour>
  </outline>
</glyph>
<glyph name="period" format="2">
  <advance width="276"/>
  <unicode hex="002E"/>
  <outline>
    <contour>
      <point x="103" y="-10" type="curve" smooth="yes"/>
      <point x="154" y="-10"/>
      <point x="181" y="20"/>
      <point x="181" y="67" type="curve" smooth="yes"/>
      <point x="181" y="111"/>
      <point x="154" y="141"/>
      <point x="103" y="141" type="curve" smooth="yes"/>
      <point x="53" y="141"/>
      <point x="25" y="111"/>
      <point x="25" y="66" type="curve" smooth="yes"/>
      <point x="25" y="20"/>
      <point x="54" y="-10"/>
    </contour>
  </outline>
</glyph>
<glyph name="slash" format="2">
  <advance width="414"/>
  <unicode hex="002F"/>
  <outline>
    <contour>
      <point x="49" y="-89" type="line"/>
      <point x="479" y="709" type="line"/>
      <point x="396" y="709" type="line"/>
      <point x="-35" y="-89" type="line"/>
    </contour>
  </outline>
</glyph>
<glyph name="zero" format="2">
  <advance width="495"/>
  <unicode hex="0030"/>
  <anchor x="190" y="0" name="bottom"/>
  <anchor x="191" y="0" name="cedilla"/>
  <anchor x="190" y="0" name="ogonek"/>
  <anchor x="319" y="657" name="top"/>
  <outline>
    <contour>
      <point x="203" y="-11" type="curve" smooth="yes"/>
      <point x="415" y="-11"/>
      <point x="492" y="227"/>
      <point x="492" y="426" type="curve" smooth="yes"/>
      <point x="492" y="570"/>
      <point x="426" y="642"/>
      <point x="317" y="642" type="curve" smooth="yes"/>
      <point x="135" y="642"/>
      <point x="29" y="449"/>
      <point x="29" y="204" type="curve" smooth="yes"/>
      <point x="29" y="75"/>
      <point x="85" y="-11"/>
    </contour>
    <contour>
      <point x="212" y="37" type="curve" smooth="yes"/>
      <point x="182" y="37"/>
      <point x="167" y="72"/>
      <point x="167" y="145" type="curve" smooth="yes"/>
      <point x="167" y="342"/>
      <point x="213" y="596"/>
      <point x="309" y="596" type="curve" smooth="yes"/>
      <point x="339" y="596"/>
      <point x="354" y="561"/>
      <point x="354" y="489" type="curve" smooth="yes"/>
      <point x="354" y="288"/>
      <point x="308" y="37"/>
    </contour>
  </outline>
</glyph>
<glyph name="one" format="2">
  <advance width="495"/>
  <unicode hex="0031"/>
  <anchor x="200" y="0" name="bottom"/>
  <anchor x="200" y="0" name="cedilla"/>
  <anchor x="201" y="0" name="ogonek"/>
  <anchor x="319" y="657" name="top"/>
  <outline>
    <contour>
      <point x="412" y="0" type="line"/>
      <point x="421" y="43" type="line"/>
      <point x="338" y="43"/>
      <point x="298" y="58"/>
      <point x="298" y="96" type="curve" smooth="yes"/>
      <point x="298" y="100"/>
      <point x="299" y="105"/>
      <point x="300" y="110" type="curve" smooth="yes"/>
      <point x="413" y="639" type="line"/>
      <point x="347" y="639" type="line"/>
      <point x="113" y="584" type="line"/>
      <point x="103" y="535" type="line"/>
      <point x="136" y="542"/>
      <point x="192" y="547"/>
      <point x="212" y="547" type="curve" smooth="yes"/>
      <point x="230" y="547"/>
      <point x="238" y="539"/>
      <point x="238" y="522" type="curve" smooth="yes"/>
      <point x="238" y="515"/>
      <point x="237" y="507"/>
      <point x="235" y="498" type="curve" smooth="yes"/>
      <point x="152" y="110" type="line"/>
      <point x="142" y="60"/>
      <point x="98" y="43"/>
      <point x="4" y="43" type="curve"/>
      <point x="-5" y="0" type="line"/>
    </contour>
  </outline>
</glyph>
<glyph name="two" format="2">
  <advance width="495"/>
  <unicode hex="0032"/>
  <anchor x="190" y="0" name="bottom"/>
  <anchor x="190" y="0" name="cedilla"/>
  <anchor x="190" y="0" name="ogonek"/>
  <anchor x="317" y="657" name="top"/>
  <outline>
    <contour>
      <point x="372" y="0" type="line"/>
      <point x="447" y="200" type="line"/>
      <point x="409" y="200" type="line"/>
      <point x="373" y="140"/>
      <point x="355" y="118"/>
      <point x="302" y="118" type="curve" smooth="yes"/>
      <point x="180" y="118" type="line"/>
      <point x="112" y="111" type="line"/>
      <point x="113" y="119" type="line"/>
      <point x="250" y="215" type="line" smooth="yes"/>
      <point x="419" y="334"/>
      <point x="489" y="402"/>
      <point x="489" y="509" type="curve" smooth="yes"/>
      <point x="489" y="593"/>
      <point x="428" y="649"/>
      <point x="327" y="649" type="curve" smooth="yes"/>
      <point x="219" y="649"/>
      <point x="128" y="595"/>
      <point x="72" y="497" type="curve"/>
      <point x="106" y="480" type="line"/>
      <point x="155" y="550"/>
      <point x="204" y="572"/>
      <point x="260" y="572" type="curve" smooth="yes"/>
      <point x="313" y="572"/>
      <point x="341" y="538"/>
      <point x="341" y="487" type="curve" smooth="yes"/>
      <point x="341" y="386"/>
      <point x="295" y="317"/>
      <point x="140" y="194" type="curve" smooth="yes"/>
      <point x="-20" y="67" type="line"/>
      <point x="-34" y="0" type="line"/>
    </contour>
  </outline>
</glyph>
<glyph name="three" format="2">
  <advance width="495"/>
  <unicode hex="0033"/>
  <anchor x="190" y="0" name="bottom"/>
  <anchor x="190" y="0" name="cedilla"/>
  <anchor x="189" y="0" name="ogonek"/>
  <anchor x="317" y="657" name="top"/>
  <outline>
    <contour>
      <point x="104" y="-15" type="curve" smooth="yes"/>
      <point x="285" y="-15"/>
      <point x="450" y="63"/>
      <point x="450" y="215" type="curve" smooth="yes"/>
      <point x="450" y="281"/>
      <point x="410" y="333"/>
      <point x="325" y="364" type="curve"/>
      <point x="325" y="372" type="line"/>
      <point x="424" y="409"/>
      <point x="481" y="444"/>
      <point x="481" y="535" type="curve" smooth="yes"/>
      <point x="481" y="603"/>
      <point x="427" y="653"/>
      <point x="326" y="653" type="curve" smooth="yes"/>
      <point x="234" y="653"/>
      <point x="157" y="605"/>
      <point x="96" y="518" type="curve"/>
      <point x="125" y="498" type="line"/>
      <point x="167" y="544"/>
      <point x="207" y="571"/>
      <point x="264" y="571" type="curve" smooth="yes"/>
      <point x="310" y="571"/>
      <point x="339" y="548"/>
      <point x="339" y="504" type="curve" smooth="yes"/>
      <point x="339" y="428"/>
      <point x="260" y="369"/>
      <point x="190" y="369" type="curve" smooth="yes"/>
      <point x="168" y="369" type="line"/>
      <point x="154" y="309" type="line"/>
      <point x="173" y="309" type="line" smooth="yes"/>
      <point x="264" y="309"/>
      <point x="309" y="273"/>
      <point x="309" y="194" type="curve" smooth="yes"/>
      <point x="309" y="97"/>
      <point x="254" y="38"/>
      <point x="186" y="38" type="curve" smooth="yes"/>
      <point x="131" y="38"/>
      <point x="107" y="111"/>
      <point x="53" y="111" type="curve" smooth="yes"/>
      <point x="10" y="111"/>
      <point x="-10" y="78"/>
      <point x="-10" y="48" type="curve" smooth="yes"/>
      <point x="-10" y="9"/>
      <point x="19" y="-15"/>
    </contour>
  </outline>
</glyph>
<glyph name="four" format="2">
  <advance width="495"/>
  <unicode hex="0034"/>
  <anchor x="200" y="0" name="bottom"/>
  <anchor x="201" y="0" name="cedilla"/>
  <anchor x="200" y="0" name="ogonek"/>
  <anchor x="329" y="657" name="top"/>
  <outline>
    <contour>
      <point x="348" y="0" type="line"/>
      <point x="485" y="645" type="line"/>
      <point x="373" y="645" type="line"/>
      <point x="16" y="232" type="line"/>
      <point x="-5" y="127" type="line"/>
      <point x="458" y="127" type="line"/>
      <point x="481" y="239" type="line"/>
      <point x="98" y="239" type="line"/>
      <point x="99" y="243" type="line"/>
      <point x="309" y="491" type="line"/>
      <point x="312" y="491" type="line"/>
      <point x="208" y="0" type="line"/>
    </contour>
  </outline>
</glyph>
<glyph name="five" format="2">
  <advance width="495"/>
  <unicode hex="0035"/>
  <anchor x="190" y="0" name="bottom"/>
  <anchor x="192" y="0" name="cedilla"/>
  <anchor x="191" y="0" name="ogonek"/>
  <anchor x="335" y="657" name="top"/>
  <outline>
    <contour>
      <point x="96" y="-16" type="curve" smooth="yes"/>
      <point x="281" y="-16"/>
      <point x="465" y="59"/>
      <point x="465" y="238" type="curve" smooth="yes"/>
      <point x="465" y="398"/>
      <point x="294" y="421"/>
      <point x="179" y="421" type="curve"/>
      <point x="215" y="524" type="line"/>
      <point x="486" y="524" type="line"/>
      <point x="518" y="630" type="line"/>
      <point x="194" y="630" type="line"/>
      <point x="87" y="327" type="line"/>
      <point x="98" y="302" type="line"/>
      <point x="112" y="302"/>
      <point x="115" y="302"/>
      <point x="141" y="301" type="curve" smooth="yes"/>
      <point x="256" y="297"/>
      <point x="329" y="278"/>
      <point x="329" y="180" type="curve" smooth="yes"/>
      <point x="329" y="95"/>
      <point x="284" y="39"/>
      <point x="181" y="39" type="curve" smooth="yes"/>
      <point x="119" y="39"/>
      <point x="104" y="111"/>
      <point x="50" y="111" type="curve" smooth="yes"/>
      <point x="7" y="111"/>
      <point x="-14" y="80"/>
      <point x="-14" y="46" type="curve" smooth="yes"/>
      <point x="-14" y="12"/>
      <point x="11" y="-16"/>
    </contour>
  </outline>
</glyph>
<glyph name="six" format="2">
  <advance width="495"/>
  <unicode hex="0036"/>
  <anchor x="219" y="0" name="bottom"/>
  <anchor x="218" y="0" name="cedilla"/>
  <anchor x="219" y="0" name="ogonek"/>
  <anchor x="319" y="657" name="top"/>
  <outline>
    <contour>
      <point x="213" y="-14" type="curve" smooth="yes"/>
      <point x="389" y="-14"/>
      <point x="472" y="90"/>
      <point x="472" y="240" type="curve" smooth="yes"/>
      <point x="472" y="354"/>
      <point x="411" y="413"/>
      <point x="338" y="413" type="curve" smooth="yes"/>
      <point x="282" y="413"/>
      <point x="241" y="394"/>
      <point x="197" y="358" type="curve"/>
      <point x="188" y="358" type="line"/>
      <point x="248" y="498"/>
      <point x="378" y="584"/>
      <point x="522" y="605" type="curve"/>
      <point x="522" y="646" type="line"/>
      <point x="262" y="636"/>
      <point x="23" y="473"/>
      <point x="23" y="181" type="curve" smooth="yes"/>
      <point x="23" y="66"/>
      <point x="81" y="-14"/>
    </contour>
    <contour>
      <point x="225" y="33" type="curve" smooth="yes"/>
      <point x="181" y="33"/>
      <point x="162" y="82"/>
      <point x="162" y="154" type="curve" smooth="yes"/>
      <point x="162" y="293"/>
      <point x="214" y="340"/>
      <point x="266" y="340" type="curve" smooth="yes"/>
      <point x="306" y="340"/>
      <point x="326" y="292"/>
      <point x="326" y="226" type="curve" smooth="yes"/>
      <point x="326" y="104"/>
      <point x="285" y="33"/>
    </contour>
  </outline>
</glyph>
<glyph name="eight" format="2">
  <advance width="495"/>
  <unicode hex="0038"/>
  <anchor x="199" y="0" name="bottom"/>
  <anchor x="199" y="0" name="cedilla"/>
  <anchor x="199" y="0" name="ogonek"/>
  <anchor x="319" y="657" name="top"/>
  <outline>
    <contour>
      <point x="197" y="-14" type="curve" smooth="yes"/>
      <point x="339" y="-14"/>
      <point x="452" y="56"/>
      <point x="452" y="179" type="curve" smooth="yes"/>
      <point x="452" y="250"/>
      <point x="427" y="295"/>
      <point x="323" y="373" type="curve" smooth="yes"/>
      <point x="261" y="420"/>
      <point x="233" y="455"/>
      <point x="233" y="498" type="curve" smooth="yes"/>
      <point x="233" y="562"/>
      <point x="272" y="604"/>
      <point x="322" y="604" type="curve" smooth="yes"/>
      <point x="359" y="604"/>
      <point x="380" y="579"/>
      <point x="380" y="537" type="curve" smooth="yes"/>
      <point x="380" y="472"/>
      <point x="354" y="428"/>
      <point x="297" y="379" type="curve"/>
      <point x="337" y="350" type="line"/>
      <point x="341" y="363" type="line"/>
      <point x="459" y="417"/>
      <point x="488" y="466"/>
      <point x="488" y="533" type="curve" smooth="yes"/>
      <point x="488" y="600"/>
      <point x="427" y="649"/>
      <point x="333" y="649" type="curve" smooth="yes"/>
      <point x="201" y="649"/>
      <point x="95" y="580"/>
      <point x="95" y="471" type="curve" smooth="yes"/>
      <point x="95" y="409"/>
      <point x="123" y="358"/>
      <point x="197" y="298" type="curve" smooth="yes"/>
      <point x="269" y="239"/>
      <point x="307" y="193"/>
      <point x="307" y="144" type="curve" smooth="yes"/>
      <point x="307" y="67"/>
      <point x="262" y="29"/>
      <point x="204" y="29" type="curve" smooth="yes"/>
      <point x="157" y="29"/>
      <point x="129" y="51"/>
      <point x="129" y="121" type="curve" smooth="yes"/>
      <point x="129" y="201"/>
      <point x="162" y="234"/>
      <point x="224" y="290" type="curve"/>
      <point x="189" y="318" type="line"/>
      <point x="185" y="306" type="line"/>
      <point x="71" y="248"/>
      <point x="19" y="210"/>
      <point x="19" y="115" type="curve" smooth="yes"/>
      <point x="19" y="30"/>
      <point x="91" y="-14"/>
    </contour>
  </outline>
</glyph>
<glyph name="nine" format="2">
  <advance width="495"/>
  <unicode hex="0039"/>
  <anchor x="190" y="0" name="bottom"/>
  <anchor x="191" y="0" name="cedilla"/>
  <anchor x="192" y="0" name="ogonek"/>
  <anchor x="301" y="657" name="top"/>
  <outline>
    <contour>
      <point x="19" y="-13" type="line"/>
      <point x="277" y="-11"/>
      <point x="489" y="129"/>
      <point x="489" y="445" type="curve" smooth="yes"/>
      <point x="489" y="556"/>
      <point x="445" y="646"/>
      <point x="314" y="646" type="curve" smooth="yes"/>
      <point x="145" y="646"/>
      <point x="55" y="537"/>
      <point x="55" y="377" type="curve" smooth="yes"/>
      <point x="55" y="280"/>
      <point x="103" y="222"/>
      <point x="188" y="222" type="curve" smooth="yes"/>
      <point x="236" y="222"/>
      <point x="278" y="239"/>
      <point x="322" y="276" type="curve"/>
      <point x="331" y="275" type="line"/>
      <point x="283" y="110"/>
      <point x="154" y="47"/>
      <point x="19" y="31" type="curve"/>
    </contour>
    <contour>
      <point x="261" y="296" type="curve" smooth="yes"/>
      <point x="221" y="296"/>
      <point x="199" y="334"/>
      <point x="199" y="397" type="curve" smooth="yes"/>
      <point x="199" y="509"/>
      <point x="237" y="600"/>
      <point x="298" y="600" type="curve" smooth="yes"/>
      <point x="341" y="600"/>
      <point x="355" y="554"/>
      <point x="355" y="491" type="curve" smooth="yes"/>
      <point x="355" y="343"/>
      <point x="313" y="296"/>
    </contour>
  </outline>
</glyph>
<glyph name="less" format="2">
  <advance width="733"/>
  <unicode hex="003C"/>
  <outline>
    <contour>
      <point x="669" y="47" type="line"/>
      <point x="220" y="260" type="line"/>
      <point x="669" y="473" type="line"/>
      <point x="669" y="565" type="line"/>
      <point x="66" y="277" type="line"/>
      <point x="66" y="241" type="line"/>
      <point x="669" y="-43" type="line"/>
    </contour>
  </outline>
</glyph>
<glyph name="equal" format="2">
  <advance width="752"/>
  <unicode hex="003D"/>
  <outline>
    <contour>
      <point x="691" y="330" type="line"/>
      <point x="691" y="422" type="line"/>
      <point x="71" y="422" type="line"/>
      <point x="71" y="330" type="line"/>
    </contour>
    <contour>
      <point x="691" y="93" type="line"/>
      <point x="691" y="184" type="line"/>
      <point x="71" y="184" type="line"/>
      <point x="71" y="93" type="line"/>
    </contour>
  </outline>
</glyph>
<glyph name="greater" format="2">
  <advance width="733"/>
  <unicode hex="003E"/>
  <outline>
    <contour>
      <point x="677" y="241" type="line"/>
      <point x="677" y="277" type="line"/>
      <point x="74" y="565" type="line"/>
      <point x="74" y="473" type="line"/>
      <point x="523" y="260" type="line"/>
      <point x="74" y="47" type="line"/>
      <point x="74" y="-43" type="line"/>
    </contour>
  </outline>
</glyph>
<glyph name="question" format="2">
  <advance width="461"/>
  <unicode hex="003F"/>
  <outline>
    <contour>
      <point x="243" y="193" type="line"/>
      <point x="246" y="209" type="line" smooth="yes"/>
      <point x="268" y="325"/>
      <point x="484" y="340"/>
      <point x="484" y="523" type="curve" smooth="yes"/>
      <point x="484" y="627"/>
      <point x="414" y="672"/>
      <point x="314" y="672" type="curve" smooth="yes"/>
      <point x="192" y="672"/>
      <point x="85" y="605"/>
      <point x="85" y="513" type="curve" smooth="yes"/>
      <point x="85" y="470"/>
      <point x="109" y="447"/>
      <point x="145" y="447" type="curve" smooth="yes"/>
      <point x="177" y="447"/>
      <point x="217" y="466"/>
      <point x="217" y="515" type="curve" smooth="yes"/>
      <point x="217" y="538"/>
      <point x="208" y="545"/>
      <point x="208" y="564" type="curve" smooth="yes"/>
      <point x="208" y="600"/>
      <point x="238" y="627"/>
      <point x="279" y="627" type="curve" smooth="yes"/>
      <point x="319" y="627"/>
      <point x="344" y="601"/>
      <point x="344" y="527" type="curve" smooth="yes"/>
      <point x="344" y="361"/>
      <point x="216" y="350"/>
      <point x="187" y="220" type="curve" smooth="yes"/>
      <point x="181" y="193" type="line"/>
    </contour>
    <contour>
      <point x="199" y="-10" type="curve" smooth="yes"/>
      <point x="250" y="-10"/>
      <point x="277" y="20"/>
      <point x="277" y="66" type="curve" smooth="yes"/>
      <point x="277" y="109"/>
      <point x="250" y="139"/>
      <point x="199" y="139" type="curve" smooth="yes"/>
      <point x="150" y="139"/>
      <point x="122" y="109"/>
      <point x="122" y="65" type="curve" smooth="yes"/>
      <point x="122" y="20"/>
      <point x="151" y="-10"/>
    </contour>
  </outline>
</glyph>
<glyph name="at" format="2">
  <advance width="948"/>
  <unicode hex="0040"/>
  <outline>
    <contour>
      <point x="399" y="-186" type="curve" smooth="yes"/>
      <point x="486" y="-186"/>
      <point x="574" y="-163"/>
      <point x="675" y="-108" type="curve"/>
      <point x="659" y="-69" type="line"/>
      <point x="567" y="-109"/>
      <point x="494" y="-124"/>
      <point x="420" y="-124" type="curve" smooth="yes"/>
      <point x="237" y="-124"/>
      <point x="131" y="-40"/>
      <point x="131" y="144" type="curve" smooth="yes"/>
      <point x="131" y="409"/>
      <point x="325" y="561"/>
      <point x="555" y="561" type="curve" smooth="yes"/>
      <point x="714" y="561"/>
      <point x="816" y="488"/>
      <point x="816" y="323" type="curve" smooth="yes"/>
      <point x="816" y="215"/>
      <point x="783" y="62"/>
      <point x="653" y="62" type="curve" smooth="yes"/>
      <point x="626" y="62"/>
      <point x="625" y="87"/>
      <point x="631" y="115" type="curve" smooth="yes"/>
      <point x="703" y="439" type="line"/>
      <point x="643" y="439" type="line"/>
      <point x="597" y="396" type="line"/>
      <point x="587" y="396" type="line"/>
      <point x="571" y="422"/>
      <point x="546" y="445"/>
      <point x="496" y="445" type="curve" smooth="yes"/>
      <point x="318" y="445"/>
      <point x="230" y="293"/>
      <point x="230" y="136" type="curve" smooth="yes"/>
      <point x="230" y="26"/>
      <point x="287" y="-12"/>
      <point x="349" y="-12" type="curve" smooth="yes"/>
      <point x="418" y="-12"/>
      <point x="473" y="26"/>
      <point x="508" y="81" type="curve"/>
      <point x="515" y="81" type="line"/>
      <point x="510" y="16"/>
      <point x="529" y="-11"/>
      <point x="615" y="-11" type="curve" smooth="yes"/>
      <point x="783" y="-11"/>
      <point x="899" y="108"/>
      <point x="899" y="327" type="curve" smooth="yes"/>
      <point x="899" y="506"/>
      <point x="775" y="626"/>
      <point x="562" y="626" type="curve" smooth="yes"/>
      <point x="265" y="626"/>
      <point x="45" y="432"/>
      <point x="45" y="128" type="curve" smooth="yes"/>
      <point x="45" y="-71"/>
      <point x="167" y="-186"/>
    </contour>
    <contour>
      <point x="412" y="66" type="curve" smooth="yes"/>
      <point x="390" y="66"/>
      <point x="366" y="83"/>
      <point x="366" y="145" type="curve" smooth="yes"/>
      <point x="366" y="239"/>
      <point x="414" y="397"/>
      <point x="500" y="397" type="curve" smooth="yes"/>
      <point x="532" y="397"/>
      <point x="544" y="357"/>
      <point x="541" y="314" type="curve"/>
      <point x="501" y="137" type="line"/>
      <point x="484" y="103"/>
      <point x="453" y="66"/>
    </contour>
  </outline>
</glyph>
<glyph name="A" format="2">
  <advance width="709"/>
  <unicode hex="0041"/>
  <anchor x="257" y="0" name="bottom"/>
  <anchor x="258" y="0" name="cedilla"/>
  <anchor x="379" y="0" name="ogonek"/>
  <anchor x="461" y="657" name="top"/>
  <outline>
    <contour>
      <point x="170" y="0" type="line"/>
      <point x="178" y="43" type="line"/>
      <point x="136" y="43"/>
      <point x="121" y="47"/>
      <point x="121" y="69" type="curve" smooth="yes"/>
      <point x="121" y="90"/>
      <point x="138" y="118"/>
      <point x="150" y="138" type="curve"/>
      <point x="205" y="224" type="line"/>
      <point x="219" y="250" type="line"/>
      <point x="386" y="512" type="line"/>
      <point x="390" y="512" type="line"/>
      <point x="417" y="250" type="line"/>
      <point x="419" y="224" type="line"/>
      <point x="430" y="151" type="line" smooth="yes"/>
      <point x="432" y="138"/>
      <point x="432" y="118"/>
      <point x="432" y="104" type="curve" smooth="yes"/>
      <point x="432" y="45"/>
      <point x="390" y="43"/>
      <point x="364" y="43" type="curve"/>
      <point x="354" y="0" type="line"/>
      <point x="668" y="0" type="line"/>
      <point x="674" y="43" type="line"/>
      <point x="628" y="43"/>
      <point x="602" y="74"/>
      <point x="592" y="138" type="curve" smooth="yes"/>
      <point x="512" y="662" type="line"/>
      <point x="419" y="662" type="line"/>
      <point x="79" y="140" type="line" smooth="yes"/>
      <point x="28" y="62"/>
      <point x="5" y="43"/>
      <point x="-45" y="43" type="curve"/>
      <point x="-54" y="0" type="line"/>
    </contour>
    <contour>
      <point x="434" y="211" type="line"/>
      <point x="429" y="263" type="line"/>
      <point x="212" y="263" type="line"/>
      <point x="182" y="211" type="line"/>
    </contour>
  </outline>
</glyph>
<glyph name="B" format="2">
  <advance width="655"/>
  <unicode hex="0042"/>
  <anchor x="255" y="0" name="bottom"/>
  <anchor x="254" y="0" name="cedilla"/>
  <anchor x="253" y="0" name="ogonek"/>
  <anchor x="397" y="657" name="top"/>
  <outline>
    <contour>
      <point x="329" y="0" type="line" smooth="yes"/>
      <point x="513" y="0"/>
      <point x="617" y="75"/>
      <point x="617" y="212" type="curve" smooth="yes"/>
      <point x="617" y="306"/>
      <point x="546" y="338"/>
      <point x="475" y="348" type="curve"/>
      <point x="476" y="354" type="line"/>
      <point x="580" y="381"/>
      <point x="655" y="431"/>
      <point x="655" y="537" type="curve" smooth="yes"/>
      <point x="655" y="609"/>
      <point x="600" y="657"/>
      <point x="446" y="657" type="curve" smooth="yes"/>
      <point x="119" y="657" type="line"/>
      <point x="110" y="613" type="line"/>
      <point x="182" y="613"/>
      <point x="198" y="603"/>
      <point x="182" y="527" type="curve" smooth="yes"/>
      <point x="100" y="134" type="line" smooth="yes"/>
      <point x="84" y="55"/>
      <point x="69" y="43"/>
      <point x="-9" y="43" type="curve"/>
      <point x="-19" y="0" type="line"/>
    </contour>
    <contour>
      <point x="284" y="50" type="curve" smooth="yes"/>
      <point x="264" y="50"/>
      <point x="248" y="51"/>
      <point x="230" y="53" type="curve"/>
      <point x="343" y="599" type="line"/>
      <point x="363" y="601"/>
      <point x="375" y="602"/>
      <point x="389" y="602" type="curve" smooth="yes"/>
      <point x="467" y="602"/>
      <point x="495" y="576"/>
      <point x="495" y="523" type="curve" smooth="yes"/>
      <point x="495" y="436"/>
      <point x="440" y="370"/>
      <point x="344" y="370" type="curve" smooth="yes"/>
      <point x="282" y="370" type="line"/>
      <point x="270" y="317" type="line"/>
      <point x="341" y="317" type="line" smooth="yes"/>
      <point x="402" y="317"/>
      <point x="455" y="303"/>
      <point x="455" y="205" type="curve" smooth="yes"/>
      <point x="455" y="66"/>
      <point x="391" y="50"/>
    </contour>
  </outline>
</glyph>
<glyph name="C" format="2">
  <advance width="692"/>
  <unicode hex="0043"/>
  <anchor x="315" y="0" name="bottom"/>
  <anchor x="307" y="0" name="cedilla"/>
  <anchor x="316" y="0" name="ogonek"/>
  <anchor x="481" y="657" name="top"/>
  <outline>
    <contour>
      <point x="318" y="-12" type="curve" smooth="yes"/>
      <point x="473" y="-12"/>
      <point x="558" y="73"/>
      <point x="632" y="157" type="curve"/>
      <point x="607" y="185" type="line"/>
      <point x="538" y="121"/>
      <point x="482" y="85"/>
      <point x="384" y="85" type="curve" smooth="yes"/>
      <point x="273" y="85"/>
      <point x="211" y="127"/>
      <point x="211" y="263" type="curve" smooth="yes"/>
      <point x="211" y="447"/>
      <point x="294" y="615"/>
      <point x="465" y="615" type="curve" smooth="yes"/>
      <point x="562" y="615"/>
      <point x="612" y="548"/>
      <point x="613" y="423" type="curve"/>
      <point x="659" y="423" type="line"/>
      <point x="711" y="669" type="line"/>
      <point x="668" y="669" type="line"/>
      <point x="661" y="654"/>
      <point x="652" y="636"/>
      <point x="631" y="636" type="curve" smooth="yes"/>
      <point x="602" y="636"/>
      <point x="577" y="669"/>
      <point x="480" y="669" type="curve" smooth="yes"/>
      <point x="234" y="669"/>
      <point x="61" y="509"/>
      <point x="61" y="237" type="curve" smooth="yes"/>
      <point x="61" y="92"/>
      <point x="137" y="-12"/>
    </contour>
  </outline>
</glyph>
<glyph name="D" format="2">
  <advance width="754"/>
  <unicode hex="0044"/>
  <anchor x="273" y="0" name="bottom"/>
  <anchor x="274" y="0" name="cedilla"/>
  <anchor x="274" y="0" name="ogonek"/>
  <anchor x="412" y="657" name="top"/>
  <outline>
    <contour>
      <point x="267" y="0" type="line" smooth="yes"/>
      <point x="518" y="0"/>
      <point x="732" y="103"/>
      <point x="732" y="404" type="curve" smooth="yes"/>
      <point x="732" y="612"/>
      <point x="572" y="657"/>
      <point x="400" y="657" type="curve" smooth="yes"/>
      <point x="120" y="657" type="line"/>
      <point x="110" y="611" type="line"/>
      <point x="179" y="611"/>
      <point x="198" y="603"/>
      <point x="182" y="529" type="curve" smooth="yes"/>
      <point x="101" y="137" type="line" smooth="yes"/>
      <point x="84" y="55"/>
      <point x="70" y="43"/>
      <point x="-10" y="43" type="curve"/>
      <point x="-19" y="0" type="line"/>
    </contour>
    <contour>
      <point x="274" y="57" type="curve" smooth="yes"/>
      <point x="261" y="57"/>
      <point x="244" y="57"/>
      <point x="229" y="58" type="curve"/>
      <point x="341" y="599" type="line"/>
      <point x="359" y="600"/>
      <point x="369" y="600"/>
      <point x="380" y="600" type="curve" smooth="yes"/>
      <point x="514" y="600"/>
      <point x="577" y="528"/>
      <point x="577" y="387" type="curve" smooth="yes"/>
      <point x="577" y="146"/>
      <point x="483" y="57"/>
    </contour>
  </outline>
</glyph>
<glyph name="F" format="2">
  <advance width="611"/>
  <unicode hex="0046"/>
  <anchor x="148" y="0" name="bottom"/>
  <anchor x="148" y="0" name="cedilla"/>
  <anchor x="148" y="0" name="ogonek"/>
  <anchor x="411" y="657" name="top"/>
  <outline>
    <contour>
      <point x="318" y="0" type="line"/>
      <point x="327" y="43" type="line"/>
      <point x="263" y="43"/>
      <point x="238" y="51"/>
      <point x="238" y="90" type="curve" smooth="yes"/>
      <point x="238" y="99"/>
      <point x="239" y="110"/>
      <point x="242" y="123" type="curve" smooth="yes"/>
      <point x="340" y="594" type="line"/>
      <point x="456" y="594" type="line" smooth="yes"/>
      <point x="584" y="594"/>
      <point x="588" y="568"/>
      <point x="585" y="473" type="curve"/>
      <point x="637" y="473" type="line"/>
      <point x="667" y="657" type="line"/>
      <point x="117" y="657" type="line"/>
      <point x="108" y="613" type="line"/>
      <point x="183" y="613"/>
      <point x="195" y="602"/>
      <point x="182" y="530" type="curve" smooth="yes"/>
      <point x="99" y="130" type="line" smooth="yes"/>
      <point x="83" y="56"/>
      <point x="63" y="43"/>
      <point x="-10" y="43" type="curve"/>
      <point x="-20" y="0" type="line"/>
    </contour>
    <contour>
      <point x="496" y="218" type="line"/>
      <point x="545" y="452" type="line"/>
      <point x="500" y="452" type="line"/>
      <point x="482" y="371"/>
      <point x="450" y="359"/>
      <point x="366" y="359" type="curve" smooth="yes"/>
      <point x="276" y="359" type="line"/>
      <point x="266" y="305" type="line"/>
      <point x="355" y="305" type="line" smooth="yes"/>
      <point x="442" y="305"/>
      <point x="466" y="298"/>
      <point x="450" y="218" type="curve"/>
    </contour>
  </outline>
</glyph>
<glyph name="G" format="2">
  <advance width="727"/>
  <unicode hex="0047"/>
  <anchor x="322" y="0" name="bottom"/>
  <anchor x="322" y="0" name="cedilla"/>
  <anchor x="322" y="0" name="ogonek"/>
  <anchor x="466" y="657" name="top"/>
  <outline>
    <contour>
      <point x="330" y="-11" type="curve" smooth="yes"/>
      <point x="438" y="-11"/>
      <point x="518" y="15"/>
      <point x="598" y="57" type="curve"/>
      <point x="625" y="189" type="line"/>
      <point x="639" y="252"/>
      <point x="652" y="266"/>
      <point x="707" y="266" type="curve"/>
      <point x="716" y="310" type="line"/>
      <point x="439" y="310" type="line"/>
      <point x="430" y="266" type="line"/>
      <point x="504" y="266"/>
      <point x="511" y="251"/>
      <point x="496" y="179" type="curve" smooth="yes"/>
      <point x="479" y="92" type="line"/>
      <point x="435" y="61"/>
      <point x="400" y="49"/>
      <point x="342" y="49" type="curve" smooth="yes"/>
      <point x="252" y="49"/>
      <point x="212" y="111"/>
      <point x="212" y="228" type="curve" smooth="yes"/>
      <point x="212" y="414"/>
      <point x="268" y="615"/>
      <point x="461" y="615" type="curve" smooth="yes"/>
      <point x="563" y="615"/>
      <point x="616" y="560"/>
      <point x="614" y="428" type="curve"/>
      <point x="661" y="428" type="line"/>
      <point x="712" y="669" type="line"/>
      <point x="668" y="669" type="line"/>
      <point x="659" y="650"/>
      <point x="649" y="632"/>
      <point x="628" y="632" type="curve" smooth="yes"/>
      <point x="602" y="632"/>
      <point x="577" y="669"/>
      <point x="473" y="669" type="curve" smooth="yes"/>
      <point x="247" y="669"/>
      <point x="61" y="527"/>
      <point x="61" y="240" type="curve" smooth="yes"/>
      <point x="61" y="82"/>
      <point x="147" y="-11"/>
    </contour>
  </outline>
</glyph>
<glyph name="I" format="2">
  <advance width="389"/>
  <unicode hex="0049"/>
  <anchor x="143" y="0" name="bottom"/>
  <anchor x="143" y="0" name="cedilla"/>
  <anchor x="174" y="0" name="ogonek"/>
  <anchor x="281" y="657" name="top"/>
  <outline>
    <contour>
      <point x="304" y="0" type="line"/>
      <point x="313" y="43" type="line"/>
      <point x="230" y="43"/>
      <point x="230" y="59"/>
      <point x="247" y="144" type="curve" smooth="yes"/>
      <point x="323" y="511" type="line"/>
      <point x="340" y="589"/>
      <point x="349" y="614"/>
      <point x="437" y="614" type="curve"/>
      <point x="445" y="657" type="line"/>
      <point x="117" y="657" type="line"/>
      <point x="108" y="614" type="line"/>
      <point x="193" y="614"/>
      <point x="194" y="590"/>
      <point x="178" y="511" type="curve" smooth="yes"/>
      <point x="102" y="144" type="line"/>
      <point x="83" y="58"/>
      <point x="75" y="43"/>
      <point x="-10" y="43" type="curve"/>
      <point x="-20" y="0" type="line"/>
    </contour>
  </outline>
</glyph>
<glyph name="J" format="2">
  <advance width="468"/>
  <unicode hex="004A"/>
  <anchor x="144" y="0" name="bottom"/>
  <anchor x="143" y="0" name="cedilla"/>
  <anchor x="146" y="0" name="ogonek"/>
  <anchor x="373" y="657" name="top"/>
  <outline>
    <contour>
      <point x="89" y="-13" type="curve" smooth="yes"/>
      <point x="186" y="-13"/>
      <point x="311" y="9"/>
      <point x="343" y="165" type="curve"/>
      <point x="416" y="511" type="line" smooth="yes"/>
      <point x="432" y="589"/>
      <point x="441" y="614"/>
      <point x="530" y="614" type="curve"/>
      <point x="539" y="657" type="line"/>
      <point x="195" y="657" type="line"/>
      <point x="185" y="614" type="line"/>
      <point x="278" y="614"/>
      <point x="285" y="590"/>
      <point x="270" y="511" type="curve"/>
      <point x="191" y="132" type="line" smooth="yes"/>
      <point x="174" y="53"/>
      <point x="162" y="34"/>
      <point x="125" y="34" type="curve" smooth="yes"/>
      <point x="78" y="34"/>
      <point x="113" y="143"/>
      <point x="32" y="143" type="curve" smooth="yes"/>
      <point x="-7" y="143"/>
      <point x="-31" y="113"/>
      <point x="-31" y="73" type="curve" smooth="yes"/>
      <point x="-31" y="9"/>
      <point x="30" y="-13"/>
    </contour>
  </outline>
</glyph>
<glyph name="M" format="2">
  <advance width="968"/>
  <unicode hex="004D"/>
  <anchor x="390" y="0" name="bottom"/>
  <anchor x="390" y="0" name="cedilla"/>
  <anchor x="385" y="0" name="ogonek"/>
  <anchor x="570" y="657" name="top"/>
  <outline>
    <contour>
      <point x="220" y="0" type="line"/>
      <point x="230" y="43" type="line"/>
      <point x="156" y="43"/>
      <point x="145" y="50"/>
      <point x="166" y="152" type="curve" smooth="yes"/>
      <point x="243" y="522" type="line"/>
      <point x="249" y="522" type="line"/>
      <point x="355" y="0" type="line"/>
      <point x="432" y="0" type="line"/>
      <point x="754" y="522" type="line"/>
      <point x="760" y="522" type="line"/>
      <point x="677" y="124" type="line" smooth="yes"/>
      <point x="663" y="57"/>
      <point x="648" y="43"/>
      <point x="574" y="43" type="curve"/>
      <point x="565" y="0" type="line"/>
      <point x="882" y="0" type="line"/>
      <point x="890" y="43" type="line"/>
      <point x="823" y="43"/>
      <point x="807" y="57"/>
      <point x="822" y="124" type="curve"/>
      <point x="904" y="522" type="line"/>
      <point x="921" y="596"/>
      <point x="941" y="614"/>
      <point x="1008" y="614" type="curve"/>
      <point x="1018" y="657" type="line"/>
      <point x="761" y="657" type="line"/>
      <point x="481" y="194" type="line"/>
      <point x="473" y="194" type="line"/>
      <point x="386" y="657" type="line"/>
      <point x="111" y="657" type="line"/>
      <point x="102" y="614" type="line"/>
      <point x="177" y="614"/>
      <point x="186" y="596"/>
      <point x="171" y="521" type="curve" smooth="yes"/>
      <point x="94" y="152" type="line" smooth="yes"/>
      <point x="73" y="50"/>
      <point x="60" y="43"/>
      <point x="-19" y="43" type="curve"/>
      <point x="-28" y="0" type="line"/>
    </contour>
  </outline>
</glyph>
<glyph name="N" format="2">
  <advance width="761"/>
  <unicode hex="004E"/>
  <anchor x="322" y="0" name="bottom"/>
  <anchor x="322" y="0" name="cedilla"/>
  <anchor x="321" y="0" name="ogonek"/>
  <anchor x="471" y="657" name="top"/>
  <outline>
    <contour>
      <point x="608" y="-7" type="line"/>
      <point x="710" y="485" type="line" smooth="yes"/>
      <point x="726" y="563"/>
      <point x="747" y="614"/>
      <point x="825" y="614" type="curve"/>
      <point x="834" y="657" type="line"/>
      <point x="587" y="657" type="line"/>
      <point x="579" y="614" type="line"/>
      <point x="666" y="614"/>
      <point x="658" y="552"/>
      <point x="645" y="485" type="curve" smooth="yes"/>
      <point x="583" y="186" type="line"/>
      <point x="578" y="186" type="line"/>
      <point x="334" y="657" type="line"/>
      <point x="108" y="657" type="line"/>
      <point x="99" y="614" type="line"/>
      <point x="150" y="614"/>
      <point x="162" y="603"/>
      <point x="191" y="543" type="curve"/>
      <point x="231" y="523" type="line"/>
      <point x="506" y="-7" type="line"/>
    </contour>
    <contour>
      <point x="216" y="0" type="line"/>
      <point x="226" y="43" type="line"/>
      <point x="151" y="43"/>
      <point x="140" y="62"/>
      <point x="161" y="162" type="curve" smooth="yes"/>
      <point x="233" y="509" type="line"/>
      <point x="327" y="509" type="line"/>
      <point x="185" y="591" type="line"/>
      <point x="96" y="162" type="line" smooth="yes"/>
      <point x="75" y="62"/>
      <point x="58" y="43"/>
      <point x="-21" y="43" type="curve"/>
      <point x="-29" y="0" type="line"/>
    </contour>
  </outline>
</glyph>
<glyph name="O" format="2">
  <advance width="749"/>
  <unicode hex="004F"/>
  <anchor x="327" y="0" name="bottom"/>
  <anchor x="337" y="0" name="cedilla"/>
  <anchor x="396" y="0" name="ogonek"/>
  <anchor x="466" y="657" name="top"/>
  <outline>
    <contour>
      <point x="322" y="-14" type="curve" smooth="yes"/>
      <point x="575" y="-14"/>
      <point x="729" y="169"/>
      <point x="729" y="415" type="curve" smooth="yes"/>
      <point x="729" y="574"/>
      <point x="636" y="669"/>
      <point x="465" y="669" type="curve" smooth="yes"/>
      <point x="222" y="669"/>
      <point x="61" y="494"/>
      <point x="61" y="244" type="curve" smooth="yes"/>
      <point x="61" y="81"/>
      <point x="151" y="-14"/>
    </contour>
    <contour>
      <point x="335" y="38" type="curve" smooth="yes"/>
      <point x="250" y="38"/>
      <point x="210" y="109"/>
      <point x="210" y="225" type="curve" smooth="yes"/>
      <point x="210" y="452"/>
      <point x="310" y="619"/>
      <point x="452" y="619" type="curve" smooth="yes"/>
      <point x="533" y="619"/>
      <point x="578" y="551"/>
      <point x="578" y="430" type="curve" smooth="yes"/>
      <point x="578" y="276"/>
      <point x="535" y="38"/>
    </contour>
  </outline>
</glyph>
<glyph name="P" format="2">
  <advance width="642"/>
  <unicode hex="0050"/>
  <anchor x="158" y="0" name="bottom"/>
  <anchor x="158" y="0" name="cedilla"/>
  <anchor x="158" y="0" name="ogonek"/>
  <anchor x="397" y="657" name="top"/>
  <outline>
    <contour>
      <point x="328" y="0" type="line"/>
      <point x="336" y="43" type="line"/>
      <point x="236" y="43"/>
      <point x="230" y="55"/>
      <point x="246" y="136" type="curve"/>
      <point x="344" y="605" type="line"/>
      <point x="364" y="607"/>
      <point x="374" y="608"/>
      <point x="392" y="608" type="curve" smooth="yes"/>
      <point x="473" y="608"/>
      <point x="508" y="577"/>
      <point x="508" y="502" type="curve" smooth="yes"/>
      <point x="508" y="400"/>
      <point x="460" y="330"/>
      <point x="340" y="330" type="curve" smooth="yes"/>
      <point x="314" y="330"/>
      <point x="292" y="335"/>
      <point x="277" y="336" type="curve"/>
      <point x="267" y="286" type="line"/>
      <point x="288" y="281"/>
      <point x="321" y="272"/>
      <point x="358" y="272" type="curve" smooth="yes"/>
      <point x="510" y="272"/>
      <point x="659" y="332"/>
      <point x="659" y="517" type="curve" smooth="yes"/>
      <point x="659" y="633"/>
      <point x="553" y="657"/>
      <point x="434" y="657" type="curve" smooth="yes"/>
      <point x="118" y="657" type="line"/>
      <point x="109" y="614" type="line"/>
      <point x="177" y="614"/>
      <point x="197" y="600"/>
      <point x="183" y="535" type="curve" smooth="yes"/>
      <point x="101" y="139" type="line"/>
      <point x="83" y="56"/>
      <point x="73" y="43"/>
      <point x="-10" y="43" type="curve"/>
      <point x="-19" y="0" type="line"/>
    </contour>
  </outline>
</glyph>
<glyph name="Q" format="2">
  <advance width="748"/>
  <unicode hex="0051"/>
  <anchor x="273" y="-220" name="bottom"/>
  <anchor x="274" y="-220" name="cedilla"/>
  <anchor x="274" y="-220" name="ogonek"/>
  <anchor x="463" y="657" name="top"/>
  <outline>
    <contour>
      <point x="413" y="-20" type="line"/>
      <point x="419" y="-2" type="line"/>
      <point x="612" y="41"/>
      <point x="729" y="209"/>
      <point x="729" y="415" type="curve" smooth="yes"/>
      <point x="729" y="574"/>
      <point x="636" y="669"/>
      <point x="465" y="669" type="curve" smooth="yes"/>
      <point x="222" y="669"/>
      <point x="61" y="494"/>
      <point x="61" y="243" type="curve" smooth="yes"/>
      <point x="61" y="91"/>
      <point x="138" y="-2"/>
      <point x="286" y="-12" type="curve"/>
    </contour>
    <contour>
      <point x="616" y="-175" type="line"/>
      <point x="624" y="-132" type="line"/>
      <point x="500" y="-132"/>
      <point x="456" y="-103"/>
      <point x="410" y="14" type="curve"/>
      <point x="264" y="6" type="line"/>
      <point x="279" y="-53" type="line" smooth="yes"/>
      <point x="304" y="-147"/>
      <point x="397" y="-175"/>
      <point x="566" y="-175" type="curve" smooth="yes"/>
    </contour>
    <contour>
      <point x="335" y="38" type="curve" smooth="yes"/>
      <point x="250" y="38"/>
      <point x="210" y="109"/>
      <point x="210" y="225" type="curve" smooth="yes"/>
      <point x="210" y="452"/>
      <point x="310" y="619"/>
      <point x="452" y="619" type="curve" smooth="yes"/>
      <point x="533" y="619"/>
      <point x="578" y="551"/>
      <point x="578" y="430" type="curve" smooth="yes"/>
      <point x="578" y="276"/>
      <point x="535" y="38"/>
    </contour>
  </outline>
</glyph>
<glyph name="R" format="2">
  <advance width="694"/>
  <unicode hex="0052"/>
  <anchor x="307" y="0" name="bottom"/>
  <anchor x="308" y="0" name="cedilla"/>
  <anchor x="308" y="0" name="ogonek"/>
  <anchor x="411" y="657" name="top"/>
  <outline>
    <contour>
      <point x="314" y="0" type="line"/>
      <point x="323" y="43" type="line"/>
      <point x="239" y="43"/>
      <point x="228" y="54"/>
      <point x="245" y="135" type="curve" smooth="yes"/>
      <point x="343" y="605" type="line"/>
      <point x="363" y="608"/>
      <point x="382" y="608"/>
      <point x="402" y="608" type="curve" smooth="yes"/>
      <point x="478" y="608"/>
      <point x="509" y="570"/>
      <point x="509" y="505" type="curve" smooth="yes"/>
      <point x="509" y="390"/>
      <point x="456" y="345"/>
      <point x="324" y="338" type="curve"/>
      <point x="275" y="339" type="line"/>
      <point x="266" y="290" type="line"/>
      <point x="302" y="290" type="line" smooth="yes"/>
      <point x="335" y="290"/>
      <point x="347" y="286"/>
      <point x="358" y="255" type="curve"/>
      <point x="384" y="190"/>
      <point x="396" y="160"/>
      <point x="451" y="0" type="curve"/>
      <point x="669" y="0" type="line"/>
      <point x="678" y="43" type="line"/>
      <point x="633" y="43"/>
      <point x="607" y="50"/>
      <point x="585" y="94" type="curve" smooth="yes"/>
      <point x="511" y="245"/>
      <point x="493" y="292"/>
      <point x="467" y="313" type="curve"/>
      <point x="468" y="318" type="line"/>
      <point x="568" y="340"/>
      <point x="661" y="391"/>
      <point x="661" y="518" type="curve" smooth="yes"/>
      <point x="661" y="622"/>
      <point x="558" y="657"/>
      <point x="437" y="657" type="curve" smooth="yes"/>
      <point x="117" y="657" type="line"/>
      <point x="108" y="614" type="line"/>
      <point x="186" y="614"/>
      <point x="195" y="595"/>
      <point x="183" y="536" type="curve" smooth="yes"/>
      <point x="100" y="136" type="line"/>
      <point x="82" y="54"/>
      <point x="64" y="43"/>
      <point x="-10" y="43" type="curve"/>
      <point x="-20" y="0" type="line"/>
    </contour>
  </outline>
</glyph>
<glyph name="S" format="2">
  <advance width="562"/>
  <unicode hex="0053"/>
  <anchor x="222" y="0" name="bottom"/>
  <anchor x="222" y="0" name="cedilla"/>
  <anchor x="222" y="0" name="ogonek"/>
  <anchor x="371" y="657" name="top"/>
  <outline>
    <contour>
      <point x="63" y="-13" type="line"/>
      <point x="67" y="6"/>
      <point x="80" y="18"/>
      <point x="96" y="18" type="curve" smooth="yes"/>
      <point x="116" y="18"/>
      <point x="129" y="-12"/>
      <point x="224" y="-12" type="curve" smooth="yes"/>
      <point x="391" y="-12"/>
      <point x="514" y="71"/>
      <point x="514" y="217" type="curve" smooth="yes"/>
      <point x="514" y="316"/>
      <point x="444" y="364"/>
      <point x="371" y="402" type="curve" smooth="yes"/>
      <point x="307" y="435"/>
      <point x="247" y="466"/>
      <point x="247" y="526" type="curve" smooth="yes"/>
      <point x="247" y="588"/>
      <point x="290" y="621"/>
      <point x="372" y="621" type="curve" smooth="yes"/>
      <point x="446" y="621"/>
      <point x="482" y="579"/>
      <point x="486" y="458" type="curve"/>
      <point x="531" y="458" type="line"/>
      <point x="570" y="668" type="line"/>
      <point x="533" y="668" type="line"/>
      <point x="525" y="648"/>
      <point x="510" y="644"/>
      <point x="499" y="644" type="curve" smooth="yes"/>
      <point x="474" y="644"/>
      <point x="444" y="668"/>
      <point x="372" y="668" type="curve" smooth="yes"/>
      <point x="221" y="668"/>
      <point x="117" y="597"/>
      <point x="117" y="461" type="curve" smooth="yes"/>
      <point x="117" y="368"/>
      <point x="179" y="329"/>
      <point x="249" y="290" type="curve" smooth="yes"/>
      <point x="309" y="257"/>
      <point x="366" y="225"/>
      <point x="366" y="156" type="curve" smooth="yes"/>
      <point x="366" y="71"/>
      <point x="293" y="44"/>
      <point x="220" y="44" type="curve" smooth="yes"/>
      <point x="141" y="44"/>
      <point x="110" y="75"/>
      <point x="106" y="203" type="curve"/>
      <point x="58" y="203" type="line"/>
      <point x="21" y="-13" type="line"/>
    </contour>
  </outline>
</glyph>
<glyph name="T" format="2">
  <advance width="665"/>
  <unicode hex="0054"/>
  <anchor x="284" y="0" name="bottom"/>
  <anchor x="284" y="0" name="cedilla"/>
  <anchor x="284" y="0" name="ogonek"/>
  <anchor x="418" y="657" name="top"/>
  <outline>
    <contour>
      <point x="447" y="0" type="line"/>
      <point x="456" y="43" type="line"/>
      <point x="373" y="43"/>
      <point x="364" y="54"/>
      <point x="383" y="145" type="curve" smooth="yes"/>
      <point x="481" y="617" type="line"/>
      <point x="336" y="617" type="line"/>
      <point x="238" y="145" type="line"/>
      <point x="219" y="54"/>
      <point x="205" y="43"/>
      <point x="120" y="43" type="curve"/>
      <point x="111" y="0" type="line"/>
    </contour>
    <contour>
      <point x="117" y="459" type="line"/>
      <point x="161" y="567"/>
      <point x="180" y="601"/>
      <point x="288" y="601" type="curve" smooth="yes"/>
      <point x="521" y="601" type="line" smooth="yes"/>
      <point x="630" y="601"/>
      <point x="634" y="567"/>
      <point x="634" y="459" type="curve"/>
      <point x="684" y="459" type="line"/>
      <point x="716" y="657" type="line"/>
      <point x="120" y="657" type="line"/>
      <point x="68" y="459" type="line"/>
    </contour>
  </outline>
</glyph>
<glyph name="U" format="2">
  <advance width="770"/>
  <unicode hex="0055"/>
  <anchor x="329" y="0" name="bottom"/>
  <anchor x="329" y="0" name="cedilla"/>
  <anchor x="420" y="0" name="ogonek"/>
  <anchor x="504" y="657" name="top"/>
  <outline>
    <contour>
      <point x="343" y="-14" type="curve" smooth="yes"/>
      <point x="538" y="-14"/>
      <point x="633" y="79"/>
      <point x="671" y="264" type="curve" smooth="yes"/>
      <point x="718" y="488" type="line" smooth="yes"/>
      <point x="739" y="591"/>
      <point x="753" y="614"/>
      <point x="837" y="614" type="curve"/>
      <point x="847" y="657" type="line"/>
      <point x="592" y="657" type="line"/>
      <point x="583" y="614" type="line"/>
      <point x="639" y="614"/>
      <point x="659" y="603"/>
      <point x="659" y="562" type="curve" smooth="yes"/>
      <point x="659" y="544"/>
      <point x="655" y="518"/>
      <point x="648" y="485" type="curve" smooth="yes"/>
      <point x="600" y="258" type="line"/>
      <point x="573" y="120"/>
      <point x="508" y="70"/>
      <point x="385" y="70" type="curve" smooth="yes"/>
      <point x="286" y="70"/>
      <point x="249" y="107"/>
      <point x="249" y="183" type="curve" smooth="yes"/>
      <point x="249" y="206"/>
      <point x="253" y="234"/>
      <point x="259" y="265" type="curve" smooth="yes"/>
      <point x="313" y="521" type="line" smooth="yes"/>
      <point x="329" y="596"/>
      <point x="345" y="614"/>
      <point x="424" y="614" type="curve"/>
      <point x="434" y="657" type="line"/>
      <point x="104" y="657" type="line"/>
      <point x="95" y="614" type="line"/>
      <point x="153" y="614"/>
      <point x="174" y="604"/>
      <point x="174" y="568" type="curve" smooth="yes"/>
      <point x="174" y="557"/>
      <point x="172" y="543"/>
      <point x="168" y="526" type="curve" smooth="yes"/>
      <point x="110" y="247" type="line" smooth="yes"/>
      <point x="103" y="214"/>
      <point x="100" y="185"/>
      <point x="100" y="159" type="curve" smooth="yes"/>
      <point x="100" y="37"/>
      <point x="176" y="-14"/>
    </contour>
  </outline>
</glyph>
<glyph name="V" format="2">
  <advance width="697"/>
  <unicode hex="0056"/>
  <anchor x="253" y="0" name="bottom"/>
  <anchor x="269" y="0" name="cedilla"/>
  <anchor x="253" y="0" name="ogonek"/>
  <anchor x="452" y="657" name="top"/>
  <outline>
    <contour>
      <point x="284" y="-5" type="line"/>
      <point x="616" y="459" type="line" smooth="yes"/>
      <point x="716" y="599"/>
      <point x="735" y="614"/>
      <point x="791" y="614" type="curve"/>
      <point x="801" y="657" type="line"/>
      <point x="579" y="657" type="line"/>
      <point x="569" y="614" type="line"/>
      <point x="604" y="614"/>
      <point x="621" y="607"/>
      <point x="621" y="588" type="curve" smooth="yes"/>
      <point x="621" y="570"/>
      <point x="605" y="546"/>
      <point x="599" y="538" type="curve" smooth="yes"/>
      <point x="413" y="268" type="line"/>
      <point x="348" y="168" type="line"/>
      <point x="339" y="168" type="line"/>
      <point x="333" y="266" type="line"/>
      <point x="300" y="504" type="line" smooth="yes"/>
      <point x="298" y="516"/>
      <point x="298" y="527"/>
      <point x="298" y="536" type="curve" smooth="yes"/>
      <point x="298" y="602"/>
      <point x="334" y="614"/>
      <point x="383" y="614" type="curve"/>
      <point x="390" y="657" type="line"/>
      <point x="72" y="657" type="line"/>
      <point x="63" y="614" type="line"/>
      <point x="123" y="614"/>
      <point x="129" y="591"/>
      <point x="139" y="525" type="curve" smooth="yes"/>
      <point x="216" y="-5" type="line"/>
    </contour>
  </outline>
</glyph>
<glyph name="W" format="2">
  <advance width="997"/>
  <unicode hex="0057"/>
  <anchor x="415" y="0" name="bottom"/>
  <anchor x="416" y="0" name="cedilla"/>
  <anchor x="416" y="0" name="ogonek"/>
  <anchor x="609" y="657" name="top"/>
  <outline>
    <contour>
      <point x="634" y="-8" type="line"/>
      <point x="986" y="544" type="line" smooth="yes"/>
      <point x="1018" y="594"/>
      <point x="1041" y="614"/>
      <point x="1086" y="614" type="curve"/>
      <point x="1094" y="657" type="line"/>
      <point x="875" y="657" type="line"/>
      <point x="865" y="614" type="line"/>
      <point x="896" y="614"/>
      <point x="920" y="609"/>
      <point x="920" y="580" type="curve" smooth="yes"/>
      <point x="920" y="549"/>
      <point x="883" y="496"/>
      <point x="883" y="496" type="curve"/>
      <point x="689" y="182" type="line"/>
      <point x="681" y="182" type="line"/>
      <point x="682" y="263" type="line"/>
      <point x="664" y="519" type="line"/>
      <point x="664" y="527"/>
      <point x="664" y="538"/>
      <point x="664" y="548" type="curve" smooth="yes"/>
      <point x="664" y="596"/>
      <point x="697" y="614"/>
      <point x="752" y="614" type="curve"/>
      <point x="761" y="657" type="line"/>
      <point x="464" y="657" type="line"/>
      <point x="455" y="614" type="line"/>
      <point x="509" y="614"/>
      <point x="516" y="604"/>
      <point x="520" y="518" type="curve" smooth="yes"/>
      <point x="524" y="434" type="line"/>
      <point x="526" y="369" type="line"/>
      <point x="550" y="-8" type="line"/>
    </contour>
    <contour>
      <point x="273" y="-8" type="line"/>
      <point x="521" y="353" type="line"/>
      <point x="543" y="353" type="line"/>
      <point x="532" y="463" type="line"/>
      <point x="338" y="182" type="line"/>
      <point x="329" y="182" type="line"/>
      <point x="328" y="261" type="line"/>
      <point x="301" y="535" type="line"/>
      <point x="300" y="538"/>
      <point x="300" y="545"/>
      <point x="300" y="549" type="curve" smooth="yes"/>
      <point x="300" y="582"/>
      <point x="310" y="614"/>
      <point x="377" y="614" type="curve"/>
      <point x="385" y="657" type="line"/>
      <point x="77" y="657" type="line"/>
      <point x="68" y="614" type="line"/>
      <point x="126" y="614"/>
      <point x="137" y="588"/>
      <point x="143" y="516" type="curve"/>
      <point x="195" y="-8" type="line"/>
    </contour>
  </outline>
</glyph>
<glyph name="X" format="2">
  <advance width="654"/>
  <unicode hex="0058"/>
  <anchor x="259" y="0" name="bottom"/>
  <anchor x="259" y="0" name="cedilla"/>
  <anchor x="494" y="0" name="ogonek"/>
  <anchor x="421" y="657" name="top"/>
  <outline>
    <contour>
      <point x="623" y="0" type="line"/>
      <point x="632" y="43" type="line"/>
      <point x="587" y="45"/>
      <point x="564" y="59"/>
      <point x="540" y="106" type="curve" smooth="yes"/>
      <point x="407" y="368" type="line"/>
      <point x="390" y="388" type="line"/>
      <point x="354" y="485" type="line" smooth="yes"/>
      <point x="347" y="504"/>
      <point x="324" y="546"/>
      <point x="324" y="574" type="curve" smooth="yes"/>
      <point x="324" y="604"/>
      <point x="336" y="613"/>
      <point x="383" y="613" type="curve" smooth="yes"/>
      <point x="392" y="613" type="line"/>
      <point x="403" y="657" type="line"/>
      <point x="82" y="657" type="line"/>
      <point x="72" y="613" type="line"/>
      <point x="138" y="613"/>
      <point x="144" y="593"/>
      <point x="170" y="545" type="curve"/>
      <point x="286" y="310" type="line"/>
      <point x="301" y="288" type="line"/>
      <point x="325" y="227" type="line"/>
      <point x="357" y="145" type="line" smooth="yes"/>
      <point x="368" y="118"/>
      <point x="372" y="101"/>
      <point x="372" y="88" type="curve" smooth="yes"/>
      <point x="372" y="65"/>
      <point x="352" y="43"/>
      <point x="306" y="43" type="curve" smooth="yes"/>
      <point x="299" y="43" type="line"/>
      <point x="290" y="0" type="line"/>
    </contour>
    <contour>
      <point x="186" y="0" type="line"/>
      <point x="196" y="43" type="line"/>
      <point x="147" y="43"/>
      <point x="131" y="51"/>
      <point x="131" y="69" type="curve" smooth="yes"/>
      <point x="131" y="96"/>
      <point x="151" y="116"/>
      <point x="168" y="134" type="curve" smooth="yes"/>
      <point x="302" y="275" type="line"/>
      <point x="319" y="275" type="line"/>
      <point x="290" y="331" type="line"/>
      <point x="63" y="106" type="line" smooth="yes"/>
      <point x="15" y="59"/>
      <point x="-5" y="43"/>
      <point x="-49" y="43" type="curve"/>
      <point x="-58" y="0" type="line"/>
    </contour>
    <contour>
      <point x="574" y="518" type="line" smooth="yes"/>
      <point x="647" y="591"/>
      <point x="667" y="609"/>
      <point x="727" y="613" type="curve"/>
      <point x="737" y="657" type="line"/>
      <point x="497" y="657" type="line"/>
      <point x="487" y="613" type="line"/>
      <point x="530" y="613"/>
      <point x="546" y="607"/>
      <point x="546" y="592" type="curve" smooth="yes"/>
      <point x="546" y="568"/>
      <point x="533" y="556"/>
      <point x="506" y="525" type="curve"/>
      <point x="390" y="400" type="line"/>
      <point x="373" y="400" type="line"/>
      <point x="404" y="348" type="line"/>
    </contour>
  </outline>
</glyph>
<glyph name="Y" format="2">
  <advance width="652"/>
  <unicode hex="0059"/>
  <anchor x="283" y="0" name="bottom"/>
  <anchor x="284" y="0" name="cedilla"/>
  <anchor x="283" y="0" name="ogonek"/>
  <anchor x="436" y="657" name="top"/>
  <outline>
    <contour>
      <point x="608" y="528" type="line"/>
      <point x="666" y="603"/>
      <point x="688" y="611"/>
      <point x="745" y="614" type="curve"/>
      <point x="753" y="657" type="line"/>
      <point x="532" y="657" type="line"/>
      <point x="522" y="614" type="line"/>
      <point x="565" y="614"/>
      <point x="573" y="605"/>
      <point x="573" y="594" type="curve" smooth="yes"/>
      <point x="573" y="583"/>
      <point x="564" y="566"/>
      <point x="555" y="557" type="curve"/>
      <point x="376" y="302" type="line"/>
      <point x="394" y="236" type="line"/>
    </contour>
    <contour>
      <point x="450" y="0" type="line"/>
      <point x="458" y="43" type="line"/>
      <point x="398" y="43"/>
      <point x="373" y="47"/>
      <point x="373" y="90" type="curve" smooth="yes"/>
      <point x="373" y="102"/>
      <point x="375" y="117"/>
      <point x="379" y="137" type="curve"/>
      <point x="417" y="315" type="line"/>
      <point x="272" y="315" type="line"/>
      <point x="234" y="137" type="line" smooth="yes"/>
      <point x="215" y="49"/>
      <point x="203" y="43"/>
      <point x="118" y="43" type="curve"/>
      <point x="108" y="0" type="line"/>
    </contour>
    <contour>
      <point x="382" y="299" type="line"/>
      <point x="358" y="396" type="line"/>
      <point x="307" y="548" type="line" smooth="yes"/>
      <point x="303" y="560"/>
      <point x="301" y="574"/>
      <point x="301" y="584" type="curve" smooth="yes"/>
      <point x="301" y="599"/>
      <point x="315" y="614"/>
      <point x="368" y="614" type="curve"/>
      <point x="376" y="657" type="line"/>
      <point x="72" y="657" type="line"/>
      <point x="63" y="614" type="line"/>
      <point x="109" y="614"/>
      <point x="126" y="606"/>
      <point x="173" y="479" type="curve" smooth="yes"/>
      <point x="264" y="235" type="line"/>
    </contour>
  </outline>
</glyph>
<glyph name="Z" format="2">
  <advance width="637"/>
  <unicode hex="005A"/>
  <anchor x="263" y="0" name="bottom"/>
  <anchor x="263" y="0" name="cedilla"/>
  <anchor x="401" y="0" name="ogonek"/>
  <anchor x="422" y="657" name="top"/>
  <outline>
    <contour>
      <point x="518" y="0" type="line"/>
      <point x="585" y="209" type="line"/>
      <point x="531" y="209" type="line"/>
      <point x="486" y="103"/>
      <point x="452" y="61"/>
      <point x="328" y="61" type="curve" smooth="yes"/>
      <point x="187" y="61" type="line"/>
      <point x="188" y="67" type="line"/>
      <point x="664" y="602" type="line"/>
      <point x="675" y="657" type="line"/>
      <point x="164" y="657" type="line"/>
      <point x="110" y="463" type="line"/>
      <point x="162" y="463" type="line"/>
      <point x="205" y="574"/>
      <point x="247" y="594"/>
      <point x="337" y="594" type="curve" smooth="yes"/>
      <point x="483" y="594" type="line"/>
      <point x="482" y="589" type="line"/>
      <point x="4" y="55" type="line"/>
      <point x="-8" y="0" type="line"/>
    </contour>
  </outline>
</glyph>
<glyph name="bracketleft" format="2">
  <advance width="388"/>
  <unicode hex="005B"/>
  <outline>
    <contour>
      <point x="252" y="-186" type="line"/>
      <point x="263" y="-136" type="line"/>
      <point x="133" y="-136" type="line"/>
      <point x="307" y="682" type="line"/>
      <point x="437" y="682" type="line"/>
      <point x="448" y="732" type="line"/>
      <point x="205" y="732" type="line"/>
      <point x="9" y="-186" type="line"/>
    </contour>
  </outline>
</glyph>
<glyph name="backslash" format="2">
  <advance width="408"/>
  <unicode hex="005C"/>
  <outline>
    <contour>
      <point x="303" y="-89" type="line"/>
      <point x="212" y="709" type="line"/>
      <point x="135" y="709" type="line"/>
      <point x="225" y="-89" type="line"/>
    </contour>
  </outline>
</glyph>
<glyph name="bracketright" format="2">
  <advance width="389"/>
  <unicode hex="005D"/>
  <outline>
    <contour>
      <point x="190" y="-186" type="line"/>
      <point x="403" y="732" type="line"/>
      <point x="159" y="732" type="line"/>
      <point x="148" y="682" type="line"/>
      <point x="278" y="682" type="line"/>
      <point x="87" y="-136" type="line"/>
      <point x="-43" y="-136" type="line"/>
      <point x="-54" y="-186" type="line"/>
    </contour>
  </outline>
</glyph>
<glyph name="asciicircum" format="2">
  <advance width="480"/>
  <unicode hex="005E"/>
  <outline>
    <contour>
      <point x="111" y="309" type="line"/>
      <point x="258" y="612" type="line"/>
      <point x="261" y="612" type="line"/>
      <point x="409" y="309" type="line"/>
      <point x="469" y="309" type="line"/>
      <point x="288" y="673" type="line"/>
      <point x="232" y="673" type="line"/>
      <point x="52" y="309" type="line"/>
    </contour>
  </outline>
</glyph>
<glyph name="underscore" format="2">
  <advance width="512"/>
  <unicode hex="005F"/>
  <outline>
    <contour>
      <point x="425" y="-160" type="line"/>
      <point x="443" y="-77" type="line"/>
      <point x="-69" y="-77" type="line"/>
      <point x="-87" y="-160" type="line"/>
    </contour>
  </outline>
</glyph>
<glyph name="a" format="2">
  <advance width="584"/>
  <unicode hex="0061"/>
  <anchor x="230" y="0" name="bottom"/>
  <anchor x="230" y="0" name="cedilla"/>
  <anchor x="435" y="0" name="ogonek"/>
  <anchor x="315" y="473" name="top"/>
  <outline>
    <contour>
      <point x="176" y="-15" type="curve" smooth="yes"/>
      <point x="240" y="-15"/>
      <point x="278" y="17"/>
      <point x="318" y="71" type="curve"/>
      <point x="326" y="71" type="line"/>
      <point x="325" y="63"/>
      <point x="325" y="56"/>
      <point x="325" y="50" type="curve" smooth="yes"/>
      <point x="325" y="2"/>
      <point x="351" y="-12"/>
      <point x="402" y="-12" type="curve" smooth="yes"/>
      <point x="508" y="-12"/>
      <point x="549" y="50"/>
      <point x="573" y="88" type="curve"/>
      <point x="541" y="113" type="line"/>
      <point x="525" y="92"/>
      <point x="507" y="70"/>
      <point x="480" y="70" type="curve" smooth="yes"/>
      <point x="459" y="70"/>
      <point x="455" y="83"/>
      <point x="455" y="97" type="curve" smooth="yes"/>
      <point x="455" y="112"/>
      <point x="460" y="133"/>
      <point x="460" y="133" type="curve"/>
      <point x="531" y="473" type="line"/>
      <point x="449" y="473" type="line"/>
      <point x="409" y="426" type="line"/>
      <point x="403" y="426" type="line"/>
      <point x="382" y="453"/>
      <point x="360" y="481"/>
      <point x="296" y="481" type="curve" smooth="yes"/>
      <point x="159" y="481"/>
      <point x="30" y="354"/>
      <point x="30" y="167" type="curve" smooth="yes"/>
      <point x="30" y="30"/>
      <point x="100" y="-15"/>
    </contour>
    <contour>
      <point x="233" y="68" type="curve" smooth="yes"/>
      <point x="195" y="68"/>
      <point x="175" y="90"/>
      <point x="175" y="174" type="curve" smooth="yes"/>
      <point x="175" y="301"/>
      <point x="220" y="436"/>
      <point x="299" y="436" type="curve" smooth="yes"/>
      <point x="341" y="436"/>
      <point x="356" y="397"/>
      <point x="356" y="342" type="curve" smooth="yes"/>
      <point x="356" y="291"/>
      <point x="343" y="231"/>
      <point x="331" y="188" type="curve" smooth="yes"/>
      <point x="309" y="109"/>
      <point x="284" y="68"/>
    </contour>
  </outline>
</glyph>
<glyph name="b" format="2">
  <advance width="558"/>
  <unicode hex="0062"/>
  <anchor x="227" y="0" name="bottom"/>
  <anchor x="227" y="0" name="cedilla"/>
  <anchor x="228" y="0" name="ogonek"/>
  <anchor x="371" y="693" name="top"/>
  <outline>
    <contour>
      <point x="212" y="-14" type="curve" smooth="yes"/>
      <point x="414" y="-14"/>
      <point x="529" y="110"/>
      <point x="529" y="304" type="curve" smooth="yes"/>
      <point x="529" y="424"/>
      <point x="465" y="481"/>
      <point x="384" y="481" type="curve" smooth="yes"/>
      <point x="329" y="481"/>
      <point x="302" y="464"/>
      <point x="250" y="417" type="curve"/>
      <point x="243" y="417" type="line"/>
      <point x="300" y="705" type="line"/>
      <point x="241" y="705" type="line"/>
      <point x="79" y="696" type="line"/>
      <point x="79" y="653" type="line"/>
      <point x="79" y="653"/>
      <point x="100" y="654"/>
      <point x="111" y="654" type="curve" smooth="yes"/>
      <point x="131" y="654"/>
      <point x="147" y="649"/>
      <point x="147" y="627" type="curve" smooth="yes"/>
      <point x="147" y="615"/>
      <point x="144" y="596"/>
      <point x="143" y="592" type="curve"/>
      <point x="32" y="23" type="line"/>
      <point x="88" y="-2"/>
      <point x="146" y="-14"/>
    </contour>
    <contour>
      <point x="249" y="47" type="curve" smooth="yes"/>
      <point x="223" y="47"/>
      <point x="192" y="65"/>
      <point x="179" y="77" type="curve"/>
      <point x="224" y="314" type="line"/>
      <point x="240" y="357"/>
      <point x="278" y="412"/>
      <point x="327" y="412" type="curve" smooth="yes"/>
      <point x="356" y="412"/>
      <point x="381" y="390"/>
      <point x="381" y="305" type="curve" smooth="yes"/>
      <point x="381" y="158"/>
      <point x="335" y="47"/>
    </contour>
  </outline>
</glyph>
<glyph name="c" format="2">
  <advance width="450"/>
  <unicode hex="0063"/>
  <anchor x="175" y="0" name="bottom"/>
  <anchor x="189" y="0" name="cedilla"/>
  <anchor x="233" y="0" name="ogonek"/>
  <anchor x="304" y="473" name="top"/>
  <outline>
    <contour>
      <point x="204" y="-14" type="curve" smooth="yes"/>
      <point x="311" y="-14"/>
      <point x="373" y="41"/>
      <point x="416" y="109" type="curve"/>
      <point x="388" y="131" type="line"/>
      <point x="359" y="94"/>
      <point x="317" y="67"/>
      <point x="258" y="67" type="curve" smooth="yes"/>
      <point x="202" y="67"/>
      <point x="172" y="91"/>
      <point x="172" y="199" type="curve" smooth="yes"/>
      <point x="172" y="320"/>
      <point x="209" y="436"/>
      <point x="299" y="436" type="curve" smooth="yes"/>
      <point x="329" y="436"/>
      <point x="339" y="423"/>
      <point x="339" y="410" type="curve" smooth="yes"/>
      <point x="339" y="394"/>
      <point x="324" y="376"/>
      <point x="324" y="349" type="curve" smooth="yes"/>
      <point x="324" y="316"/>
      <point x="345" y="300"/>
      <point x="377" y="300" type="curve" smooth="yes"/>
      <point x="428" y="300"/>
      <point x="452" y="341"/>
      <point x="452" y="382" type="curve" smooth="yes"/>
      <point x="452" y="446"/>
      <point x="395" y="481"/>
      <point x="315" y="481" type="curve" smooth="yes"/>
      <point x="154" y="481"/>
      <point x="29" y="340"/>
      <point x="29" y="169" type="curve" smooth="yes"/>
      <point x="29" y="67"/>
      <point x="74" y="-14"/>
    </contour>
  </outline>
</glyph>
<glyph name="d" format="2">
  <advance width="575"/>
  <unicode hex="0064"/>
  <anchor x="228" y="0" name="bottom"/>
  <anchor x="228" y="0" name="cedilla"/>
  <anchor x="402" y="0" name="ogonek"/>
  <anchor x="352" y="693" name="top"/>
  <outline>
    <contour>
      <point x="176" y="-14" type="curve" smooth="yes"/>
      <point x="236" y="-14"/>
      <point x="273" y="12"/>
      <point x="316" y="71" type="curve"/>
      <point x="325" y="71" type="line"/>
      <point x="324" y="64"/>
      <point x="324" y="58"/>
      <point x="324" y="52" type="curve" smooth="yes"/>
      <point x="324" y="13"/>
      <point x="345" y="-12"/>
      <point x="401" y="-12" type="curve" smooth="yes"/>
      <point x="501" y="-12"/>
      <point x="540" y="43"/>
      <point x="572" y="89" type="curve"/>
      <point x="541" y="112" type="line"/>
      <point x="527" y="93"/>
      <point x="500" y="65"/>
      <point x="473" y="65" type="curve" smooth="yes"/>
      <point x="461" y="65"/>
      <point x="448" y="70"/>
      <point x="448" y="86" type="curve" smooth="yes"/>
      <point x="448" y="95"/>
      <point x="452" y="122"/>
      <point x="452" y="122" type="curve"/>
      <point x="568" y="705" type="line"/>
      <point x="522" y="705" type="line"/>
      <point x="348" y="694" type="line"/>
      <point x="348" y="653" type="line"/>
      <point x="348" y="653"/>
      <point x="367" y="655"/>
      <point x="379" y="655" type="curve" smooth="yes"/>
      <point x="409" y="655"/>
      <point x="414" y="641"/>
      <point x="414" y="624" type="curve" smooth="yes"/>
      <point x="414" y="610"/>
      <point x="411" y="592"/>
      <point x="411" y="592" type="curve"/>
      <point x="383" y="447" type="line"/>
      <point x="378" y="447" type="line"/>
      <point x="353" y="469"/>
      <point x="327" y="481"/>
      <point x="286" y="481" type="curve" smooth="yes"/>
      <point x="152" y="481"/>
      <point x="30" y="351"/>
      <point x="30" y="168" type="curve" smooth="yes"/>
      <point x="30" y="42"/>
      <point x="88" y="-14"/>
    </contour>
    <contour>
      <point x="230" y="68" type="curve" smooth="yes"/>
      <point x="197" y="68"/>
      <point x="176" y="88"/>
      <point x="176" y="175" type="curve" smooth="yes"/>
      <point x="176" y="296"/>
      <point x="216" y="436"/>
      <point x="294" y="436" type="curve" smooth="yes"/>
      <point x="340" y="436"/>
      <point x="358" y="388"/>
      <point x="358" y="349" type="curve" smooth="yes"/>
      <point x="358" y="317"/>
      <point x="346" y="248"/>
      <point x="326" y="170" type="curve"/>
      <point x="313" y="113"/>
      <point x="280" y="68"/>
    </contour>
  </outline>
</glyph>
<glyph name="e" format="2">
  <advance width="464"/>
  <unicode hex="0065"/>
  <anchor x="190" y="0" name="bottom"/>
  <anchor x="190" y="0" name="cedilla"/>
  <anchor x="254" y="0" name="ogonek"/>
  <anchor x="300" y="473" name="top"/>
  <outline>
    <contour>
      <point x="210" y="-15" type="curve" smooth="yes"/>
      <point x="294" y="-15"/>
      <point x="372" y="18"/>
      <point x="431" y="116" type="curve"/>
      <point x="402" y="139" type="line"/>
      <point x="363" y="91"/>
      <point x="322" y="68"/>
      <point x="268" y="68" type="curve" smooth="yes"/>
      <point x="212" y="68"/>
      <point x="170" y="93"/>
      <point x="170" y="180" type="curve" smooth="yes"/>
      <point x="170" y="300"/>
      <point x="224" y="431"/>
      <point x="286" y="431" type="curve" smooth="yes"/>
      <point x="309" y="431"/>
      <point x="317" y="413"/>
      <point x="317" y="384" type="curve" smooth="yes"/>
      <point x="317" y="296"/>
      <point x="246" y="235"/>
      <point x="161" y="232" type="curve"/>
      <point x="161" y="192" type="line"/>
      <point x="274" y="200"/>
      <point x="458" y="247"/>
      <point x="458" y="381" type="curve" smooth="yes"/>
      <point x="458" y="466"/>
      <point x="384" y="482"/>
      <point x="325" y="482" type="curve" smooth="yes"/>
      <point x="141" y="482"/>
      <point x="27" y="329"/>
      <point x="27" y="171" type="curve" smooth="yes"/>
      <point x="27" y="65"/>
      <point x="79" y="-15"/>
    </contour>
  </outline>
</glyph>
<glyph name="f" format="2">
  <advance width="341"/>
  <unicode hex="0066"/>
  <anchor x="7" y="-220" name="bottom"/>
  <anchor x="6" y="-220" name="cedilla"/>
  <anchor x="-5" y="-220" name="ogonek"/>
  <anchor x="246" y="693" name="top"/>
  <outline>
    <contour>
      <point x="-28" y="-230" type="curve" smooth="yes"/>
      <point x="150" y="-230"/>
      <point x="201" y="-28"/>
      <point x="217" y="80" type="curve" smooth="yes"/>
      <point x="286" y="541" type="line" smooth="yes"/>
      <point x="298" y="623"/>
      <point x="323" y="671"/>
      <point x="352" y="671" type="curve" smooth="yes"/>
      <point x="372" y="671"/>
      <point x="376" y="644"/>
      <point x="383" y="616" type="curve" smooth="yes"/>
      <point x="390" y="589"/>
      <point x="401" y="561"/>
      <point x="438" y="561" type="curve" smooth="yes"/>
      <point x="473" y="561"/>
      <point x="500" y="580"/>
      <point x="500" y="618" type="curve" smooth="yes"/>
      <point x="500" y="686"/>
      <point x="437" y="712"/>
      <point x="366" y="712" type="curve" smooth="yes"/>
      <point x="251" y="712"/>
      <point x="205" y="667"/>
      <point x="176" y="618" type="curve" smooth="yes"/>
      <point x="151" y="574"/>
      <point x="139" y="504"/>
      <point x="127" y="425" type="curve" smooth="yes"/>
      <point x="69" y="45" type="line" smooth="yes"/>
      <point x="62" y="-3"/>
      <point x="38" y="-178"/>
      <point x="-15" y="-178" type="curve" smooth="yes"/>
      <point x="-53" y="-178"/>
      <point x="-30" y="-76"/>
      <point x="-107" y="-76" type="curve" smooth="yes"/>
      <point x="-145" y="-76"/>
      <point x="-164" y="-105"/>
      <point x="-164" y="-136" type="curve" smooth="yes"/>
      <point x="-164" y="-204"/>
      <point x="-104" y="-230"/>
    </contour>
    <contour>
      <point x="371" y="411" type="line"/>
      <point x="379" y="468" type="line"/>
      <point x="47" y="468" type="line"/>
      <point x="37" y="411" type="line"/>
    </contour>
  </outline>
</glyph>
<glyph name="g" format="2">
  <advance width="487"/>
  <unicode hex="0067"/>
  <anchor x="184" y="-220" name="bottom"/>
  <anchor x="183" y="-220" name="cedilla"/>
  <anchor x="184" y="-220" name="ogonek"/>
  <anchor x="252" y="473" name="top"/>
  <outline>
    <contour>
      <point x="180" y="-230" type="curve" smooth="yes"/>
      <point x="356" y="-230"/>
      <point x="442" y="-161"/>
      <point x="442" y="-70" type="curve" smooth="yes"/>
      <point x="442" y="87"/>
      <point x="177" y="58"/>
      <point x="177" y="112" type="curve" smooth="yes"/>
      <point x="177" y="126"/>
      <point x="195" y="151"/>
      <point x="239" y="156" type="curve"/>
      <point x="369" y="161"/>
      <point x="439" y="233"/>
      <point x="439" y="320" type="curve" smooth="yes"/>
      <point x="439" y="365"/>
      <point x="421" y="387"/>
      <point x="410" y="405" type="curve"/>
      <point x="410" y="446" type="line"/>
      <point x="372" y="464"/>
      <point x="320" y="479"/>
      <point x="258" y="479" type="curve" smooth="yes"/>
      <point x="121" y="479"/>
      <point x="41" y="407"/>
      <point x="41" y="306" type="curve" smooth="yes"/>
      <point x="41" y="222"/>
      <point x="97" y="188"/>
      <point x="141" y="172" type="curve"/>
      <point x="141" y="166" type="line"/>
      <point x="93" y="156"/>
      <point x="47" y="124"/>
      <point x="47" y="81" type="curve" smooth="yes"/>
      <point x="47" y="51"/>
      <point x="69" y="25"/>
      <point x="93" y="14" type="curve"/>
      <point x="93" y="-6" type="line"/>
      <point x="202" y="-26"/>
      <point x="309" y="-40"/>
      <point x="309" y="-108" type="curve" smooth="yes"/>
      <point x="309" y="-144"/>
      <point x="269" y="-179"/>
      <point x="197" y="-179" type="curve" smooth="yes"/>
      <point x="112" y="-179"/>
      <point x="84" y="-136"/>
      <point x="84" y="-97" type="curve" smooth="yes"/>
      <point x="84" y="-62"/>
      <point x="110" y="-22"/>
      <point x="138" y="-8" type="curve"/>
      <point x="108" y="11" type="line"/>
      <point x="10" y="-7"/>
      <point x="-29" y="-59"/>
      <point x="-29" y="-112" type="curve" smooth="yes"/>
      <point x="-29" y="-173"/>
      <point x="23" y="-230"/>
    </contour>
    <contour>
      <point x="229" y="199" type="curve" smooth="yes"/>
      <point x="186" y="199"/>
      <point x="170" y="231"/>
      <point x="170" y="300" type="curve" smooth="yes"/>
      <point x="170" y="390"/>
      <point x="197" y="438"/>
      <point x="245" y="438" type="curve" smooth="yes"/>
      <point x="284" y="438"/>
      <point x="307" y="406"/>
      <point x="307" y="331" type="curve" smooth="yes"/>
      <point x="307" y="277"/>
      <point x="295" y="199"/>
    </contour>
    <contour>
      <point x="496" y="467" type="line"/>
      <point x="335" y="467" type="line"/>
      <point x="394" y="411" type="line"/>
      <point x="490" y="393" type="line"/>
    </contour>
  </outline>
</glyph>
<glyph name="h" format="2">
  <advance width="603"/>
  <unicode hex="0068"/>
  <anchor x="243" y="0" name="bottom"/>
  <anchor x="108" y="0" name="cedilla"/>
  <anchor x="427" y="0" name="ogonek"/>
  <anchor x="367" y="693" name="top"/>
  <outline>
    <contour>
      <point x="409" y="-12" type="curve" smooth="yes"/>
      <point x="527" y="-12"/>
      <point x="562" y="54"/>
      <point x="588" y="89" type="curve"/>
      <point x="557" y="112" type="line"/>
      <point x="544" y="97"/>
      <point x="520" y="65"/>
      <point x="487" y="65" type="curve" smooth="yes"/>
      <point x="472" y="65"/>
      <point x="466" y="72"/>
      <point x="466" y="85" type="curve" smooth="yes"/>
      <point x="466" y="96"/>
      <point x="470" y="108"/>
      <point x="470" y="108" type="curve"/>
      <point x="525" y="328" type="line" smooth="yes"/>
      <point x="529" y="343"/>
      <point x="536" y="377"/>
      <point x="536" y="403" type="curve" smooth="yes"/>
      <point x="536" y="443"/>
      <point x="520" y="481"/>
      <point x="446" y="481" type="curve" smooth="yes"/>
      <point x="312" y="481"/>
      <point x="257" y="355"/>
      <point x="216" y="288" type="curve"/>
      <point x="196" y="148" type="line"/>
      <point x="220" y="203"/>
      <point x="304" y="388"/>
      <point x="365" y="388" type="curve" smooth="yes"/>
      <point x="381" y="388"/>
      <point x="388" y="376"/>
      <point x="388" y="360" type="curve" smooth="yes"/>
      <point x="388" y="343"/>
      <point x="381" y="318"/>
      <point x="381" y="318" type="curve"/>
      <point x="324" y="92" type="line"/>
      <point x="323" y="87"/>
      <point x="318" y="66"/>
      <point x="318" y="47" type="curve" smooth="yes"/>
      <point x="318" y="18"/>
      <point x="330" y="-12"/>
    </contour>
    <contour>
      <point x="164" y="0" type="line"/>
      <point x="232" y="298" type="line"/>
      <point x="210" y="298" type="line"/>
      <point x="248" y="439" type="line"/>
      <point x="313" y="706" type="line"/>
      <point x="258" y="706" type="line"/>
      <point x="92" y="695" type="line"/>
      <point x="92" y="653" type="line"/>
      <point x="92" y="653"/>
      <point x="110" y="655"/>
      <point x="121" y="655" type="curve" smooth="yes"/>
      <point x="146" y="655"/>
      <point x="156" y="645"/>
      <point x="156" y="627" type="curve" smooth="yes"/>
      <point x="156" y="615"/>
      <point x="151" y="595"/>
      <point x="151" y="595" type="curve"/>
      <point x="22" y="0" type="line"/>
    </contour>
  </outline>
</glyph>
<glyph name="i" format="2">
  <advance width="325"/>
  <unicode hex="0069"/>
  <anchor x="142" y="0" name="bottom"/>
  <anchor x="142" y="0" name="cedilla"/>
  <anchor x="154" y="0" name="ogonek"/>
  <anchor x="218" y="698" name="top.mkmk"/>
  <outline>
    <contour>
      <point x="129" y="-12" type="curve"/>
      <point x="246" y="-11"/>
      <point x="280" y="40"/>
      <point x="314" y="89" type="curve"/>
      <point x="283" y="112" type="line"/>
      <point x="267" y="94"/>
      <point x="246" y="65"/>
      <point x="212" y="65" type="curve" smooth="yes"/>
      <point x="200" y="65"/>
      <point x="193" y="71"/>
      <point x="193" y="84" type="curve" smooth="yes"/>
      <point x="193" y="98"/>
      <point x="199" y="126"/>
      <point x="199" y="126" type="curve"/>
      <point x="273" y="476" type="line"/>
      <point x="221" y="476" type="line"/>
      <point x="49" y="465" type="line"/>
      <point x="49" y="422" type="line"/>
      <point x="49" y="422"/>
      <point x="64" y="424"/>
      <point x="81" y="424" type="curve" smooth="yes"/>
      <point x="108" y="424"/>
      <point x="114" y="409"/>
      <point x="114" y="396" type="curve" smooth="yes"/>
      <point x="114" y="381"/>
      <point x="110" y="364"/>
      <point x="110" y="364" type="curve"/>
      <point x="63" y="142" type="line" smooth="yes"/>
      <point x="50" y="83"/>
      <point x="47" y="67"/>
      <point x="47" y="50" type="curve" smooth="yes"/>
      <point x="47" y="15"/>
      <point x="72" y="-12"/>
    </contour>
    <contour>
      <point x="218" y="542" type="curve" smooth="yes"/>
      <point x="271" y="542"/>
      <point x="299" y="573"/>
      <point x="299" y="621" type="curve" smooth="yes"/>
      <point x="299" y="667"/>
      <point x="271" y="698"/>
      <point x="218" y="698" type="curve" smooth="yes"/>
      <point x="167" y="698"/>
      <point x="138" y="667"/>
      <point x="138" y="620" type="curve" smooth="yes"/>
      <point x="138" y="573"/>
      <point x="168" y="542"/>
    </contour>
  </outline>
</glyph>
<glyph name="j" format="2">
  <advance width="318"/>
  <unicode hex="006A"/>
  <anchor x="50" y="-220" name="bottom"/>
  <anchor x="50" y="-220" name="cedilla"/>
  <anchor x="-9" y="-220" name="ogonek"/>
  <anchor x="225" y="698" name="top.mkmk"/>
  <outline>
    <contour>
      <point x="-37" y="-230" type="curve" smooth="yes"/>
      <point x="139" y="-230"/>
      <point x="182" y="-69"/>
      <point x="207" y="68" type="curve" smooth="yes"/>
      <point x="282" y="476" type="line"/>
      <point x="230" y="476" type="line"/>
      <point x="60" y="465" type="line"/>
      <point x="60" y="423" type="line"/>
      <point x="60" y="423"/>
      <point x="77" y="425"/>
      <point x="94" y="425" type="curve" smooth="yes"/>
      <point x="121" y="425"/>
      <point x="126" y="411"/>
      <point x="126" y="398" type="curve" smooth="yes"/>
      <point x="126" y="381"/>
      <point x="123" y="365"/>
      <point x="123" y="365" type="curve"/>
      <point x="58" y="26" type="line" smooth="yes"/>
      <point x="39" y="-76"/>
      <point x="15" y="-178"/>
      <point x="-31" y="-178" type="curve" smooth="yes"/>
      <point x="-71" y="-178"/>
      <point x="-42" y="-76"/>
      <point x="-121" y="-76" type="curve" smooth="yes"/>
      <point x="-160" y="-76"/>
      <point x="-179" y="-107"/>
      <point x="-179" y="-142" type="curve" smooth="yes"/>
      <point x="-179" y="-206"/>
      <point x="-117" y="-230"/>
    </contour>
    <contour>
      <point x="224" y="542" type="curve" smooth="yes"/>
      <point x="277" y="542"/>
      <point x="305" y="573"/>
      <point x="305" y="621" type="curve" smooth="yes"/>
      <point x="305" y="667"/>
      <point x="277" y="698"/>
      <point x="224" y="698" type="curve" smooth="yes"/>
      <point x="173" y="698"/>
      <point x="144" y="667"/>
      <point x="144" y="620" type="curve" smooth="yes"/>
      <point x="144" y="573"/>
      <point x="174" y="542"/>
    </contour>
  </outline>
</glyph>
<glyph name="k" format="2">
  <advance width="569"/>
  <unicode hex="006B"/>
  <anchor x="236" y="0" name="bottom"/>
  <anchor x="236" y="0" name="cedilla"/>
  <anchor x="405" y="0" name="ogonek"/>
  <anchor x="203" y="693" name="top"/>
  <outline>
    <contour>
      <point x="169" y="0" type="line"/>
      <point x="207" y="205" type="line"/>
      <point x="210" y="237" type="line"/>
      <point x="302" y="705" type="line"/>
      <point x="259" y="705" type="line"/>
      <point x="82" y="694" type="line"/>
      <point x="82" y="653" type="line"/>
      <point x="82" y="653"/>
      <point x="96" y="655"/>
      <point x="114" y="655" type="curve" smooth="yes"/>
      <point x="140" y="655"/>
      <point x="144" y="635"/>
      <point x="144" y="622" type="curve" smooth="yes"/>
      <point x="144" y="606"/>
      <point x="142" y="593"/>
      <point x="142" y="593" type="curve"/>
      <point x="27" y="0" type="line"/>
    </contour>
    <contour>
      <point x="401" y="-10" type="curve" smooth="yes"/>
      <point x="518" y="-10"/>
      <point x="548" y="60"/>
      <point x="570" y="94" type="curve"/>
      <point x="539" y="114" type="line"/>
      <point x="516" y="86"/>
      <point x="503" y="68"/>
      <point x="469" y="68" type="curve" smooth="yes"/>
      <point x="439" y="68"/>
      <point x="426" y="93"/>
      <point x="412" y="124" type="curve" smooth="yes"/>
      <point x="334" y="302" type="line"/>
      <point x="233" y="229" type="line"/>
      <point x="283" y="86" type="line" smooth="yes"/>
      <point x="296" y="50"/>
      <point x="316" y="-10"/>
    </contour>
    <contour>
      <point x="255" y="226" type="line"/>
      <point x="325" y="275" type="line"/>
      <point x="448" y="373" type="line" smooth="yes"/>
      <point x="484" y="401"/>
      <point x="525" y="432"/>
      <point x="582" y="434" type="curve"/>
      <point x="585" y="468" type="line"/>
      <point x="348" y="468" type="line"/>
      <point x="345" y="434" type="line"/>
      <point x="378" y="432"/>
      <point x="387" y="417"/>
      <point x="387" y="401" type="curve" smooth="yes"/>
      <point x="387" y="390"/>
      <point x="380" y="377"/>
      <point x="368" y="368" type="curve" smooth="yes"/>
      <point x="219" y="252" type="line"/>
      <point x="197" y="252" type="line"/>
      <point x="191" y="181" type="line"/>
    </contour>
  </outline>
</glyph>
<glyph name="l" format="2">
  <advance width="314"/>
  <unicode hex="006C"/>
  <anchor x="127" y="0" name="bottom"/>
  <anchor x="126" y="0" name="cedilla"/>
  <anchor x="152" y="0" name="ogonek"/>
  <anchor x="206" y="693" name="top"/>
  <outline>
    <contour>
      <point x="128" y="-12" type="curve" smooth="yes"/>
      <point x="238" y="-12"/>
      <point x="276" y="41"/>
      <point x="309" y="89" type="curve"/>
      <point x="278" y="112" type="line"/>
      <point x="262" y="94"/>
      <point x="241" y="65"/>
      <point x="208" y="65" type="curve" smooth="yes"/>
      <point x="196" y="65"/>
      <point x="186" y="71"/>
      <point x="186" y="84" type="curve" smooth="yes"/>
      <point x="186" y="98"/>
      <point x="192" y="130"/>
      <point x="192" y="130" type="curve"/>
      <point x="305" y="705" type="line"/>
      <point x="264" y="705" type="line"/>
      <point x="85" y="694" type="line"/>
      <point x="85" y="654" type="line"/>
      <point x="85" y="654"/>
      <point x="99" y="656"/>
      <point x="117" y="656" type="curve" smooth="yes"/>
      <point x="144" y="656"/>
      <point x="148" y="640"/>
      <point x="148" y="627" type="curve" smooth="yes"/>
      <point x="148" y="611"/>
      <point x="145" y="594"/>
      <point x="145" y="594" type="curve"/>
      <point x="55" y="144" type="line" smooth="yes"/>
      <point x="47" y="101"/>
      <point x="42" y="75"/>
      <point x="42" y="53" type="curve" smooth="yes"/>
      <point x="42" y="18"/>
      <point x="58" y="-12"/>
    </contour>
  </outline>
</glyph>
<glyph name="m" format="2">
  <advance width="883"/>
  <unicode hex="006D"/>
  <anchor x="386" y="0" name="bottom"/>
  <anchor x="386" y="0" name="cedilla"/>
  <anchor x="386" y="0" name="ogonek"/>
  <anchor x="491" y="473" name="top"/>
  <outline>
    <contour>
      <point x="690" y="-12" type="curve" smooth="yes"/>
      <point x="811" y="-12"/>
      <point x="855" y="72"/>
      <point x="867" y="89" type="curve"/>
      <point x="836" y="112" type="line"/>
      <point x="820" y="93"/>
      <point x="797" y="65"/>
      <point x="767" y="65" type="curve" smooth="yes"/>
      <point x="752" y="65"/>
      <point x="746" y="72"/>
      <point x="746" y="85" type="curve" smooth="yes"/>
      <point x="746" y="95"/>
      <point x="749" y="108"/>
      <point x="749" y="108" type="curve"/>
      <point x="808" y="334" type="line" smooth="yes"/>
      <point x="810" y="342"/>
      <point x="818" y="381"/>
      <point x="818" y="409" type="curve" smooth="yes"/>
      <point x="818" y="447"/>
      <point x="804" y="481"/>
      <point x="740" y="481" type="curve" smooth="yes"/>
      <point x="644" y="481"/>
      <point x="576" y="405"/>
      <point x="517" y="291" type="curve"/>
      <point x="479" y="103" type="line"/>
      <point x="509" y="208"/>
      <point x="600" y="388"/>
      <point x="652" y="388" type="curve" smooth="yes"/>
      <point x="668" y="388"/>
      <point x="673" y="371"/>
      <point x="673" y="354" type="curve" smooth="yes"/>
      <point x="673" y="330"/>
      <point x="663" y="288"/>
      <point x="657" y="267" type="curve" smooth="yes"/>
      <point x="605" y="88" type="line"/>
      <point x="603" y="82"/>
      <point x="600" y="64"/>
      <point x="600" y="50" type="curve" smooth="yes"/>
      <point x="600" y="19"/>
      <point x="616" y="-12"/>
    </contour>
    <contour>
      <point x="183" y="0" type="line"/>
      <point x="254" y="312" type="line"/>
      <point x="230" y="312" type="line"/>
      <point x="273" y="476" type="line"/>
      <point x="236" y="476" type="line"/>
      <point x="60" y="465" type="line"/>
      <point x="60" y="423" type="line"/>
      <point x="60" y="423"/>
      <point x="80" y="425"/>
      <point x="91" y="425" type="curve" smooth="yes"/>
      <point x="117" y="425"/>
      <point x="125" y="415"/>
      <point x="125" y="397" type="curve" smooth="yes"/>
      <point x="125" y="384"/>
      <point x="121" y="365"/>
      <point x="121" y="365" type="curve"/>
      <point x="41" y="0" type="line"/>
    </contour>
    <contour>
      <point x="457" y="0" type="line"/>
      <point x="479" y="103" type="line"/>
      <point x="529" y="309" type="line"/>
      <point x="515" y="309" type="line"/>
      <point x="529" y="355" type="line"/>
      <point x="530" y="358"/>
      <point x="538" y="385"/>
      <point x="538" y="411" type="curve" smooth="yes"/>
      <point x="538" y="446"/>
      <point x="523" y="482"/>
      <point x="458" y="482" type="curve" smooth="yes"/>
      <point x="338" y="482"/>
      <point x="273" y="359"/>
      <point x="236" y="302" type="curve"/>
      <point x="208" y="120" type="line"/>
      <point x="244" y="235"/>
      <point x="323" y="388"/>
      <point x="377" y="388" type="curve" smooth="yes"/>
      <point x="394" y="388"/>
      <point x="399" y="373"/>
      <point x="399" y="354" type="curve" smooth="yes"/>
      <point x="399" y="335"/>
      <point x="394" y="313"/>
      <point x="393" y="310" type="curve"/>
      <point x="369" y="204"/>
      <point x="365" y="187"/>
      <point x="314" y="0" type="curve"/>
    </contour>
  </outline>
</glyph>
<glyph name="n" format="2">
  <advance width="618"/>
  <unicode hex="006E"/>
  <anchor x="257" y="0" name="bottom"/>
  <anchor x="258" y="0" name="cedilla"/>
  <anchor x="441" y="0" name="ogonek"/>
  <anchor x="352" y="473" name="top"/>
  <outline>
    <contour>
      <point x="422" y="-12" type="curve" smooth="yes"/>
      <point x="546" y="-12"/>
      <point x="590" y="73"/>
      <point x="601" y="89" type="curve"/>
      <point x="570" y="112" type="line"/>
      <point x="555" y="93"/>
      <point x="531" y="65"/>
      <point x="501" y="65" type="curve" smooth="yes"/>
      <point x="485" y="65"/>
      <point x="480" y="73"/>
      <point x="480" y="85" type="curve" smooth="yes"/>
      <point x="480" y="95"/>
      <point x="483" y="108"/>
      <point x="483" y="108" type="curve"/>
      <point x="543" y="334" type="line" smooth="yes"/>
      <point x="548" y="354"/>
      <point x="553" y="377"/>
      <point x="553" y="402" type="curve" smooth="yes"/>
      <point x="553" y="447"/>
      <point x="537" y="481"/>
      <point x="469" y="481" type="curve" smooth="yes"/>
      <point x="326" y="481"/>
      <point x="265" y="331"/>
      <point x="232" y="278" type="curve"/>
      <point x="206" y="118" type="line"/>
      <point x="234" y="198"/>
      <point x="328" y="388"/>
      <point x="384" y="388" type="curve" smooth="yes"/>
      <point x="401" y="388"/>
      <point x="406" y="372"/>
      <point x="406" y="351" type="curve" smooth="yes"/>
      <point x="406" y="327"/>
      <point x="399" y="301"/>
      <point x="399" y="301" type="curve"/>
      <point x="339" y="90" type="line" smooth="yes"/>
      <point x="337" y="83"/>
      <point x="334" y="70"/>
      <point x="334" y="54" type="curve" smooth="yes"/>
      <point x="334" y="14"/>
      <point x="354" y="-12"/>
    </contour>
    <contour>
      <point x="184" y="0" type="line"/>
      <point x="252" y="286" type="line"/>
      <point x="223" y="286" type="line"/>
      <point x="272" y="476" type="line"/>
      <point x="225" y="476" type="line"/>
      <point x="61" y="465" type="line"/>
      <point x="61" y="423" type="line"/>
      <point x="61" y="423"/>
      <point x="80" y="425"/>
      <point x="91" y="425" type="curve" smooth="yes"/>
      <point x="116" y="425"/>
      <point x="124" y="415"/>
      <point x="124" y="396" type="curve" smooth="yes"/>
      <point x="124" y="384"/>
      <point x="121" y="365"/>
      <point x="121" y="365" type="curve"/>
      <point x="42" y="0" type="line"/>
    </contour>
  </outline>
</glyph>
<glyph name="o" format="2">
  <advance width="538"/>
  <unicode hex="006F"/>
  <anchor x="209" y="0" name="bottom"/>
  <anchor x="246" y="0" name="cedilla"/>
  <anchor x="282" y="0" name="ogonek"/>
  <anchor x="309" y="473" name="top"/>
  <outline>
    <contour>
      <point x="231" y="-13" type="curve" smooth="yes"/>
      <point x="407" y="-13"/>
      <point x="510" y="121"/>
      <point x="510" y="280" type="curve" smooth="yes"/>
      <point x="510" y="432"/>
      <point x="416" y="481"/>
      <point x="311" y="481" type="curve" smooth="yes"/>
      <point x="136" y="481"/>
      <point x="30" y="346"/>
      <point x="30" y="187" type="curve" smooth="yes"/>
      <point x="30" y="37"/>
      <point x="124" y="-13"/>
    </contour>
    <contour>
      <point x="241" y="35" type="curve" smooth="yes"/>
      <point x="194" y="35"/>
      <point x="181" y="91"/>
      <point x="181" y="169" type="curve" smooth="yes"/>
      <point x="181" y="319"/>
      <point x="228" y="434"/>
      <point x="298" y="434" type="curve" smooth="yes"/>
      <point x="346" y="434"/>
      <point x="359" y="379"/>
      <point x="359" y="302" type="curve" smooth="yes"/>
      <point x="359" y="151"/>
      <point x="309" y="35"/>
    </contour>
  </outline>
</glyph>
<glyph name="p" format="2">
  <advance width="582"/>
  <unicode hex="0070"/>
  <anchor x="150" y="-220" name="bottom"/>
  <anchor x="150" y="-220" name="cedilla"/>
  <anchor x="150" y="-220" name="ogonek"/>
  <anchor x="339" y="473" name="top"/>
  <outline>
    <contour>
      <point x="289" y="-11" type="curve" smooth="yes"/>
      <point x="428" y="-11"/>
      <point x="553" y="112"/>
      <point x="553" y="296" type="curve" smooth="yes"/>
      <point x="553" y="428"/>
      <point x="488" y="481"/>
      <point x="406" y="481" type="curve" smooth="yes"/>
      <point x="335" y="481"/>
      <point x="303" y="442"/>
      <point x="245" y="384" type="curve"/>
      <point x="243" y="298" type="line"/>
      <point x="261" y="353"/>
      <point x="297" y="411"/>
      <point x="349" y="411" type="curve" smooth="yes"/>
      <point x="377" y="411"/>
      <point x="405" y="394"/>
      <point x="405" y="291" type="curve" smooth="yes"/>
      <point x="405" y="150"/>
      <point x="352" y="43"/>
      <point x="274" y="43" type="curve" smooth="yes"/>
      <point x="241" y="43"/>
      <point x="213" y="63"/>
      <point x="191" y="84" type="curve"/>
      <point x="182" y="19" type="line"/>
      <point x="201" y="9"/>
      <point x="234" y="-11"/>
    </contour>
    <contour>
      <point x="256" y="-220" type="line"/>
      <point x="265" y="-178" type="line"/>
      <point x="185" y="-178"/>
      <point x="164" y="-152"/>
      <point x="164" y="-124" type="curve" smooth="yes"/>
      <point x="164" y="-116"/>
      <point x="166" y="-96"/>
      <point x="168" y="-86" type="curve" smooth="yes"/>
      <point x="265" y="398" type="line"/>
      <point x="252" y="398" type="line"/>
      <point x="268" y="474" type="line"/>
      <point x="226" y="474" type="line"/>
      <point x="58" y="459" type="line"/>
      <point x="58" y="419" type="line"/>
      <point x="58" y="419"/>
      <point x="74" y="421"/>
      <point x="87" y="421" type="curve" smooth="yes"/>
      <point x="115" y="421"/>
      <point x="125" y="412"/>
      <point x="125" y="392" type="curve" smooth="yes"/>
      <point x="125" y="385"/>
      <point x="124" y="379"/>
      <point x="123" y="373" type="curve"/>
      <point x="-4" y="-220" type="line"/>
    </contour>
  </outline>
</glyph>
<glyph name="q" format="2">
  <advance width="563"/>
  <unicode hex="0071"/>
  <anchor x="194" y="-220" name="bottom"/>
  <anchor x="195" y="-220" name="cedilla"/>
  <anchor x="194" y="-220" name="ogonek"/>
  <anchor x="312" y="473" name="top"/>
  <outline>
    <contour>
      <point x="478" y="-220" type="line"/>
      <point x="483" y="-177" type="line"/>
      <point x="424" y="-177"/>
      <point x="414" y="-160"/>
      <point x="414" y="-126" type="curve" smooth="yes"/>
      <point x="414" y="-108"/>
      <point x="417" y="-94"/>
      <point x="417" y="-94" type="curve"/>
      <point x="531" y="474" type="line"/>
      <point x="457" y="474" type="line"/>
      <point x="427" y="434" type="line"/>
      <point x="421" y="434" type="line"/>
      <point x="400" y="456"/>
      <point x="365" y="481"/>
      <point x="302" y="481" type="curve" smooth="yes"/>
      <point x="159" y="481"/>
      <point x="27" y="351"/>
      <point x="27" y="170" type="curve" smooth="yes"/>
      <point x="27" y="64"/>
      <point x="72" y="-14"/>
      <point x="177" y="-14" type="curve" smooth="yes"/>
      <point x="229" y="-14"/>
      <point x="258" y="5"/>
      <point x="295" y="48" type="curve"/>
      <point x="306" y="48" type="line"/>
      <point x="243" y="-220" type="line"/>
    </contour>
    <contour>
      <point x="232" y="68" type="curve" smooth="yes"/>
      <point x="188" y="68"/>
      <point x="176" y="105"/>
      <point x="176" y="175" type="curve" smooth="yes"/>
      <point x="176" y="311"/>
      <point x="222" y="436"/>
      <point x="294" y="436" type="curve" smooth="yes"/>
      <point x="336" y="436"/>
      <point x="356" y="395"/>
      <point x="356" y="349" type="curve" smooth="yes"/>
      <point x="356" y="310"/>
      <point x="342" y="227"/>
      <point x="325" y="172" type="curve" smooth="yes"/>
      <point x="306" y="110"/>
      <point x="278" y="68"/>
    </contour>
  </outline>
</glyph>
<glyph name="r" format="2">
  <advance width="442"/>
  <unicode hex="0072"/>
  <anchor x="111" y="0" name="bottom"/>
  <anchor x="129" y="0" name="cedilla"/>
  <anchor x="129" y="0" name="ogonek"/>
  <anchor x="291" y="473" name="top"/>
  <outline>
    <contour>
      <point x="195" y="83" type="line"/>
      <point x="223" y="151"/>
      <point x="294" y="372"/>
      <point x="359" y="372" type="curve" smooth="yes"/>
      <point x="363" y="372"/>
      <point x="367" y="328"/>
      <point x="410" y="328" type="curve" smooth="yes"/>
      <point x="444" y="328"/>
      <point x="480" y="356"/>
      <point x="480" y="406" type="curve" smooth="yes"/>
      <point x="480" y="457"/>
      <point x="450" y="479"/>
      <point x="408" y="479" type="curve" smooth="yes"/>
      <point x="296" y="479"/>
      <point x="273" y="352"/>
      <point x="240" y="284" type="curve"/>
    </contour>
    <contour>
      <point x="186" y="0" type="line"/>
      <point x="249" y="296" type="line"/>
      <point x="232" y="296" type="line"/>
      <point x="271" y="476" type="line"/>
      <point x="220" y="476" type="line"/>
      <point x="60" y="465" type="line"/>
      <point x="60" y="423" type="line"/>
      <point x="60" y="423"/>
      <point x="80" y="425"/>
      <point x="91" y="425" type="curve" smooth="yes"/>
      <point x="118" y="425"/>
      <point x="124" y="414"/>
      <point x="124" y="395" type="curve" smooth="yes"/>
      <point x="124" y="377"/>
      <point x="119" y="354"/>
      <point x="115" y="333" type="curve"/>
      <point x="41" y="0" type="line"/>
    </contour>
  </outline>
</glyph>
<glyph name="s" format="2">
  <advance width="421"/>
  <unicode hex="0073"/>
  <anchor x="165" y="0" name="bottom"/>
  <anchor x="166" y="0" name="cedilla"/>
  <anchor x="195" y="0" name="ogonek"/>
  <anchor x="251" y="473" name="top"/>
  <outline>
    <contour>
      <point x="174" y="-16" type="curve" smooth="yes"/>
      <point x="275" y="-16"/>
      <point x="372" y="32"/>
      <point x="372" y="126" type="curve" smooth="yes"/>
      <point x="372" y="187"/>
      <point x="332" y="228"/>
      <point x="277" y="284" type="curve" smooth="yes"/>
      <point x="229" y="333"/>
      <point x="209" y="357"/>
      <point x="209" y="388" type="curve" smooth="yes"/>
      <point x="209" y="417"/>
      <point x="227" y="437"/>
      <point x="266" y="437" type="curve" smooth="yes"/>
      <point x="325" y="437"/>
      <point x="347" y="393"/>
      <point x="354" y="317" type="curve"/>
      <point x="394" y="317" type="line"/>
      <point x="416" y="479" type="line"/>
      <point x="384" y="479" type="line"/>
      <point x="358" y="450" type="line"/>
      <point x="353" y="450" type="line"/>
      <point x="323" y="470"/>
      <point x="278" y="481"/>
      <point x="234" y="481" type="curve" smooth="yes"/>
      <point x="142" y="481"/>
      <point x="76" y="433"/>
      <point x="76" y="353" type="curve" smooth="yes"/>
      <point x="76" y="293"/>
      <point x="113" y="255"/>
      <point x="164" y="201" type="curve" smooth="yes"/>
      <point x="212" y="151"/>
      <point x="236" y="126"/>
      <point x="236" y="90" type="curve" smooth="yes"/>
      <point x="236" y="53"/>
      <point x="210" y="31"/>
      <point x="166" y="31" type="curve" smooth="yes"/>
      <point x="98" y="31"/>
      <point x="83" y="85"/>
      <point x="73" y="175" type="curve"/>
      <point x="32" y="175" type="line"/>
      <point x="-5" y="-11" type="line"/>
      <point x="31" y="-11" type="line"/>
      <point x="50" y="14" type="line"/>
      <point x="56" y="14" type="line"/>
      <point x="89" y="-5"/>
      <point x="126" y="-16"/>
    </contour>
  </outline>
</glyph>
<glyph name="t" format="2">
  <advance width="344"/>
  <unicode hex="0074"/>
  <anchor x="155" y="0" name="bottom"/>
  <anchor x="155" y="0" name="cedilla"/>
  <anchor x="155" y="0" name="ogonek"/>
  <anchor x="247" y="563" name="top"/>
  <outline>
    <contour>
      <point x="138" y="-14" type="curve" smooth="yes"/>
      <point x="234" y="-14"/>
      <point x="285" y="49"/>
      <point x="314" y="89" type="curve"/>
      <point x="283" y="112" type="line"/>
      <point x="254" y="77"/>
      <point x="235" y="65"/>
      <point x="214" y="65" type="curve" smooth="yes"/>
      <point x="197" y="65"/>
      <point x="193" y="73"/>
      <point x="193" y="86" type="curve" smooth="yes"/>
      <point x="193" y="103"/>
      <point x="201" y="136"/>
      <point x="201" y="136" type="curve"/>
      <point x="298" y="593" type="line"/>
      <point x="236" y="593" type="line"/>
      <point x="176" y="512"/>
      <point x="146" y="490"/>
      <point x="69" y="459" type="curve"/>
      <point x="62" y="416" type="line"/>
      <point x="122" y="416" type="line"/>
      <point x="59" y="125" type="line" smooth="yes"/>
      <point x="54" y="102"/>
      <point x="51" y="81"/>
      <point x="51" y="64" type="curve" smooth="yes"/>
      <point x="51" y="5"/>
      <point x="86" y="-14"/>
    </contour>
    <contour>
      <point x="358" y="416" type="line"/>
      <point x="369" y="468" type="line"/>
      <point x="257" y="468" type="line"/>
      <point x="249" y="416" type="line"/>
    </contour>
  </outline>
</glyph>
<glyph name="v" format="2">
  <advance width="491"/>
  <unicode hex="0076"/>
  <anchor x="159" y="0" name="bottom"/>
  <anchor x="159" y="0" name="cedilla"/>
  <anchor x="159" y="0" name="ogonek"/>
  <anchor x="290" y="473" name="top"/>
  <outline>
    <contour>
      <point x="204" y="-8" type="line"/>
      <point x="344" y="76"/>
      <point x="482" y="195"/>
      <point x="482" y="375" type="curve" smooth="yes"/>
      <point x="482" y="445"/>
      <point x="461" y="485"/>
      <point x="407" y="485" type="curve" smooth="yes"/>
      <point x="374" y="485"/>
      <point x="347" y="470"/>
      <point x="347" y="433" type="curve" smooth="yes"/>
      <point x="347" y="381"/>
      <point x="399" y="377"/>
      <point x="399" y="298" type="curve" smooth="yes"/>
      <point x="399" y="206"/>
      <point x="327" y="139"/>
      <point x="233" y="65" type="curve"/>
      <point x="227" y="65" type="line"/>
      <point x="234" y="121" type="line"/>
      <point x="234" y="246"/>
      <point x="227" y="349"/>
      <point x="217" y="477" type="curve"/>
      <point x="137" y="477" type="line"/>
      <point x="4" y="463" type="line"/>
      <point x="4" y="420" type="line"/>
      <point x="17" y="422"/>
      <point x="26" y="423"/>
      <point x="36" y="423" type="curve" smooth="yes"/>
      <point x="70" y="423"/>
      <point x="75" y="412"/>
      <point x="80" y="364" type="curve" smooth="yes"/>
      <point x="92" y="249"/>
      <point x="99" y="99"/>
      <point x="99" y="-8" type="curve"/>
    </contour>
  </outline>
</glyph>
<glyph name="w" format="2">
  <advance width="789"/>
  <unicode hex="0077"/>
  <anchor x="324" y="0" name="bottom"/>
  <anchor x="324" y="0" name="cedilla"/>
  <anchor x="324" y="0" name="ogonek"/>
  <anchor x="446" y="473" name="top"/>
  <outline>
    <contour>
      <point x="239" y="-8" type="line"/>
      <point x="393" y="321" type="line"/>
      <point x="399" y="321" type="line"/>
      <point x="405" y="202"/>
      <point x="406" y="111"/>
      <point x="409" y="-8" type="curve"/>
      <point x="516" y="-8" type="line"/>
      <point x="653" y="74"/>
      <point x="776" y="193"/>
      <point x="776" y="373" type="curve" smooth="yes"/>
      <point x="776" y="445"/>
      <point x="756" y="485"/>
      <point x="701" y="485" type="curve" smooth="yes"/>
      <point x="670" y="485"/>
      <point x="641" y="472"/>
      <point x="641" y="432" type="curve" smooth="yes"/>
      <point x="641" y="379"/>
      <point x="693" y="383"/>
      <point x="693" y="294" type="curve" smooth="yes"/>
      <point x="693" y="207"/>
      <point x="644" y="143"/>
      <point x="546" y="67" type="curve"/>
      <point x="539" y="67" type="line"/>
      <point x="542" y="123" type="line"/>
      <point x="541" y="254"/>
      <point x="537" y="352"/>
      <point x="531" y="471" type="curve"/>
      <point x="408" y="471" type="line"/>
      <point x="236" y="90" type="line"/>
      <point x="229" y="90" type="line"/>
      <point x="235" y="147" type="line"/>
      <point x="235" y="272"/>
      <point x="227" y="349"/>
      <point x="217" y="477" type="curve"/>
      <point x="137" y="477" type="line"/>
      <point x="4" y="463" type="line"/>
      <point x="4" y="420" type="line"/>
      <point x="18" y="422"/>
      <point x="25" y="423"/>
      <point x="35" y="423" type="curve" smooth="yes"/>
      <point x="69" y="423"/>
      <point x="75" y="411"/>
      <point x="80" y="364" type="curve"/>
      <point x="90" y="234"/>
      <point x="98" y="143"/>
      <point x="99" y="-8" type="curve"/>
    </contour>
  </outline>
</glyph>
<glyph name="x" format="2">
  <advance width="512"/>
  <unicode hex="0078"/>
  <anchor x="206" y="0" name="bottom"/>
  <anchor x="206" y="0" name="cedilla"/>
  <anchor x="207" y="0" name="ogonek"/>
  <anchor x="307" y="473" name="top"/>
  <outline>
    <contour>
      <point x="336" y="-11" type="curve" smooth="yes"/>
      <point x="413" y="-11"/>
      <point x="467" y="78"/>
      <point x="495" y="123" type="curve"/>
      <point x="465" y="144" type="line"/>
      <point x="440" y="108"/>
      <point x="421" y="89"/>
      <point x="396" y="89" type="curve" smooth="yes"/>
      <point x="378" y="89"/>
      <point x="365" y="114"/>
      <point x="343" y="186" type="curve" smooth="yes"/>
      <point x="316" y="275" type="line"/>
      <point x="305" y="300" type="line"/>
      <point x="295" y="365" type="line"/>
      <point x="282" y="419"/>
      <point x="272" y="447"/>
      <point x="252" y="475" type="curve"/>
      <point x="170" y="475" type="line"/>
      <point x="33" y="459" type="line"/>
      <point x="33" y="415" type="line"/>
      <point x="33" y="415"/>
      <point x="48" y="418"/>
      <point x="62" y="418" type="curve"/>
      <point x="126" y="419"/>
      <point x="145" y="407"/>
      <point x="168" y="322" type="curve" smooth="yes"/>
      <point x="196" y="218" type="line"/>
      <point x="204" y="203" type="line"/>
      <point x="232" y="83" type="line" smooth="yes"/>
      <point x="247" y="17"/>
      <point x="274" y="-11"/>
    </contour>
    <contour>
      <point x="31" y="-11" type="curve" smooth="yes"/>
      <point x="95" y="-11"/>
      <point x="123" y="29"/>
      <point x="150" y="82" type="curve" smooth="yes"/>
      <point x="201" y="181" type="line"/>
      <point x="223" y="181" type="line"/>
      <point x="198" y="248" type="line"/>
      <point x="126" y="128" type="line" smooth="yes"/>
      <point x="105" y="94"/>
      <point x="94" y="85"/>
      <point x="75" y="85" type="curve" smooth="yes"/>
      <point x="57" y="85"/>
      <point x="34" y="97"/>
      <point x="11" y="97" type="curve" smooth="yes"/>
      <point x="-15" y="97"/>
      <point x="-35" y="75"/>
      <point x="-35" y="48" type="curve" smooth="yes"/>
      <point x="-35" y="17"/>
      <point x="-15" y="-11"/>
    </contour>
    <contour>
      <point x="376" y="350" type="line" smooth="yes"/>
      <point x="393" y="377"/>
      <point x="407" y="390"/>
      <point x="430" y="390" type="curve" smooth="yes"/>
      <point x="451" y="390"/>
      <point x="462" y="372"/>
      <point x="489" y="372" type="curve" smooth="yes"/>
      <point x="523" y="372"/>
      <point x="543" y="402"/>
      <point x="543" y="425" type="curve" smooth="yes"/>
      <point x="543" y="461"/>
      <point x="527" y="483"/>
      <point x="480" y="483" type="curve" smooth="yes"/>
      <point x="416" y="483"/>
      <point x="383" y="446"/>
      <point x="350" y="387" type="curve" smooth="yes"/>
      <point x="310" y="314" type="line"/>
      <point x="289" y="314" type="line"/>
      <point x="313" y="250" type="line"/>
    </contour>
  </outline>
</glyph>
<glyph name="y" format="2">
  <advance width="508"/>
  <unicode hex="0079"/>
  <anchor x="161" y="-220" name="bottom"/>
  <anchor x="161" y="-220" name="cedilla"/>
  <anchor x="161" y="-220" name="ogonek"/>
  <anchor x="279" y="473" name="top"/>
  <outline>
    <contour>
      <point x="13" y="-220" type="curve" smooth="yes"/>
      <point x="113" y="-220"/>
      <point x="171" y="-135"/>
      <point x="307" y="47" type="curve" smooth="yes"/>
      <point x="377" y="140"/>
      <point x="407" y="182"/>
      <point x="459" y="256" type="curve" smooth="yes"/>
      <point x="496" y="309"/>
      <point x="511" y="365"/>
      <point x="511" y="403" type="curve" smooth="yes"/>
      <point x="511" y="448"/>
      <point x="489" y="485"/>
      <point x="437" y="485" type="curve" smooth="yes"/>
      <point x="399" y="485"/>
      <point x="376" y="465"/>
      <point x="376" y="433" type="curve" smooth="yes"/>
      <point x="376" y="387"/>
      <point x="422" y="372"/>
      <point x="422" y="331" type="curve" smooth="yes"/>
      <point x="422" y="307"/>
      <point x="407" y="277"/>
      <point x="391" y="254" type="curve" smooth="yes"/>
      <point x="290" y="109" type="line"/>
      <point x="265" y="109" type="line"/>
      <point x="186" y="-9" type="line"/>
      <point x="145" y="-75"/>
      <point x="77" y="-159"/>
      <point x="49" y="-159" type="curve" smooth="yes"/>
      <point x="23" y="-159"/>
      <point x="13" y="-83"/>
      <point x="-47" y="-83" type="curve" smooth="yes"/>
      <point x="-79" y="-83"/>
      <point x="-104" y="-104"/>
      <point x="-104" y="-141" type="curve" smooth="yes"/>
      <point x="-104" y="-206"/>
      <point x="-28" y="-220"/>
    </contour>
    <contour>
      <point x="282" y="93" type="line"/>
      <point x="275" y="212" type="line"/>
      <point x="252" y="327" type="line" smooth="yes"/>
      <point x="236" y="407"/>
      <point x="228" y="437"/>
      <point x="203" y="475" type="curve"/>
      <point x="153" y="475" type="line"/>
      <point x="-9" y="464" type="line"/>
      <point x="-9" y="420" type="line"/>
      <point x="-9" y="420"/>
      <point x="13" y="422"/>
      <point x="25" y="422" type="curve" smooth="yes"/>
      <point x="85" y="422"/>
      <point x="91" y="375"/>
      <point x="102" y="324" type="curve" smooth="yes"/>
      <point x="179" y="-41" type="line"/>
    </contour>
  </outline>
</glyph>
<glyph name="z" format="2">
  <advance width="461"/>
  <unicode hex="007A"/>
  <anchor x="167" y="-40" name="bottom"/>
  <anchor x="177" y="-40" name="cedilla"/>
  <anchor x="207" y="-40" name="ogonek"/>
  <anchor x="267" y="473" name="top"/>
  <outline>
    <contour>
      <point x="328" y="-86" type="curve" smooth="yes"/>
      <point x="371" y="-86"/>
      <point x="466" y="-79"/>
      <point x="466" y="17" type="curve" smooth="yes"/>
      <point x="466" y="63"/>
      <point x="444" y="95"/>
      <point x="404" y="95" type="curve" smooth="yes"/>
      <point x="371" y="95"/>
      <point x="348" y="73"/>
      <point x="348" y="36" type="curve" smooth="yes"/>
      <point x="348" y="10"/>
      <point x="360" y="-7"/>
      <point x="360" y="-22" type="curve" smooth="yes"/>
      <point x="360" y="-34"/>
      <point x="351" y="-44"/>
      <point x="331" y="-44" type="curve" smooth="yes"/>
      <point x="254" y="-44"/>
      <point x="260" y="107"/>
      <point x="164" y="116" type="curve"/>
      <point x="164" y="124" type="line"/>
      <point x="465" y="410" type="line"/>
      <point x="465" y="468" type="line"/>
      <point x="84" y="468" type="line"/>
      <point x="43" y="281" type="line"/>
      <point x="90" y="281" type="line"/>
      <point x="112" y="333"/>
      <point x="124" y="359"/>
      <point x="164" y="359" type="curve" smooth="yes"/>
      <point x="316" y="359" type="line"/>
      <point x="316" y="351" type="line"/>
      <point x="-27" y="22" type="line"/>
      <point x="10" y="-18" type="line"/>
      <point x="34" y="2"/>
      <point x="52" y="10"/>
      <point x="78" y="10" type="curve" smooth="yes"/>
      <point x="169" y="10"/>
      <point x="167" y="-86"/>
    </contour>
  </outline>
</glyph>
<glyph name="braceleft" format="2">
  <advance width="376"/>
  <unicode hex="007B"/>
  <outline>
    <contour>
      <point x="253" y="-141" type="line"/>
      <point x="208" y="-141"/>
      <point x="172" y="-112"/>
      <point x="172" y="-60" type="curve" smooth="yes"/>
      <point x="172" y="16"/>
      <point x="236" y="137"/>
      <point x="236" y="174" type="curve" smooth="yes"/>
      <point x="236" y="227"/>
      <point x="209" y="256"/>
      <point x="160" y="268" type="curve"/>
      <point x="161" y="274" type="line"/>
      <point x="214" y="291"/>
      <point x="275" y="334"/>
      <point x="290" y="405" type="curve" smooth="yes"/>
      <point x="306" y="480"/>
      <point x="295" y="529"/>
      <point x="307" y="583" type="curve" smooth="yes"/>
      <point x="324" y="665"/>
      <point x="375" y="686"/>
      <point x="427" y="686" type="curve"/>
      <point x="438" y="732" type="line"/>
      <point x="299" y="732"/>
      <point x="171" y="679"/>
      <point x="171" y="506" type="curve" smooth="yes"/>
      <point x="171" y="491"/>
      <point x="172" y="456"/>
      <point x="172" y="440" type="curve" smooth="yes"/>
      <point x="172" y="317"/>
      <point x="115" y="303"/>
      <point x="63" y="301" type="curve"/>
      <point x="49" y="236" type="line"/>
      <point x="89" y="235"/>
      <point x="127" y="227"/>
      <point x="127" y="187" type="curve" smooth="yes"/>
      <point x="127" y="132"/>
      <point x="44" y="17"/>
      <point x="44" y="-58" type="curve" smooth="yes"/>
      <point x="44" y="-147"/>
      <point x="131" y="-186"/>
      <point x="242" y="-186" type="curve"/>
    </contour>
  </outline>
</glyph>
<glyph name="braceright" format="2">
  <advance width="377"/>
  <unicode hex="007D"/>
  <outline>
    <contour>
      <point x="-51" y="-186" type="line"/>
      <point x="88" y="-186"/>
      <point x="216" y="-133"/>
      <point x="216" y="40" type="curve" smooth="yes"/>
      <point x="216" y="55"/>
      <point x="215" y="90"/>
      <point x="215" y="106" type="curve" smooth="yes"/>
      <point x="215" y="229"/>
      <point x="272" y="243"/>
      <point x="324" y="245" type="curve"/>
      <point x="338" y="310" type="line"/>
      <point x="298" y="311"/>
      <point x="260" y="319"/>
      <point x="260" y="359" type="curve" smooth="yes"/>
      <point x="260" y="414"/>
      <point x="343" y="529"/>
      <point x="343" y="604" type="curve" smooth="yes"/>
      <point x="343" y="693"/>
      <point x="256" y="732"/>
      <point x="145" y="732" type="curve"/>
      <point x="134" y="687" type="line"/>
      <point x="179" y="687"/>
      <point x="215" y="658"/>
      <point x="215" y="606" type="curve" smooth="yes"/>
      <point x="215" y="530"/>
      <point x="151" y="409"/>
      <point x="151" y="372" type="curve" smooth="yes"/>
      <point x="151" y="319"/>
      <point x="178" y="290"/>
      <point x="227" y="278" type="curve"/>
      <point x="226" y="272" type="line"/>
      <point x="173" y="255"/>
      <point x="112" y="212"/>
      <point x="97" y="141" type="curve" smooth="yes"/>
      <point x="81" y="66"/>
      <point x="92" y="17"/>
      <point x="80" y="-37" type="curve" smooth="yes"/>
      <point x="63" y="-119"/>
      <point x="12" y="-140"/>
      <point x="-40" y="-140" type="curve"/>
    </contour>
  </outline>
</glyph>
<glyph name="asciitilde" format="2">
  <advance width="599"/>
  <unicode hex="007E"/>
  <outline>
    <contour>
      <point x="81" y="157" type="line"/>
      <point x="118" y="203"/>
      <point x="155" y="230"/>
      <point x="193" y="230" type="curve" smooth="yes"/>
      <point x="227" y="230"/>
      <point x="256" y="220"/>
      <point x="284" y="209" type="curve" smooth="yes"/>
      <point x="319" y="195"/>
      <point x="352" y="180"/>
      <point x="393" y="180" type="curve" smooth="yes"/>
      <point x="478" y="180"/>
      <point x="526" y="232"/>
      <point x="586" y="315" type="curve"/>
      <point x="527" y="354" type="line"/>
      <point x="490" y="308"/>
      <point x="453" y="283"/>
      <point x="415" y="283" type="curve" smooth="yes"/>
      <point x="379" y="283"/>
      <point x="348" y="295"/>
      <point x="318" y="307" type="curve" smooth="yes"/>
      <point x="286" y="320"/>
      <point x="253" y="333"/>
      <point x="215" y="333" type="curve" smooth="yes"/>
      <point x="130" y="333"/>
      <point x="82" y="281"/>
      <point x="22" y="198" type="curve"/>
    </contour>
  </outline>
</glyph>
<glyph name="exclamdown" format="2">
  <advance width="326"/>
  <unicode hex="00A1"/>
  <outline>
    <contour>
      <point x="73" y="-196" type="curve" smooth="yes"/>
      <point x="139" y="-196"/>
      <point x="158" y="-167"/>
      <point x="166" y="-130" type="curve" smooth="yes"/>
      <point x="169" y="-114"/>
      <point x="171" y="-93"/>
      <point x="174" y="-65" type="curve"/>
      <point x="201" y="280" type="line"/>
      <point x="146" y="280" type="line"/>
      <point x="26" y="-59" type="line" smooth="yes"/>
      <point x="14" y="-93"/>
      <point x="3" y="-128"/>
      <point x="3" y="-143" type="curve" smooth="yes"/>
      <point x="3" y="-174"/>
      <point x="22" y="-196"/>
    </contour>
    <contour>
      <point x="187" y="334" type="curve" smooth="yes"/>
      <point x="238" y="334"/>
      <point x="265" y="364"/>
      <point x="265" y="410" type="curve" smooth="yes"/>
      <point x="265" y="453"/>
      <point x="238" y="483"/>
      <point x="187" y="483" type="curve" smooth="yes"/>
      <point x="138" y="483"/>
      <point x="110" y="453"/>
      <point x="110" y="409" type="curve" smooth="yes"/>
      <point x="110" y="364"/>
      <point x="139" y="334"/>
    </contour>
  </outline>
</glyph>
<glyph name="cent" format="2">
  <advance width="495"/>
  <unicode hex="00A2"/>
  <outline>
    <contour>
      <point x="209" y="75" type="curve" smooth="yes"/>
      <point x="324" y="75"/>
      <point x="394" y="113"/>
      <point x="480" y="235" type="curve"/>
      <point x="451" y="255" type="line"/>
      <point x="401" y="205"/>
      <point x="362" y="184"/>
      <point x="292" y="184" type="curve" smooth="yes"/>
      <point x="211" y="184"/>
      <point x="185" y="218"/>
      <point x="185" y="296" type="curve" smooth="yes"/>
      <point x="185" y="405"/>
      <point x="254" y="524"/>
      <point x="319" y="524" type="curve"/>
      <point x="351" y="484" type="line"/>
      <point x="372" y="484" type="line"/>
      <point x="378" y="449"/>
      <point x="389" y="397"/>
      <point x="438" y="397" type="curve" smooth="yes"/>
      <point x="484" y="397"/>
      <point x="512" y="418"/>
      <point x="512" y="474" type="curve" smooth="yes"/>
      <point x="512" y="530"/>
      <point x="453" y="572"/>
      <point x="355" y="572" type="curve" smooth="yes"/>
      <point x="144" y="572"/>
      <point x="34" y="422"/>
      <point x="34" y="254" type="curve" smooth="yes"/>
      <point x="34" y="136"/>
      <point x="100" y="75"/>
    </contour>
    <contour>
      <point x="225" y="-32" type="line"/>
      <point x="415" y="657" type="line"/>
      <point x="356" y="657" type="line"/>
      <point x="166" y="-32" type="line"/>
    </contour>
  </outline>
</glyph>
<glyph name="sterling" format="2">
  <advance width="495"/>
  <unicode hex="00A3"/>
  <outline>
    <contour>
      <point x="218" y="111" type="line"/>
      <point x="253" y="172"/>
      <point x="291" y="241"/>
      <point x="295" y="338" type="curve" smooth="yes"/>
      <point x="297" y="371"/>
      <point x="298" y="437"/>
      <point x="311" y="493" type="curve" smooth="yes"/>
      <point x="323" y="545"/>
      <point x="344" y="589"/>
      <point x="383" y="589" type="curve" smooth="yes"/>
      <point x="443" y="589"/>
      <point x="401" y="494"/>
      <point x="480" y="494" type="curve" smooth="yes"/>
      <point x="512" y="494"/>
      <point x="538" y="517"/>
      <point x="538" y="556" type="curve" smooth="yes"/>
      <point x="538" y="617"/>
      <point x="486" y="644"/>
      <point x="411" y="644" type="curve" smooth="yes"/>
      <point x="270" y="644"/>
      <point x="187" y="547"/>
      <point x="162" y="427" type="curve" smooth="yes"/>
      <point x="155" y="395"/>
      <point x="154" y="374"/>
      <point x="150" y="329" type="curve" smooth="yes"/>
      <point x="141" y="228"/>
      <point x="141" y="202"/>
      <point x="124" y="128" type="curve"/>
    </contour>
    <contour>
      <point x="35" y="-8" type="curve" smooth="yes"/>
      <point x="90" y="-8"/>
      <point x="126" y="6"/>
      <point x="176" y="58" type="curve"/>
      <point x="100" y="93" type="line"/>
      <point x="100" y="75" type="line"/>
      <point x="85" y="48"/>
      <point x="68" y="35"/>
      <point x="49" y="35" type="curve" smooth="yes"/>
      <point x="36" y="35"/>
      <point x="24" y="41"/>
      <point x="24" y="62" type="curve" smooth="yes"/>
      <point x="24" y="87"/>
      <point x="41" y="99"/>
      <point x="61" y="99" type="curve" smooth="yes"/>
      <point x="84" y="99"/>
      <point x="96" y="83"/>
      <point x="112" y="62" type="curve"/>
      <point x="143" y="55" type="line"/>
      <point x="203" y="15"/>
      <point x="219" y="-6"/>
      <point x="281" y="-6" type="curve" smooth="yes"/>
      <point x="375" y="-6"/>
      <point x="429" y="66"/>
      <point x="472" y="150" type="curve"/>
      <point x="442" y="169" type="line"/>
      <point x="388" y="122"/>
      <point x="359" y="102"/>
      <point x="306" y="102" type="curve" smooth="yes"/>
      <point x="261" y="102"/>
      <point x="150" y="154"/>
      <point x="77" y="154" type="curve" smooth="yes"/>
      <point x="19" y="154"/>
      <point x="-34" y="126"/>
      <point x="-34" y="55" type="curve" smooth="yes"/>
      <point x="-34" y="24"/>
      <point x="-12" y="-8"/>
    </contour>
    <contour>
      <point x="413" y="304" type="line"/>
      <point x="423" y="357" type="line"/>
      <point x="63" y="357" type="line"/>
      <point x="54" y="304" type="line"/>
    </contour>
  </outline>
</glyph>
<glyph name="yen" format="2">
  <advance width="495"/>
  <unicode hex="00A5"/>
  <outline>
    <contour>
      <point x="358" y="0" type="line"/>
      <point x="367" y="40" type="line"/>
      <point x="313" y="40"/>
      <point x="290" y="42"/>
      <point x="290" y="80" type="curve" smooth="yes"/>
      <point x="290" y="93"/>
      <point x="293" y="110"/>
      <point x="298" y="133" type="curve" smooth="yes"/>
      <point x="331" y="287" type="line"/>
      <point x="475" y="495" type="line" smooth="yes"/>
      <point x="527" y="570"/>
      <point x="542" y="588"/>
      <point x="590" y="590" type="curve"/>
      <point x="599" y="630" type="line"/>
      <point x="417" y="630" type="line"/>
      <point x="408" y="590" type="line"/>
      <point x="440" y="589"/>
      <point x="454" y="582"/>
      <point x="454" y="566" type="curve" smooth="yes"/>
      <point x="454" y="555"/>
      <point x="447" y="541"/>
      <point x="434" y="523" type="curve"/>
      <point x="320" y="353" type="line"/>
      <point x="314" y="353" type="line"/>
      <point x="304" y="408" type="line"/>
      <point x="269" y="508" type="line" smooth="yes"/>
      <point x="264" y="523"/>
      <point x="259" y="543"/>
      <point x="259" y="558" type="curve" smooth="yes"/>
      <point x="259" y="573"/>
      <point x="272" y="591"/>
      <point x="317" y="591" type="curve"/>
      <point x="325" y="630" type="line"/>
      <point x="63" y="630" type="line"/>
      <point x="55" y="591" type="line"/>
      <point x="88" y="591"/>
      <point x="87" y="576"/>
      <point x="124" y="480" type="curve" smooth="yes"/>
      <point x="197" y="290" type="line"/>
      <point x="163" y="133" type="line" smooth="yes"/>
      <point x="144" y="43"/>
      <point x="137" y="40"/>
      <point x="60" y="40" type="curve"/>
      <point x="51" y="0" type="line"/>
    </contour>
    <contour>
      <point x="430" y="142" type="line"/>
      <point x="442" y="197" type="line"/>
      <point x="45" y="197" type="line"/>
      <point x="33" y="142" type="line"/>
    </contour>
    <contour>
      <point x="453" y="250" type="line"/>
      <point x="465" y="305" type="line"/>
      <point x="68" y="305" type="line"/>
      <point x="56" y="250" type="line"/>
    </contour>
  </outline>
</glyph>
<glyph name="section" format="2">
  <advance width="491"/>
  <unicode hex="00A7"/>
  <outline>
    <contour>
      <point x="131" y="-208" type="curve" smooth="yes"/>
      <point x="233" y="-208"/>
      <point x="361" y="-163"/>
      <point x="361" y="-42" type="curve" smooth="yes"/>
      <point x="361" y="10"/>
      <point x="329" y="48"/>
      <point x="299" y="83" type="curve"/>
      <point x="304" y="99" type="line"/>
      <point x="280" y="109" type="line"/>
      <point x="229" y="160"/>
      <point x="170" y="200"/>
      <point x="170" y="254" type="curve" smooth="yes"/>
      <point x="170" y="280"/>
      <point x="189" y="313"/>
      <point x="222" y="330" type="curve"/>
      <point x="191" y="353" type="line"/>
      <point x="122" y="322"/>
      <point x="60" y="284"/>
      <point x="60" y="193" type="curve" smooth="yes"/>
      <point x="60" y="51"/>
      <point x="241" y="-4"/>
      <point x="241" y="-93" type="curve" smooth="yes"/>
      <point x="241" y="-147"/>
      <point x="184" y="-167"/>
      <point x="140" y="-167" type="curve" smooth="yes"/>
      <point x="106" y="-167"/>
      <point x="85" y="-154"/>
      <point x="85" y="-134" type="curve" smooth="yes"/>
      <point x="85" y="-110"/>
      <point x="113" y="-98"/>
      <point x="113" y="-64" type="curve" smooth="yes"/>
      <point x="113" y="-34"/>
      <point x="94" y="-22"/>
      <point x="68" y="-22" type="curve" smooth="yes"/>
      <point x="24" y="-22"/>
      <point x="-4" y="-59"/>
      <point x="-4" y="-107" type="curve" smooth="yes"/>
      <point x="-4" y="-165"/>
      <point x="46" y="-208"/>
    </contour>
    <contour>
      <point x="292" y="85" type="line"/>
      <point x="360" y="115"/>
      <point x="444" y="154"/>
      <point x="444" y="251" type="curve" smooth="yes"/>
      <point x="444" y="390"/>
      <point x="236" y="439"/>
      <point x="236" y="536" type="curve" smooth="yes"/>
      <point x="236" y="589"/>
      <point x="277" y="611"/>
      <point x="324" y="611" type="curve" smooth="yes"/>
      <point x="358" y="611"/>
      <point x="383" y="598"/>
      <point x="383" y="577" type="curve" smooth="yes"/>
      <point x="383" y="555"/>
      <point x="355" y="542"/>
      <point x="355" y="502" type="curve" smooth="yes"/>
      <point x="355" y="478"/>
      <point x="375" y="466"/>
      <point x="400" y="466" type="curve" smooth="yes"/>
      <point x="444" y="466"/>
      <point x="472" y="503"/>
      <point x="472" y="549" type="curve" smooth="yes"/>
      <point x="472" y="609"/>
      <point x="418" y="652"/>
      <point x="333" y="652" type="curve" smooth="yes"/>
      <point x="227" y="652"/>
      <point x="124" y="605"/>
      <point x="124" y="481" type="curve" smooth="yes"/>
      <point x="124" y="428"/>
      <point x="150" y="390"/>
      <point x="183" y="355" type="curve"/>
      <point x="180" y="339" type="line"/>
      <point x="204" y="331" type="line"/>
      <point x="257" y="283"/>
      <point x="317" y="238"/>
      <point x="317" y="183" type="curve" smooth="yes"/>
      <point x="317" y="157"/>
      <point x="306" y="135"/>
      <point x="258" y="109" type="curve"/>
    </contour>
  </outline>
</glyph>
<glyph name="copyright" format="2">
  <advance width="781"/>
  <unicode hex="00A9"/>
  <outline>
    <contour>
      <point x="409" y="-14" type="curve" smooth="yes"/>
      <point x="606" y="-14"/>
      <point x="746" y="129"/>
      <point x="746" y="330" type="curve" smooth="yes"/>
      <point x="746" y="532"/>
      <point x="606" y="676"/>
      <point x="409" y="676" type="curve" smooth="yes"/>
      <point x="214" y="676"/>
      <point x="75" y="532"/>
      <point x="75" y="330" type="curve" smooth="yes"/>
      <point x="75" y="129"/>
      <point x="214" y="-14"/>
    </contour>
    <contour>
      <point x="417" y="141" type="curve" smooth="yes"/>
      <point x="500" y="141"/>
      <point x="549" y="184"/>
      <point x="579" y="228" type="curve"/>
      <point x="557" y="246" type="line"/>
      <point x="523" y="212"/>
      <point x="494" y="202"/>
      <point x="437" y="202" type="curve" smooth="yes"/>
      <point x="362" y="202"/>
      <point x="328" y="250"/>
      <point x="328" y="338" type="curve" smooth="yes"/>
      <point x="328" y="425"/>
      <point x="345" y="481"/>
      <point x="420" y="481" type="curve" smooth="yes"/>
      <point x="482" y="481"/>
      <point x="516" y="455"/>
      <point x="529" y="388" type="curve"/>
      <point x="563" y="388" type="line"/>
      <point x="563" y="522" type="line"/>
      <point x="539" y="522" type="line"/>
      <point x="528" y="509"/>
      <point x="523" y="504"/>
      <point x="518" y="504" type="curve" smooth="yes"/>
      <point x="502" y="504"/>
      <point x="484" y="523"/>
      <point x="422" y="523" type="curve" smooth="yes"/>
      <point x="293" y="523"/>
      <point x="221" y="450"/>
      <point x="221" y="329" type="curve" smooth="yes"/>
      <point x="221" y="206"/>
      <point x="290" y="141"/>
    </contour>
    <contour>
      <point x="409" y="19" type="curve" smooth="yes"/>
      <point x="232" y="19"/>
      <point x="113" y="148"/>
      <point x="113" y="330" type="curve" smooth="yes"/>
      <point x="113" y="514"/>
      <point x="232" y="643"/>
      <point x="409" y="643" type="curve" smooth="yes"/>
      <point x="588" y="643"/>
      <point x="708" y="514"/>
      <point x="708" y="330" type="curve" smooth="yes"/>
      <point x="708" y="148"/>
      <point x="588" y="19"/>
    </contour>
  </outline>
</glyph>
<glyph name="logicalnot" format="2">
  <advance width="672"/>
  <unicode hex="00AC"/>
  <outline>
    <contour>
      <point x="611" y="106" type="line"/>
      <point x="611" y="414" type="line"/>
      <point x="71" y="414" type="line"/>
      <point x="71" y="323" type="line"/>
      <point x="519" y="323" type="line"/>
      <point x="519" y="106" type="line"/>
    </contour>
  </outline>
</glyph>
<glyph name="degree" format="2">
  <advance width="406"/>
  <unicode hex="00B0"/>
  <outline>
    <contour>
      <point x="256" y="389" type="curve" smooth="yes"/>
      <point x="343" y="389"/>
      <point x="412" y="448"/>
      <point x="412" y="546" type="curve" smooth="yes"/>
      <point x="412" y="638"/>
      <point x="343" y="702"/>
      <point x="258" y="702" type="curve" smooth="yes"/>
      <point x="168" y="702"/>
      <point x="99" y="639"/>
      <point x="99" y="547" type="curve" smooth="yes"/>
      <point x="99" y="445"/>
      <point x="167" y="389"/>
    </contour>
    <contour>
      <point x="256" y="443" type="curve" smooth="yes"/>
      <point x="203" y="443"/>
      <point x="163" y="487"/>
      <point x="163" y="546" type="curve" smooth="yes"/>
      <point x="163" y="607"/>
      <point x="203" y="648"/>
      <point x="254" y="648" type="curve" smooth="yes"/>
      <point x="307" y="648"/>
      <point x="348" y="607"/>
      <point x="348" y="547" type="curve" smooth="yes"/>
      <point x="348" y="486"/>
      <point x="308" y="443"/>
    </contour>
  </outline>
</glyph>
<glyph name="plusminus" format="2">
  <advance width="752"/>
  <unicode hex="00B1"/>
  <outline>
    <contour>
      <point x="424" y="119" type="line"/>
      <point x="424" y="314" type="line"/>
      <point x="686" y="314" type="line"/>
      <point x="686" y="404" type="line"/>
      <point x="424" y="404" type="line"/>
      <point x="424" y="599" type="line"/>
      <point x="328" y="599" type="line"/>
      <point x="328" y="404" type="line"/>
      <point x="66" y="404" type="line"/>
      <point x="66" y="314" type="line"/>
      <point x="328" y="314" type="line"/>
      <point x="328" y="119" type="line"/>
    </contour>
    <contour>
      <point x="686" y="-43" type="line"/>
      <point x="686" y="47" type="line"/>
      <point x="66" y="47" type="line"/>
      <point x="66" y="-43" type="line"/>
    </contour>
  </outline>
</glyph>
<glyph name="twosuperior" format="2">
  <advance width="387"/>
  <unicode hex="00B2"/>
  <anchor x="199" y="252" name="bottom"/>
  <anchor x="198" y="252" name="cedilla"/>
  <anchor x="199" y="252" name="ogonek"/>
  <anchor x="289" y="726" name="top"/>
  <outline>
    <contour>
      <point x="342" y="252" type="line"/>
      <point x="398" y="401" type="line"/>
      <point x="361" y="401" type="line"/>
      <point x="332" y="355"/>
      <point x="321" y="338"/>
      <point x="278" y="338" type="curve" smooth="yes"/>
      <point x="191" y="338" type="line"/>
      <point x="133" y="335" type="line"/>
      <point x="134" y="340" type="line"/>
      <point x="247" y="415" type="line" smooth="yes"/>
      <point x="375" y="500"/>
      <point x="433" y="537"/>
      <point x="433" y="631" type="curve" smooth="yes"/>
      <point x="433" y="698"/>
      <point x="386" y="738"/>
      <point x="299" y="738" type="curve" smooth="yes"/>
      <point x="205" y="738"/>
      <point x="140" y="687"/>
      <point x="100" y="617" type="curve"/>
      <point x="125" y="603" type="line"/>
      <point x="162" y="645"/>
      <point x="194" y="665"/>
      <point x="245" y="665" type="curve" smooth="yes"/>
      <point x="284" y="665"/>
      <point x="308" y="645"/>
      <point x="308" y="610" type="curve" smooth="yes"/>
      <point x="308" y="535"/>
      <point x="271" y="505"/>
      <point x="150" y="402" type="curve" smooth="yes"/>
      <point x="37" y="305" type="line"/>
      <point x="26" y="252" type="line"/>
    </contour>
  </outline>
</glyph>
<glyph name="threesuperior" format="2">
  <advance width="382"/>
  <unicode hex="00B3"/>
  <anchor x="197" y="252" name="bottom"/>
  <anchor x="195" y="252" name="cedilla"/>
  <anchor x="197" y="252" name="ogonek"/>
  <anchor x="293" y="726" name="top"/>
  <outline>
    <contour>
      <point x="133" y="243" type="curve" smooth="yes"/>
      <point x="268" y="243"/>
      <point x="400" y="298"/>
      <point x="400" y="418" type="curve" smooth="yes"/>
      <point x="400" y="474"/>
      <point x="359" y="507"/>
      <point x="295" y="519" type="curve"/>
      <point x="295" y="524" type="line"/>
      <point x="365" y="550"/>
      <point x="425" y="582"/>
      <point x="425" y="651" type="curve" smooth="yes"/>
      <point x="425" y="703"/>
      <point x="382" y="741"/>
      <point x="300" y="741" type="curve" smooth="yes"/>
      <point x="230" y="741"/>
      <point x="167" y="709"/>
      <point x="120" y="643" type="curve"/>
      <point x="142" y="627" type="line"/>
      <point x="170" y="657"/>
      <point x="205" y="674"/>
      <point x="242" y="674" type="curve" smooth="yes"/>
      <point x="278" y="674"/>
      <point x="305" y="661"/>
      <point x="305" y="628" type="curve" smooth="yes"/>
      <point x="305" y="561"/>
      <point x="226" y="528"/>
      <point x="168" y="528" type="curve" smooth="yes"/>
      <point x="152" y="528" type="line"/>
      <point x="142" y="482" type="line"/>
      <point x="159" y="482" type="line" smooth="yes"/>
      <point x="226" y="482"/>
      <point x="280" y="459"/>
      <point x="280" y="394" type="curve" smooth="yes"/>
      <point x="280" y="302"/>
      <point x="228" y="286"/>
      <point x="186" y="286" type="curve" smooth="yes"/>
      <point x="143" y="286"/>
      <point x="134" y="339"/>
      <point x="93" y="339" type="curve" smooth="yes"/>
      <point x="59" y="339"/>
      <point x="43" y="313"/>
      <point x="43" y="290" type="curve" smooth="yes"/>
      <point x="43" y="262"/>
      <point x="65" y="243"/>
    </contour>
  </outline>
</glyph>
<glyph name="micro" format="2">
  <advance width="582"/>
  <unicode hex="00B5"/>
  <outline>
    <contour>
      <point x="168" y="-191" type="line"/>
      <point x="156" y="-73"/>
      <point x="151" y="-7"/>
      <point x="150" y="74" type="curve"/>
      <point x="157" y="74" type="line"/>
      <point x="173" y="46"/>
      <point x="201" y="-13"/>
      <point x="269" y="-13" type="curve" smooth="yes"/>
      <point x="318" y="-13"/>
      <point x="364" y="25"/>
      <point x="379" y="163" type="curve"/>
      <point x="389" y="163" type="line"/>
      <point x="396" y="90"/>
      <point x="388" y="-10"/>
      <point x="472" y="-10" type="curve" smooth="yes"/>
      <point x="543" y="-10"/>
      <point x="586" y="57"/>
      <point x="605" y="115" type="curve"/>
      <point x="581" y="131" type="line"/>
      <point x="564" y="112"/>
      <point x="552" y="93"/>
      <point x="508" y="93" type="curve" smooth="yes"/>
      <point x="453" y="93"/>
      <point x="447" y="140"/>
      <point x="443" y="217" type="curve"/>
      <point x="486" y="446" type="line"/>
      <point x="470" y="472" type="line"/>
      <point x="355" y="469" type="line"/>
      <point x="351" y="268" type="line" smooth="yes"/>
      <point x="350" y="232"/>
      <point x="330" y="124"/>
      <point x="250" y="124" type="curve" smooth="yes"/>
      <point x="186" y="124"/>
      <point x="163" y="140"/>
      <point x="163" y="200" type="curve" smooth="yes"/>
      <point x="163" y="212"/>
      <point x="165" y="227"/>
      <point x="165" y="227" type="curve"/>
      <point x="206" y="444" type="line"/>
      <point x="190" y="472" type="line"/>
      <point x="70" y="469" type="line"/>
      <point x="71" y="149" type="line"/>
      <point x="48" y="17"/>
      <point x="41" y="-74"/>
      <point x="40" y="-214" type="curve"/>
      <point x="74" y="-217" type="line"/>
    </contour>
  </outline>
</glyph>
<glyph name="paragraph" format="2">
  <advance width="705"/>
  <unicode hex="00B6"/>
  <outline>
    <contour>
      <point x="556" y="-179" type="line"/>
      <point x="565" y="-136" type="line"/>
      <point x="483" y="-136"/>
      <point x="478" y="-119"/>
      <point x="490" y="-62" type="curve" smooth="yes"/>
      <point x="615" y="529" type="line"/>
      <point x="629" y="591"/>
      <point x="646" y="614"/>
      <point x="725" y="614" type="curve"/>
      <point x="734" y="657" type="line"/>
      <point x="394" y="657" type="line" smooth="yes"/>
      <point x="184" y="657"/>
      <point x="90" y="559"/>
      <point x="90" y="402" type="curve" smooth="yes"/>
      <point x="90" y="288"/>
      <point x="171" y="240"/>
      <point x="283" y="225" type="curve"/>
      <point x="292" y="279" type="line"/>
      <point x="242" y="285"/>
      <point x="217" y="324"/>
      <point x="217" y="395" type="curve" smooth="yes"/>
      <point x="217" y="529"/>
      <point x="287" y="601"/>
      <point x="365" y="608" type="curve"/>
      <point x="525" y="608" type="line"/>
      <point x="358" y="-179" type="line"/>
    </contour>
    <contour>
      <point x="288" y="-179" type="line"/>
      <point x="458" y="624" type="line"/>
      <point x="351" y="621" type="line"/>
      <point x="208" y="-50" type="line" smooth="yes"/>
      <point x="194" y="-119"/>
      <point x="182" y="-136"/>
      <point x="99" y="-136" type="curve"/>
      <point x="90" y="-179" type="line"/>
    </contour>
  </outline>
</glyph>
<glyph name="onesuperior" format="2">
  <advance width="362"/>
  <unicode hex="00B9"/>
  <anchor x="197" y="252" name="bottom"/>
  <anchor x="196" y="252" name="cedilla"/>
  <anchor x="197" y="254" name="ogonek"/>
  <anchor x="286" y="726" name="top"/>
  <outline>
    <contour>
      <point x="347" y="252" type="line"/>
      <point x="354" y="289" type="line"/>
      <point x="286" y="289"/>
      <point x="267" y="301"/>
      <point x="275" y="338" type="curve"/>
      <point x="353" y="735" type="line"/>
      <point x="276" y="735" type="line"/>
      <point x="134" y="699" type="line"/>
      <point x="125" y="659" type="line"/>
      <point x="144" y="663"/>
      <point x="178" y="669"/>
      <point x="194" y="669" type="curve" smooth="yes"/>
      <point x="215" y="669"/>
      <point x="220" y="657"/>
      <point x="214" y="631" type="curve" smooth="yes"/>
      <point x="152" y="338" type="line" smooth="yes"/>
      <point x="144" y="301"/>
      <point x="122" y="289"/>
      <point x="52" y="289" type="curve"/>
      <point x="45" y="252" type="line"/>
    </contour>
  </outline>
</glyph>
<glyph name="questiondown" format="2">
  <advance width="461"/>
  <unicode hex="00BF"/>
  <outline>
    <contour>
      <point x="150" y="-200" type="curve" smooth="yes"/>
      <point x="272" y="-200"/>
      <point x="379" y="-133"/>
      <point x="379" y="-41" type="curve" smooth="yes"/>
      <point x="379" y="2"/>
      <point x="355" y="25"/>
      <point x="319" y="25" type="curve" smooth="yes"/>
      <point x="287" y="25"/>
      <point x="247" y="6"/>
      <point x="247" y="-43" type="curve" smooth="yes"/>
      <point x="247" y="-66"/>
      <point x="256" y="-73"/>
      <point x="256" y="-92" type="curve" smooth="yes"/>
      <point x="256" y="-128"/>
      <point x="226" y="-155"/>
      <point x="185" y="-155" type="curve" smooth="yes"/>
      <point x="145" y="-155"/>
      <point x="120" y="-129"/>
      <point x="120" y="-55" type="curve" smooth="yes"/>
      <point x="120" y="111"/>
      <point x="248" y="122"/>
      <point x="277" y="252" type="curve" smooth="yes"/>
      <point x="283" y="279" type="line"/>
      <point x="221" y="279" type="line"/>
      <point x="218" y="263" type="line" smooth="yes"/>
      <point x="196" y="147"/>
      <point x="-20" y="132"/>
      <point x="-20" y="-51" type="curve" smooth="yes"/>
      <point x="-20" y="-155"/>
      <point x="50" y="-200"/>
    </contour>
    <contour>
      <point x="264" y="333" type="curve" smooth="yes"/>
      <point x="315" y="333"/>
      <point x="342" y="363"/>
      <point x="342" y="409" type="curve" smooth="yes"/>
      <point x="342" y="452"/>
      <point x="315" y="482"/>
      <point x="264" y="482" type="curve" smooth="yes"/>
      <point x="215" y="482"/>
      <point x="187" y="452"/>
      <point x="187" y="408" type="curve" smooth="yes"/>
      <point x="187" y="363"/>
      <point x="216" y="333"/>
    </contour>
  </outline>
</glyph>
<glyph name="AE" format="2">
  <advance width="971"/>
  <unicode hex="00C6"/>
  <anchor x="436" y="0" name="bottom"/>
  <anchor x="436" y="0" name="cedilla"/>
  <anchor x="764" y="0" name="ogonek"/>
  <anchor x="718" y="657" name="top"/>
  <outline>
    <contour>
      <point x="176" y="0" type="line"/>
      <point x="185" y="43" type="line"/>
      <point x="143" y="43"/>
      <point x="123" y="49"/>
      <point x="123" y="72" type="curve" smooth="yes"/>
      <point x="123" y="95"/>
      <point x="138" y="117"/>
      <point x="151" y="132" type="curve"/>
      <point x="296" y="314" type="line"/>
      <point x="314" y="342" type="line"/>
      <point x="514" y="594" type="line"/>
      <point x="522" y="594" type="line"/>
      <point x="427" y="158" type="line"/>
      <point x="404" y="56"/>
      <point x="395" y="43"/>
      <point x="301" y="43" type="curve"/>
      <point x="292" y="0" type="line"/>
      <point x="866" y="0" type="line"/>
      <point x="932" y="197" type="line"/>
      <point x="885" y="197" type="line"/>
      <point x="825" y="80"/>
      <point x="802" y="61"/>
      <point x="671" y="61" type="curve" smooth="yes"/>
      <point x="551" y="61" type="line"/>
      <point x="668" y="594" type="line"/>
      <point x="794" y="594" type="line" smooth="yes"/>
      <point x="891" y="594"/>
      <point x="917" y="576"/>
      <point x="910" y="476" type="curve"/>
      <point x="960" y="476" type="line"/>
      <point x="992" y="657" type="line"/>
      <point x="377" y="657" type="line"/>
      <point x="368" y="615" type="line"/>
      <point x="405" y="615"/>
      <point x="428" y="612"/>
      <point x="428" y="590" type="curve" smooth="yes"/>
      <point x="428" y="574"/>
      <point x="418" y="560"/>
      <point x="404" y="542" type="curve" smooth="yes"/>
      <point x="85" y="147" type="line"/>
      <point x="26" y="72"/>
      <point x="-2" y="43"/>
      <point x="-59" y="43" type="curve"/>
      <point x="-69" y="0" type="line"/>
    </contour>
    <contour>
      <point x="823" y="212" type="line"/>
      <point x="874" y="440" type="line"/>
      <point x="825" y="440" type="line"/>
      <point x="808" y="360"/>
      <point x="786" y="355"/>
      <point x="692" y="355" type="curve" smooth="yes"/>
      <point x="308" y="355" type="line"/>
      <point x="270" y="301" type="line"/>
      <point x="680" y="301" type="line" smooth="yes"/>
      <point x="775" y="301"/>
      <point x="793" y="292"/>
      <point x="775" y="212" type="curve"/>
    </contour>
  </outline>
</glyph>
<glyph name="Eth" format="2">
  <advance width="759"/>
  <unicode hex="00D0"/>
  <anchor x="278" y="0" name="bottom"/>
  <anchor x="273" y="0" name="cedilla"/>
  <anchor x="271" y="0" name="ogonek"/>
  <anchor x="417" y="657" name="top"/>
  <outline>
    <contour>
      <point x="272" y="0" type="line" smooth="yes"/>
      <point x="523" y="0"/>
      <point x="737" y="103"/>
      <point x="737" y="404" type="curve" smooth="yes"/>
      <point x="737" y="612"/>
      <point x="577" y="657"/>
      <point x="405" y="657" type="curve" smooth="yes"/>
      <point x="125" y="657" type="line"/>
      <point x="115" y="611" type="line"/>
      <point x="184" y="611"/>
      <point x="203" y="603"/>
      <point x="187" y="529" type="curve" smooth="yes"/>
      <point x="106" y="137" type="line" smooth="yes"/>
      <point x="89" y="55"/>
      <point x="75" y="43"/>
      <point x="-5" y="43" type="curve"/>
      <point x="-14" y="0" type="line"/>
    </contour>
    <contour>
      <point x="410" y="302" type="line"/>
      <point x="423" y="360" type="line"/>
      <point x="51" y="360" type="line"/>
      <point x="38" y="302" type="line"/>
    </contour>
    <contour>
      <point x="279" y="57" type="curve" smooth="yes"/>
      <point x="266" y="57"/>
      <point x="249" y="57"/>
      <point x="234" y="58" type="curve"/>
      <point x="346" y="599" type="line"/>
      <point x="364" y="600"/>
      <point x="374" y="600"/>
      <point x="385" y="600" type="curve" smooth="yes"/>
      <point x="519" y="600"/>
      <point x="582" y="528"/>
      <point x="582" y="387" type="curve" smooth="yes"/>
      <point x="582" y="146"/>
      <point x="488" y="57"/>
    </contour>
  </outline>
</glyph>
<glyph name="multiply" format="2">
  <advance width="700"/>
  <unicode hex="00D7"/>
  <outline>
    <contour>
      <point x="655" y="22" type="line"/>
      <point x="120" y="557" type="line"/>
      <point x="55" y="495" type="line"/>
      <point x="593" y="-43" type="line"/>
    </contour>
    <contour>
      <point x="655" y="495" type="line"/>
      <point x="592" y="557" type="line"/>
      <point x="56" y="21" type="line"/>
      <point x="119" y="-42" type="line"/>
    </contour>
  </outline>
</glyph>
<glyph name="Oslash" format="2">
  <advance width="749"/>
  <unicode hex="00D8"/>
  <anchor x="327" y="0" name="bottom"/>
  <anchor x="326" y="0" name="cedilla"/>
  <anchor x="396" y="0" name="ogonek"/>
  <anchor x="466" y="657" name="top"/>
  <outline>
    <contour>
      <point x="176" y="79" type="line"/>
      <point x="189" y="92" type="line"/>
      <point x="622" y="549" type="line"/>
      <point x="632" y="560" type="line"/>
      <point x="711" y="643" type="line"/>
      <point x="669" y="679" type="line"/>
      <point x="599" y="605" type="line"/>
      <point x="588" y="594" type="line"/>
      <point x="158" y="139" type="line"/>
      <point x="148" y="129" type="line"/>
      <point x="39" y="14" type="line"/>
      <point x="80" y="-22" type="line"/>
    </contour>
    <contour>
      <point x="322" y="-14" type="curve" smooth="yes"/>
      <point x="575" y="-14"/>
      <point x="729" y="169"/>
      <point x="729" y="415" type="curve" smooth="yes"/>
      <point x="729" y="579"/>
      <point x="628" y="669"/>
      <point x="465" y="669" type="curve" smooth="yes"/>
      <point x="222" y="669"/>
      <point x="61" y="494"/>
      <point x="61" y="244" type="curve" smooth="yes"/>
      <point x="61" y="76"/>
      <point x="154" y="-14"/>
    </contour>
    <contour>
      <point x="335" y="38" type="curve" smooth="yes"/>
      <point x="241" y="38"/>
      <point x="210" y="122"/>
      <point x="210" y="225" type="curve" smooth="yes"/>
      <point x="210" y="452"/>
      <point x="310" y="619"/>
      <point x="452" y="619" type="curve" smooth="yes"/>
      <point x="542" y="619"/>
      <point x="578" y="531"/>
      <point x="578" y="430" type="curve" smooth="yes"/>
      <point x="578" y="276"/>
      <point x="535" y="38"/>
    </contour>
  </outline>
</glyph>
<glyph name="Thorn" format="2">
  <advance width="641"/>
  <unicode hex="00DE"/>
  <anchor x="233" y="0" name="bottom"/>
  <anchor x="168" y="0" name="cedilla"/>
  <anchor x="167" y="0" name="ogonek"/>
  <anchor x="371" y="657" name="top"/>
  <outline>
    <contour>
      <point x="304" y="0" type="line"/>
      <point x="313" y="43" type="line"/>
      <point x="230" y="43"/>
      <point x="230" y="59"/>
      <point x="247" y="144" type="curve" smooth="yes"/>
      <point x="323" y="511" type="line"/>
      <point x="340" y="589"/>
      <point x="349" y="614"/>
      <point x="437" y="614" type="curve"/>
      <point x="445" y="657" type="line"/>
      <point x="117" y="657" type="line"/>
      <point x="108" y="614" type="line"/>
      <point x="193" y="614"/>
      <point x="194" y="590"/>
      <point x="178" y="511" type="curve" smooth="yes"/>
      <point x="102" y="144" type="line"/>
      <point x="83" y="58"/>
      <point x="75" y="43"/>
      <point x="-10" y="43" type="curve"/>
      <point x="-20" y="0" type="line"/>
    </contour>
    <contour>
      <point x="316" y="152" type="curve" smooth="yes"/>
      <point x="482" y="152"/>
      <point x="631" y="209"/>
      <point x="631" y="385" type="curve" smooth="yes"/>
      <point x="631" y="506"/>
      <point x="535" y="530"/>
      <point x="412" y="530" type="curve" smooth="yes"/>
      <point x="370" y="530"/>
      <point x="336" y="526"/>
      <point x="321" y="526" type="curve"/>
      <point x="303" y="481" type="line"/>
      <point x="328" y="482"/>
      <point x="339" y="484"/>
      <point x="359" y="484" type="curve" smooth="yes"/>
      <point x="443" y="484"/>
      <point x="479" y="454"/>
      <point x="479" y="387" type="curve" smooth="yes"/>
      <point x="479" y="273"/>
      <point x="398" y="206"/>
      <point x="303" y="206" type="curve" smooth="yes"/>
      <point x="275" y="206"/>
      <point x="265" y="208"/>
      <point x="254" y="209" type="curve"/>
      <point x="239" y="164" type="line"/>
      <point x="263" y="158"/>
      <point x="286" y="152"/>
    </contour>
  </outline>
</glyph>
<glyph name="germandbls" format="2">
  <advance width="649"/>
  <unicode hex="00DF"/>
  <anchor x="265" y="-220" name="bottom"/>
  <anchor x="266" y="-220" name="cedilla"/>
  <anchor x="266" y="-220" name="ogonek"/>
  <anchor x="362" y="693" name="top"/>
  <outline>
    <contour>
      <point x="-42" y="-230" type="curve" smooth="yes"/>
      <point x="143" y="-230"/>
      <point x="203" y="-28"/>
      <point x="219" y="80" type="curve" smooth="yes"/>
      <point x="289" y="560" type="line" smooth="yes"/>
      <point x="299" y="629"/>
      <point x="333" y="663"/>
      <point x="396" y="663" type="curve" smooth="yes"/>
      <point x="463" y="663"/>
      <point x="476" y="624"/>
      <point x="476" y="567" type="curve" smooth="yes"/>
      <point x="476" y="494"/>
      <point x="456" y="446"/>
      <point x="346" y="432" type="curve"/>
      <point x="338" y="374" type="line"/>
      <point x="433" y="361"/>
      <point x="474" y="316"/>
      <point x="474" y="196" type="curve" smooth="yes"/>
      <point x="474" y="101"/>
      <point x="448" y="42"/>
      <point x="405" y="42" type="curve" smooth="yes"/>
      <point x="351" y="42"/>
      <point x="377" y="137"/>
      <point x="308" y="137" type="curve" smooth="yes"/>
      <point x="272" y="137"/>
      <point x="253" y="111"/>
      <point x="253" y="76" type="curve" smooth="yes"/>
      <point x="253" y="25"/>
      <point x="295" y="-6"/>
      <point x="372" y="-6" type="curve" smooth="yes"/>
      <point x="484" y="-6"/>
      <point x="615" y="61"/>
      <point x="615" y="215" type="curve" smooth="yes"/>
      <point x="615" y="345"/>
      <point x="521" y="390"/>
      <point x="433" y="404" type="curve"/>
      <point x="433" y="408" type="line"/>
      <point x="557" y="438"/>
      <point x="609" y="492"/>
      <point x="609" y="573" type="curve" smooth="yes"/>
      <point x="609" y="664"/>
      <point x="542" y="712"/>
      <point x="417" y="712" type="curve" smooth="yes"/>
      <point x="273" y="712"/>
      <point x="164" y="648"/>
      <point x="138" y="506" type="curve"/>
      <point x="71" y="47" type="line" smooth="yes"/>
      <point x="64" y="-1"/>
      <point x="31" y="-178"/>
      <point x="-23" y="-178" type="curve" smooth="yes"/>
      <point x="-64" y="-178"/>
      <point x="-40" y="-76"/>
      <point x="-116" y="-76" type="curve" smooth="yes"/>
      <point x="-155" y="-76"/>
      <point x="-174" y="-103"/>
      <point x="-174" y="-138" type="curve" smooth="yes"/>
      <point x="-174" y="-204"/>
      <point x="-109" y="-230"/>
    </contour>
    <contour>
      <point x="139" y="416" type="line"/>
      <point x="146" y="473" type="line"/>
      <point x="47" y="473" type="line"/>
      <point x="38" y="416" type="line"/>
    </contour>
  </outline>
</glyph>
<glyph name="ae" format="2">
  <advance width="743"/>
  <unicode hex="00E6"/>
  <anchor x="351" y="0" name="bottom"/>
  <anchor x="351" y="0" name="cedilla"/>
  <anchor x="516" y="0" name="ogonek"/>
  <anchor x="448" y="473" name="top"/>
  <outline>
    <contour>
      <point x="157" y="-14" type="curve" smooth="yes"/>
      <point x="258" y="-14"/>
      <point x="299" y="38"/>
      <point x="329" y="105" type="curve"/>
      <point x="350" y="105" type="line"/>
      <point x="456" y="387" type="line"/>
      <point x="430" y="387" type="line"/>
      <point x="448" y="445" type="line"/>
      <point x="434" y="465" type="line"/>
      <point x="406" y="475"/>
      <point x="373" y="478"/>
      <point x="333" y="478" type="curve" smooth="yes"/>
      <point x="135" y="478"/>
      <point x="29" y="348"/>
      <point x="29" y="143" type="curve" smooth="yes"/>
      <point x="29" y="33"/>
      <point x="80" y="-14"/>
    </contour>
    <contour>
      <point x="224" y="69" type="curve" smooth="yes"/>
      <point x="194" y="69"/>
      <point x="176" y="82"/>
      <point x="176" y="170" type="curve" smooth="yes"/>
      <point x="176" y="317"/>
      <point x="219" y="417"/>
      <point x="275" y="417" type="curve" smooth="yes"/>
      <point x="316" y="417"/>
      <point x="347" y="390"/>
      <point x="346" y="386" type="curve" smooth="yes"/>
      <point x="334" y="316"/>
      <point x="316" y="231"/>
      <point x="306" y="191" type="curve" smooth="yes"/>
      <point x="288" y="120"/>
      <point x="262" y="69"/>
    </contour>
    <contour>
      <point x="468" y="-14" type="curve" smooth="yes"/>
      <point x="562" y="-14"/>
      <point x="644" y="10"/>
      <point x="708" y="116" type="curve"/>
      <point x="679" y="139" type="line"/>
      <point x="641" y="91"/>
      <point x="599" y="68"/>
      <point x="544" y="68" type="curve" smooth="yes"/>
      <point x="491" y="68"/>
      <point x="446" y="93"/>
      <point x="446" y="181" type="curve" smooth="yes"/>
      <point x="446" y="305"/>
      <point x="501" y="428"/>
      <point x="557" y="428" type="curve" smooth="yes"/>
      <point x="576" y="428"/>
      <point x="591" y="412"/>
      <point x="591" y="369" type="curve" smooth="yes"/>
      <point x="591" y="290"/>
      <point x="520" y="236"/>
      <point x="438" y="233" type="curve"/>
      <point x="437" y="192" type="line"/>
      <point x="547" y="201"/>
      <point x="733" y="238"/>
      <point x="733" y="387" type="curve" smooth="yes"/>
      <point x="733" y="456"/>
      <point x="677" y="479"/>
      <point x="613" y="479" type="curve" smooth="yes"/>
      <point x="539" y="479"/>
      <point x="490" y="455"/>
      <point x="426" y="369" type="curve"/>
      <point x="334" y="121" type="line"/>
      <point x="332" y="45"/>
      <point x="368" y="-14"/>
    </contour>
  </outline>
</glyph>
<glyph name="icircumflex" format="2">
  <advance width="325"/>
  <unicode hex="00EE"/>
  <anchor x="142" y="0" name="bottom"/>
  <anchor x="142" y="0" name="cedilla"/>
  <anchor x="172" y="0" name="ogonek"/>
  <anchor x="219" y="673" name="top.mkmk"/>
  <outline>
    <contour>
      <point x="129" y="-12" type="curve"/>
      <point x="246" y="-11"/>
      <point x="280" y="40"/>
      <point x="314" y="89" type="curve"/>
      <point x="283" y="112" type="line"/>
      <point x="267" y="94"/>
      <point x="246" y="65"/>
      <point x="212" y="65" type="curve" smooth="yes"/>
      <point x="200" y="65"/>
      <point x="193" y="71"/>
      <point x="193" y="84" type="curve" smooth="yes"/>
      <point x="193" y="98"/>
      <point x="199" y="126"/>
      <point x="199" y="126" type="curve"/>
      <point x="273" y="476" type="line"/>
      <point x="221" y="476" type="line"/>
      <point x="49" y="465" type="line"/>
      <point x="49" y="422" type="line"/>
      <point x="49" y="422"/>
      <point x="64" y="424"/>
      <point x="81" y="424" type="curve" smooth="yes"/>
      <point x="108" y="424"/>
      <point x="114" y="409"/>
      <point x="114" y="396" type="curve" smooth="yes"/>
      <point x="114" y="381"/>
      <point x="110" y="364"/>
      <point x="110" y="364" type="curve"/>
      <point x="63" y="142" type="line" smooth="yes"/>
      <point x="50" y="83"/>
      <point x="47" y="67"/>
      <point x="47" y="50" type="curve" smooth="yes"/>
      <point x="47" y="15"/>
      <point x="72" y="-12"/>
    </contour>
    <contour>
      <point x="101" y="521" type="line"/>
      <point x="207" y="607" type="line"/>
      <point x="276" y="521" type="line"/>
      <point x="334" y="521" type="line"/>
      <point x="267" y="674" type="line"/>
      <point x="174" y="674" type="line"/>
      <point x="42" y="521" type="line"/>
    </contour>
  </outline>
</glyph>
<glyph name="idieresis" format="2">
  <advance width="325"/>
  <unicode hex="00EF"/>
  <anchor x="142" y="0" name="bottom"/>
  <anchor x="142" y="0" name="cedilla"/>
  <anchor x="172" y="0" name="ogonek"/>
  <anchor x="211" y="688" name="top.mkmk"/>
  <outline>
    <contour>
      <point x="129" y="-12" type="curve"/>
      <point x="246" y="-11"/>
      <point x="280" y="40"/>
      <point x="314" y="89" type="curve"/>
      <point x="283" y="112" type="line"/>
      <point x="267" y="94"/>
      <point x="246" y="65"/>
      <point x="212" y="65" type="curve" smooth="yes"/>
      <point x="200" y="65"/>
      <point x="193" y="71"/>
      <point x="193" y="84" type="curve" smooth="yes"/>
      <point x="193" y="98"/>
      <point x="199" y="126"/>
      <point x="199" y="126" type="curve"/>
      <point x="273" y="476" type="line"/>
      <point x="221" y="476" type="line"/>
      <point x="49" y="465" type="line"/>
      <point x="49" y="422" type="line"/>
      <point x="49" y="422"/>
      <point x="64" y="424"/>
      <point x="81" y="424" type="curve" smooth="yes"/>
      <point x="108" y="424"/>
      <point x="114" y="409"/>
      <point x="114" y="396" type="curve" smooth="yes"/>
      <point x="114" y="381"/>
      <point x="110" y="364"/>
      <point x="110" y="364" type="curve"/>
      <point x="63" y="142" type="line" smooth="yes"/>
      <point x="50" y="83"/>
      <point x="47" y="67"/>
      <point x="47" y="50" type="curve" smooth="yes"/>
      <point x="47" y="15"/>
      <point x="72" y="-12"/>
    </contour>
    <contour>
      <point x="102" y="542" type="curve" smooth="yes"/>
      <point x="152" y="542"/>
      <point x="178" y="571"/>
      <point x="178" y="616" type="curve" smooth="yes"/>
      <point x="178" y="659"/>
      <point x="152" y="688"/>
      <point x="102" y="688" type="curve" smooth="yes"/>
      <point x="54" y="688"/>
      <point x="27" y="659"/>
      <point x="27" y="615" type="curve" smooth="yes"/>
      <point x="27" y="571"/>
      <point x="55" y="542"/>
    </contour>
    <contour>
      <point x="316" y="542" type="curve" smooth="yes"/>
      <point x="366" y="542"/>
      <point x="392" y="571"/>
      <point x="392" y="616" type="curve" smooth="yes"/>
      <point x="392" y="659"/>
      <point x="366" y="688"/>
      <point x="316" y="688" type="curve" smooth="yes"/>
      <point x="268" y="688"/>
      <point x="241" y="659"/>
      <point x="241" y="615" type="curve" smooth="yes"/>
      <point x="241" y="571"/>
      <point x="269" y="542"/>
    </contour>
  </outline>
</glyph>
<glyph name="eth" format="2">
  <advance width="555"/>
  <unicode hex="00F0"/>
  <anchor x="232" y="0" name="bottom"/>
  <anchor x="232" y="0" name="cedilla"/>
  <anchor x="248" y="0" name="ogonek"/>
  <anchor x="333" y="693" name="top"/>
  <outline>
    <contour>
      <point x="231" y="-13" type="curve" smooth="yes"/>
      <point x="463" y="-13"/>
      <point x="525" y="213"/>
      <point x="525" y="376" type="curve" smooth="yes"/>
      <point x="525" y="583"/>
      <point x="425" y="712"/>
      <point x="261" y="712" type="curve" smooth="yes"/>
      <point x="200" y="712"/>
      <point x="163" y="694"/>
      <point x="129" y="668" type="curve"/>
      <point x="149" y="636" type="line"/>
      <point x="168" y="648"/>
      <point x="194" y="659"/>
      <point x="226" y="659" type="curve" smooth="yes"/>
      <point x="332" y="659"/>
      <point x="387" y="537"/>
      <point x="387" y="441" type="curve"/>
      <point x="381" y="438" type="line"/>
      <point x="366" y="453"/>
      <point x="340" y="469"/>
      <point x="286" y="469" type="curve" smooth="yes"/>
      <point x="141" y="469"/>
      <point x="31" y="351"/>
      <point x="31" y="189" type="curve" smooth="yes"/>
      <point x="31" y="68"/>
      <point x="93" y="-13"/>
    </contour>
    <contour>
      <point x="242" y="35" type="curve" smooth="yes"/>
      <point x="193" y="35"/>
      <point x="181" y="96"/>
      <point x="181" y="175" type="curve" smooth="yes"/>
      <point x="181" y="332"/>
      <point x="229" y="422"/>
      <point x="295" y="422" type="curve" smooth="yes"/>
      <point x="346" y="422"/>
      <point x="360" y="367"/>
      <point x="360" y="291" type="curve" smooth="yes"/>
      <point x="360" y="147"/>
      <point x="309" y="35"/>
    </contour>
    <contour>
      <point x="539" y="647" type="line"/>
      <point x="520" y="691" type="line"/>
      <point x="215" y="567" type="line"/>
      <point x="234" y="523" type="line"/>
    </contour>
  </outline>
</glyph>
<glyph name="divide" format="2">
  <advance width="673"/>
  <unicode hex="00F7"/>
  <outline>
    <contour>
      <point x="612" y="213" type="line"/>
      <point x="612" y="305" type="line"/>
      <point x="71" y="305" type="line"/>
      <point x="71" y="213" type="line"/>
    </contour>
    <contour>
      <point x="342" y="-22" type="curve" smooth="yes"/>
      <point x="378" y="-22"/>
      <point x="411" y="8"/>
      <point x="411" y="45" type="curve" smooth="yes"/>
      <point x="411" y="83"/>
      <point x="378" y="115"/>
      <point x="343" y="115" type="curve" smooth="yes"/>
      <point x="304" y="115"/>
      <point x="273" y="85"/>
      <point x="273" y="46" type="curve" smooth="yes"/>
      <point x="273" y="7"/>
      <point x="303" y="-22"/>
    </contour>
    <contour>
      <point x="342" y="402" type="curve" smooth="yes"/>
      <point x="378" y="402"/>
      <point x="411" y="433"/>
      <point x="411" y="470" type="curve" smooth="yes"/>
      <point x="411" y="506"/>
      <point x="378" y="540"/>
      <point x="343" y="540" type="curve" smooth="yes"/>
      <point x="304" y="540"/>
      <point x="273" y="510"/>
      <point x="273" y="471" type="curve" smooth="yes"/>
      <point x="273" y="432"/>
      <point x="303" y="402"/>
    </contour>
  </outline>
</glyph>
<glyph name="oslash" format="2">
  <advance width="538"/>
  <unicode hex="00F8"/>
  <anchor x="209" y="0" name="bottom"/>
  <anchor x="233" y="0" name="cedilla"/>
  <anchor x="282" y="0" name="ogonek"/>
  <anchor x="313" y="473" name="top"/>
  <outline>
    <contour>
      <point x="504" y="462" type="line"/>
      <point x="466" y="495" type="line"/>
      <point x="31" y="4" type="line"/>
      <point x="69" y="-29" type="line"/>
    </contour>
    <contour>
      <point x="231" y="-13" type="curve" smooth="yes"/>
      <point x="407" y="-13"/>
      <point x="510" y="121"/>
      <point x="510" y="280" type="curve" smooth="yes"/>
      <point x="510" y="432"/>
      <point x="416" y="481"/>
      <point x="311" y="481" type="curve" smooth="yes"/>
      <point x="136" y="481"/>
      <point x="30" y="346"/>
      <point x="30" y="187" type="curve" smooth="yes"/>
      <point x="30" y="37"/>
      <point x="124" y="-13"/>
    </contour>
    <contour>
      <point x="242" y="35" type="curve" smooth="yes"/>
      <point x="192" y="35"/>
      <point x="179" y="90"/>
      <point x="179" y="169" type="curve" smooth="yes"/>
      <point x="179" y="319"/>
      <point x="227" y="434"/>
      <point x="298" y="434" type="curve" smooth="yes"/>
      <point x="348" y="434"/>
      <point x="361" y="379"/>
      <point x="361" y="300" type="curve" smooth="yes"/>
      <point x="361" y="150"/>
      <point x="313" y="35"/>
    </contour>
  </outline>
</glyph>
<glyph name="thorn" format="2">
  <advance width="561"/>
  <unicode hex="00FE"/>
  <anchor x="150" y="-220" name="bottom"/>
  <anchor x="150" y="-220" name="cedilla"/>
  <anchor x="149" y="-220" name="ogonek"/>
  <anchor x="344" y="693" name="top"/>
  <outline>
    <contour>
      <point x="236" y="-220" type="line"/>
      <point x="245" y="-178" type="line"/>
      <point x="165" y="-178"/>
      <point x="144" y="-152"/>
      <point x="144" y="-124" type="curve" smooth="yes"/>
      <point x="144" y="-116"/>
      <point x="146" y="-96"/>
      <point x="148" y="-86" type="curve" smooth="yes"/>
      <point x="231" y="330" type="line"/>
      <point x="244" y="401" type="line"/>
      <point x="267" y="519" type="line"/>
      <point x="304" y="705" type="line"/>
      <point x="245" y="705" type="line"/>
      <point x="83" y="696" type="line"/>
      <point x="83" y="653" type="line"/>
      <point x="83" y="653"/>
      <point x="104" y="654"/>
      <point x="115" y="654" type="curve" smooth="yes"/>
      <point x="135" y="654"/>
      <point x="151" y="649"/>
      <point x="151" y="627" type="curve" smooth="yes"/>
      <point x="151" y="615"/>
      <point x="148" y="596"/>
      <point x="147" y="592" type="curve" smooth="yes"/>
      <point x="-22" y="-220" type="line"/>
    </contour>
    <contour>
      <point x="269" y="-11" type="curve" smooth="yes"/>
      <point x="408" y="-11"/>
      <point x="533" y="114"/>
      <point x="533" y="300" type="curve" smooth="yes"/>
      <point x="533" y="423"/>
      <point x="469" y="481"/>
      <point x="388" y="481" type="curve" smooth="yes"/>
      <point x="333" y="481"/>
      <point x="306" y="464"/>
      <point x="254" y="417" type="curve"/>
      <point x="231" y="417" type="line"/>
      <point x="224" y="301" type="line"/>
      <point x="236" y="345"/>
      <point x="277" y="412"/>
      <point x="331" y="412" type="curve" smooth="yes"/>
      <point x="360" y="412"/>
      <point x="385" y="389"/>
      <point x="385" y="298" type="curve" smooth="yes"/>
      <point x="385" y="153"/>
      <point x="332" y="43"/>
      <point x="254" y="43" type="curve" smooth="yes"/>
      <point x="221" y="43"/>
      <point x="193" y="63"/>
      <point x="171" y="84" type="curve"/>
      <point x="162" y="19" type="line"/>
      <point x="181" y="9"/>
      <point x="214" y="-11"/>
    </contour>
  </outline>
</glyph>
<glyph name="Aogonek" format="2">
  <advance width="709"/>
  <unicode hex="0104"/>
  <anchor x="225" y="-250" name="bottom.mkmk"/>
  <anchor x="225" y="-250" name="cedilla"/>
  <anchor x="225" y="-250" name="ogonek"/>
  <anchor x="461" y="657" name="top"/>
  <outline>
    <contour>
      <point x="300" y="-221" type="curve" smooth="yes"/>
      <point x="360" y="-221"/>
      <point x="399" y="-193"/>
      <point x="447" y="-154" type="curve"/>
      <point x="428" y="-126" type="line"/>
      <point x="395" y="-148"/>
      <point x="378" y="-157"/>
      <point x="348" y="-157" type="curve" smooth="yes"/>
      <point x="312" y="-157"/>
      <point x="300" y="-141"/>
      <point x="300" y="-112" type="curve" smooth="yes"/>
      <point x="300" y="-46"/>
      <point x="374" y="0"/>
      <point x="452" y="0" type="curve" smooth="yes"/>
      <point x="668" y="0" type="line"/>
      <point x="674" y="43" type="line"/>
      <point x="628" y="43"/>
      <point x="602" y="74"/>
      <point x="592" y="138" type="curve" smooth="yes"/>
      <point x="512" y="662" type="line"/>
      <point x="419" y="662" type="line"/>
      <point x="79" y="140" type="line" smooth="yes"/>
      <point x="28" y="62"/>
      <point x="5" y="43"/>
      <point x="-45" y="43" type="curve"/>
      <point x="-54" y="0" type="line"/>
      <point x="170" y="0" type="line"/>
      <point x="178" y="43" type="line"/>
      <point x="136" y="43"/>
      <point x="121" y="47"/>
      <point x="121" y="69" type="curve" smooth="yes"/>
      <point x="121" y="90"/>
      <point x="138" y="118"/>
      <point x="150" y="138" type="curve"/>
      <point x="205" y="224" type="line"/>
      <point x="219" y="250" type="line"/>
      <point x="386" y="512" type="line"/>
      <point x="390" y="512" type="line"/>
      <point x="417" y="250" type="line"/>
      <point x="419" y="224" type="line"/>
      <point x="430" y="151" type="line" smooth="yes"/>
      <point x="432" y="138"/>
      <point x="432" y="111"/>
      <point x="432" y="97" type="curve" smooth="yes"/>
      <point x="432" y="54"/>
      <point x="398" y="44"/>
      <point x="325" y="2" type="curve" smooth="yes"/>
      <point x="244" y="-45"/>
      <point x="206" y="-84"/>
      <point x="206" y="-141" type="curve" smooth="yes"/>
      <point x="206" y="-183"/>
      <point x="231" y="-221"/>
    </contour>
    <contour>
      <point x="434" y="211" type="line"/>
      <point x="429" y="263" type="line"/>
      <point x="212" y="263" type="line"/>
      <point x="182" y="211" type="line"/>
    </contour>
  </outline>
</glyph>
<glyph name="aogonek" format="2">
  <advance width="584"/>
  <unicode hex="0105"/>
  <anchor x="178" y="-250" name="bottom.mkmk"/>
  <anchor x="177" y="-250" name="cedilla"/>
  <anchor x="178" y="-250" name="ogonek"/>
  <anchor x="315" y="473" name="top"/>
  <outline>
    <contour>
      <point x="377" y="-221" type="curve" smooth="yes"/>
      <point x="436" y="-221"/>
      <point x="481" y="-193"/>
      <point x="528" y="-154" type="curve"/>
      <point x="509" y="-126" type="line"/>
      <point x="475" y="-148"/>
      <point x="461" y="-157"/>
      <point x="423" y="-157" type="curve" smooth="yes"/>
      <point x="397" y="-157"/>
      <point x="381" y="-141"/>
      <point x="381" y="-115" type="curve" smooth="yes"/>
      <point x="381" y="-47"/>
      <point x="435" y="-26"/>
      <point x="484" y="4" type="curve"/>
      <point x="531" y="25"/>
      <point x="558" y="64"/>
      <point x="573" y="88" type="curve"/>
      <point x="541" y="113" type="line"/>
      <point x="525" y="92"/>
      <point x="507" y="70"/>
      <point x="479" y="70" type="curve" smooth="yes"/>
      <point x="459" y="70"/>
      <point x="455" y="84"/>
      <point x="455" y="97" type="curve" smooth="yes"/>
      <point x="455" y="112"/>
      <point x="460" y="133"/>
      <point x="460" y="133" type="curve"/>
      <point x="531" y="473" type="line"/>
      <point x="449" y="473" type="line"/>
      <point x="409" y="426" type="line"/>
      <point x="403" y="426" type="line"/>
      <point x="384" y="451"/>
      <point x="359" y="481"/>
      <point x="299" y="481" type="curve" smooth="yes"/>
      <point x="159" y="481"/>
      <point x="30" y="364"/>
      <point x="30" y="150" type="curve" smooth="yes"/>
      <point x="30" y="36"/>
      <point x="86" y="-14"/>
      <point x="158" y="-14" type="curve" smooth="yes"/>
      <point x="237" y="-14"/>
      <point x="273" y="10"/>
      <point x="318" y="71" type="curve"/>
      <point x="326" y="71" type="line"/>
      <point x="325" y="63"/>
      <point x="325" y="56"/>
      <point x="325" y="50" type="curve" smooth="yes"/>
      <point x="325" y="6"/>
      <point x="345" y="-7"/>
      <point x="389" y="-10" type="curve"/>
      <point x="389" y="-14" type="line"/>
      <point x="341" y="-42"/>
      <point x="287" y="-76"/>
      <point x="287" y="-149" type="curve" smooth="yes"/>
      <point x="287" y="-191"/>
      <point x="317" y="-221"/>
    </contour>
    <contour>
      <point x="235" y="68" type="curve" smooth="yes"/>
      <point x="200" y="68"/>
      <point x="178" y="91"/>
      <point x="178" y="168" type="curve" smooth="yes"/>
      <point x="178" y="302"/>
      <point x="220" y="436"/>
      <point x="297" y="436" type="curve" smooth="yes"/>
      <point x="341" y="436"/>
      <point x="358" y="388"/>
      <point x="358" y="343" type="curve" smooth="yes"/>
      <point x="358" y="310"/>
      <point x="340" y="225"/>
      <point x="332" y="188" type="curve" smooth="yes"/>
      <point x="317" y="119"/>
      <point x="283" y="68"/>
    </contour>
  </outline>
</glyph>
<glyph name="dcroat" format="2">
  <advance width="575"/>
  <unicode hex="0111"/>
  <anchor x="228" y="0" name="bottom"/>
  <anchor x="228" y="0" name="cedilla"/>
  <anchor x="402" y="0" name="ogonek"/>
  <anchor x="352" y="693" name="top"/>
  <outline>
    <contour>
      <point x="176" y="-14" type="curve" smooth="yes"/>
      <point x="236" y="-14"/>
      <point x="273" y="12"/>
      <point x="316" y="71" type="curve"/>
      <point x="325" y="71" type="line"/>
      <point x="324" y="64"/>
      <point x="324" y="58"/>
      <point x="324" y="52" type="curve" smooth="yes"/>
      <point x="324" y="5"/>
      <point x="346" y="-12"/>
      <point x="401" y="-12" type="curve" smooth="yes"/>
      <point x="501" y="-12"/>
      <point x="540" y="43"/>
      <point x="572" y="89" type="curve"/>
      <point x="541" y="112" type="line"/>
      <point x="527" y="93"/>
      <point x="500" y="65"/>
      <point x="473" y="65" type="curve" smooth="yes"/>
      <point x="461" y="65"/>
      <point x="448" y="70"/>
      <point x="448" y="86" type="curve" smooth="yes"/>
      <point x="448" y="95"/>
      <point x="452" y="122"/>
      <point x="452" y="122" type="curve"/>
      <point x="568" y="705" type="line"/>
      <point x="522" y="705" type="line"/>
      <point x="348" y="694" type="line"/>
      <point x="348" y="653" type="line"/>
      <point x="348" y="653"/>
      <point x="367" y="655"/>
      <point x="379" y="655" type="curve" smooth="yes"/>
      <point x="409" y="655"/>
      <point x="414" y="641"/>
      <point x="414" y="624" type="curve" smooth="yes"/>
      <point x="414" y="610"/>
      <point x="411" y="592"/>
      <point x="411" y="592" type="curve"/>
      <point x="382" y="441" type="line"/>
      <point x="377" y="441" type="line"/>
      <point x="352" y="463"/>
      <point x="326" y="475"/>
      <point x="285" y="475" type="curve" smooth="yes"/>
      <point x="151" y="475"/>
      <point x="30" y="351"/>
      <point x="30" y="168" type="curve" smooth="yes"/>
      <point x="30" y="42"/>
      <point x="88" y="-14"/>
    </contour>
    <contour>
      <point x="230" y="68" type="curve" smooth="yes"/>
      <point x="197" y="68"/>
      <point x="176" y="88"/>
      <point x="176" y="175" type="curve" smooth="yes"/>
      <point x="176" y="296"/>
      <point x="215" y="430"/>
      <point x="293" y="430" type="curve" smooth="yes"/>
      <point x="339" y="430"/>
      <point x="357" y="382"/>
      <point x="357" y="343" type="curve" smooth="yes"/>
      <point x="357" y="311"/>
      <point x="346" y="248"/>
      <point x="326" y="170" type="curve"/>
      <point x="313" y="113"/>
      <point x="280" y="68"/>
    </contour>
    <contour>
      <point x="599" y="528" type="line"/>
      <point x="610" y="581" type="line"/>
      <point x="244" y="581" type="line"/>
      <point x="233" y="528" type="line"/>
    </contour>
  </outline>
</glyph>
<glyph name="Eogonek" format="2">
  <advance width="646"/>
  <unicode hex="0118"/>
  <anchor x="218" y="-250" name="bottom.mkmk"/>
  <anchor x="215" y="-250" name="cedilla"/>
  <anchor x="218" y="-250" name="ogonek"/>
  <anchor x="411" y="657" name="top"/>
  <outline>
    <contour>
      <point x="541" y="0" type="line"/>
      <point x="606" y="197" type="line"/>
      <point x="558" y="197" type="line"/>
      <point x="505" y="87"/>
      <point x="473" y="61"/>
      <point x="344" y="61" type="curve" smooth="yes"/>
      <point x="229" y="61" type="line"/>
      <point x="340" y="594" type="line"/>
      <point x="469" y="594" type="line" smooth="yes"/>
      <point x="578" y="594"/>
      <point x="589" y="566"/>
      <point x="585" y="476" type="curve"/>
      <point x="636" y="476" type="line"/>
      <point x="667" y="657" type="line"/>
      <point x="117" y="657" type="line"/>
      <point x="108" y="613" type="line"/>
      <point x="187" y="613"/>
      <point x="196" y="598"/>
      <point x="180" y="523" type="curve" smooth="yes"/>
      <point x="98" y="126" type="line" smooth="yes"/>
      <point x="82" y="52"/>
      <point x="56" y="43"/>
      <point x="-10" y="43" type="curve"/>
      <point x="-20" y="0" type="line"/>
    </contour>
    <contour>
      <point x="384" y="-221" type="curve" smooth="yes"/>
      <point x="443" y="-221"/>
      <point x="484" y="-193"/>
      <point x="531" y="-154" type="curve"/>
      <point x="512" y="-126" type="line"/>
      <point x="479" y="-148"/>
      <point x="460" y="-157"/>
      <point x="432" y="-157" type="curve" smooth="yes"/>
      <point x="400" y="-157"/>
      <point x="384" y="-145"/>
      <point x="384" y="-112" type="curve" smooth="yes"/>
      <point x="384" y="-43"/>
      <point x="452" y="-19"/>
      <point x="493" y="7" type="curve"/>
      <point x="411" y="5" type="line"/>
      <point x="411" y="-1" type="line"/>
      <point x="364" y="-24"/>
      <point x="290" y="-65"/>
      <point x="290" y="-141" type="curve" smooth="yes"/>
      <point x="290" y="-188"/>
      <point x="320" y="-221"/>
    </contour>
    <contour>
      <point x="501" y="218" type="line"/>
      <point x="549" y="449" type="line"/>
      <point x="503" y="449" type="line"/>
      <point x="487" y="371"/>
      <point x="477" y="364"/>
      <point x="379" y="364" type="curve" smooth="yes"/>
      <point x="277" y="364" type="line"/>
      <point x="267" y="310" type="line"/>
      <point x="368" y="310" type="line" smooth="yes"/>
      <point x="466" y="310"/>
      <point x="473" y="301"/>
      <point x="455" y="218" type="curve"/>
    </contour>
  </outline>
</glyph>
